<svg width="58" height="44" viewBox="0 0 58 44" fill="none" xmlns="http://www.w3.org/2000/svg">
<rect width="58" height="44" rx="16" fill="#8787FF"/>
<path d="M38.148 32.5632C31.6786 32.9676 20.3573 32.7654 20.3573 32.7654L17.0216 35.5957C17.0216 35.5957 18.74 35.7979 20.8628 35.899C26.6245 36.1011 33.8014 35.899 35.3176 35.5957C35.3176 35.5957 37.3393 33.5741 38.249 32.4622L38.148 32.5632Z" fill="#BFC6E2"/>
<path d="M15.3032 17.9061C15.7076 24.9819 16.4151 35.2924 17.0216 35.5956L20.3574 32.7653C20.1552 30.3393 19.5487 21.7473 19.0433 15.4801C18.1335 16.0866 15.3032 18.0072 15.3032 18.0072V17.9061Z" fill="#D6DAF2"/>
<path d="M38.0469 15.379C32.9928 15.2779 19.7509 14.9747 19.0433 15.379C19.5488 21.7473 20.1552 30.2382 20.3574 32.6642C20.3574 32.6642 31.7798 32.7653 38.148 32.4621C38.148 28.3177 38.0469 21.0397 38.148 15.379H38.0469Z" fill="white"/>
<path d="M40.6751 27.7112C37.1372 29.5307 33.3971 30.4404 30.6678 30.8448C35.2166 30.8448 40.4729 30.6426 43.2021 29.8339C43.2021 29.8339 41.9891 29.6318 40.6751 27.7112Z" fill="#E3E7FD"/>
<path d="M38.0469 15.0759C38.0469 15.0759 26.6246 13.2564 26.5235 13.3575C26.3213 13.5596 19.3466 13.8629 19.3466 13.8629L19.0433 15.1769C19.0433 15.1769 19.0433 15.278 19.0433 15.4802C19.2455 16.6932 21.065 27.2058 25.5126 30.7437C26.9278 30.7437 28.7473 30.7437 30.6679 30.7437C33.3971 30.3394 37.1372 29.4297 40.6751 27.6102C39.361 25.6896 38.0469 21.9495 38.0469 14.9748V15.0759Z" fill="#BFC6E2"/>
<path d="M19.0433 15.5813C19.1444 17.8051 19.7509 28.3178 22.1769 30.7438C22.1769 30.7438 23.491 30.7438 25.5126 30.8448C21.065 27.3069 19.2455 16.7943 19.0433 15.5813Z" fill="#E3E7FD"/>
<path d="M37.6426 24.0722C38.4513 24.3755 39.361 24.0722 40.0686 23.4657C39.1589 21.7473 38.3502 18.917 38.0469 15.0758C37.2383 6.3827 21.2672 9.9206 21.2672 9.9206L20.5596 13.0542L19.0433 15.3791C19.0433 15.3791 19.9531 24.982 25.5126 29.3285C25.5126 29.3285 29.3538 29.5307 33.195 28.722C36.1264 27.408 37.6426 23.9711 37.6426 23.9711V24.0722Z" fill="white"/>
<path d="M40.0686 23.5668C39.361 24.1733 38.4513 24.4765 37.6426 24.1733C37.6426 24.1733 36.1264 27.509 33.1949 28.9242C33.9025 28.8231 34.7112 28.4188 35.5199 28.1155C37.2383 27.3068 38.7545 25.9928 39.7653 24.2744C39.8664 24.0722 40.0686 23.7689 40.0686 23.5668Z" fill="#D6DAF2"/>
<path d="M18.5379 8.30334C18.5379 8.30334 15.1011 10.6283 15 11.3358C15 11.538 15 14.3683 15.2022 18.0073C15.2022 18.0073 18.0325 16.0867 18.9422 15.4802C18.639 11.4369 18.4368 8.30334 18.4368 8.30334H18.5379Z" fill="#FF2355"/>
<path d="M38.047 15.3791C38.047 13.1553 38.047 11.2347 38.047 9.81952C38.047 9.11194 37.5416 8.40436 36.7329 8.40436C33.4983 8.20219 25.0073 7.69678 18.538 8.30328C18.538 8.30328 18.7401 11.4369 19.0434 15.4802C19.751 14.9748 32.9928 15.278 38.047 15.4802V15.3791Z" fill="#FF3C69"/>
<path d="M31.3755 10.8303C31.3755 10.8303 30.5668 11.0325 30.3646 11.4368C29.0505 11.1336 27.7365 11.2347 26.9278 11.4368C26.7256 11.1336 26.3213 10.8303 25.917 10.8303C25.3105 10.8303 24.8051 11.3357 24.8051 12.0433C24.8051 12.7509 25.3105 13.2563 25.917 13.2563C26.5235 13.2563 27.0289 12.7509 27.0289 12.1444C27.8375 11.9422 28.9495 11.8412 30.1625 12.1444C30.1625 12.7509 30.6679 13.2563 31.2744 13.2563C31.8809 13.2563 32.3863 12.7509 32.3863 12.0433C32.3863 11.3357 31.8809 10.8303 31.2744 10.8303H31.3755Z" fill="#EA0035"/>
<path d="M25.5125 12.5488C26.1266 12.5488 26.6245 12.051 26.6245 11.4369C26.6245 10.8228 26.1266 10.325 25.5125 10.325C24.8985 10.325 24.4006 10.8228 24.4006 11.4369C24.4006 12.051 24.8985 12.5488 25.5125 12.5488Z" fill="#53719F"/>
<path d="M25.5126 12.1445C25.9034 12.1445 26.2202 11.8277 26.2202 11.437C26.2202 11.0462 25.9034 10.7294 25.5126 10.7294C25.1218 10.7294 24.8051 11.0462 24.8051 11.437C24.8051 11.8277 25.1218 12.1445 25.5126 12.1445Z" fill="#484865"/>
<path d="M30.9712 12.5488C31.5853 12.5488 32.0831 12.051 32.0831 11.4369C32.0831 10.8228 31.5853 10.325 30.9712 10.325C30.3571 10.325 29.8593 10.8228 29.8593 11.4369C29.8593 12.051 30.3571 12.5488 30.9712 12.5488Z" fill="#53719F"/>
<path d="M30.9711 12.1445C31.3619 12.1445 31.6787 11.8277 31.6787 11.437C31.6787 11.0462 31.3619 10.7294 30.9711 10.7294C30.5803 10.7294 30.2635 11.0462 30.2635 11.437C30.2635 11.8277 30.5803 12.1445 30.9711 12.1445Z" fill="#484865"/>
<path d="M25.7149 11.7401C25.7149 11.7401 25.4116 11.7401 25.4116 11.5379C25.4116 11.3358 25.4116 11.1336 25.6138 11.1336C25.7149 11.1336 28.343 10.1228 30.9712 11.1336C31.1734 11.1336 31.2744 11.4368 31.1734 11.5379C31.1734 11.7401 30.8701 11.8412 30.6679 11.7401C28.343 10.8303 25.816 11.7401 25.816 11.7401C25.816 11.7401 25.816 11.7401 25.7149 11.7401Z" fill="#B7BFDF"/>
<path d="M28.9495 26.4982C28.9495 26.4982 28.6462 26.4982 28.5451 26.4982C28.444 26.4982 28.343 26.4982 28.2419 26.4982C28.0397 26.4982 27.8375 26.4982 27.6354 26.3972C27.4332 26.3972 27.3321 26.3972 27.13 26.195C27.0289 26.2961 26.8267 26.3972 26.7256 26.3972C26.6245 26.3972 26.5235 26.3972 26.4224 26.2961C26.4224 26.2961 26.3213 26.195 26.2202 26.0939V25.8917C26.2202 25.8917 26.2202 25.8917 26.2202 25.7907C26.2202 25.7907 26.2202 25.7907 26.2202 25.6896V25.4874V25.2852C26.2202 25.2852 26.2202 25.2852 26.2202 25.1842C26.2202 25.1842 26.2202 25.1842 26.3213 25.1842H26.5235V25.0831C26.5235 25.0831 26.5235 24.8809 26.5235 24.7798C26.5235 24.6787 26.5235 24.4766 26.6245 24.3755C26.6245 24.2744 26.6245 24.0722 26.8267 23.8701C26.8267 23.6679 26.9278 23.4657 27.0289 23.1625C27.0289 22.8592 27.231 22.6571 27.231 22.3538C27.231 22.0506 27.4332 21.7473 27.4332 21.5452C27.4332 21.4441 27.4332 21.2419 27.5343 21.0398C27.5343 20.8376 27.5343 20.7365 27.5343 20.6354C27.5343 20.4333 27.6354 20.3322 27.6354 20.13C27.6354 20.0289 27.6354 19.9278 27.6354 19.7257C27.6354 19.6246 27.6354 19.5235 27.6354 19.4224C27.6354 19.4224 27.6354 19.2203 27.6354 19.1192C27.6354 19.1192 27.6354 19.0181 27.6354 18.917C27.6354 18.917 27.6354 18.7148 27.6354 18.6138C27.6354 18.5127 27.6354 18.4116 27.6354 18.3105V18.1083C27.6354 18.1083 27.6354 18.1083 27.6354 18.2094C27.6354 18.2094 27.6354 18.2094 27.6354 18.3105C27.6354 18.3105 27.6354 18.3105 27.6354 18.4116C27.6354 18.4116 27.5343 18.6138 27.4332 18.8159C27.4332 19.0181 27.231 19.1192 27.231 19.3213C27.231 19.4224 27.231 19.5235 27.13 19.6246C27.13 19.6246 27.13 19.8268 27.0289 19.9278C27.0289 20.0289 27.0289 20.13 26.9278 20.2311C26.9278 20.3322 26.9278 20.5343 26.8267 20.7365C26.8267 20.9387 26.7256 21.1408 26.6245 21.2419C26.6245 21.343 26.6245 21.4441 26.6245 21.4441C26.6245 21.4441 26.6245 21.4441 26.5235 21.4441C26.5235 21.4441 26.5235 21.4441 26.4224 21.4441C26.4224 21.4441 26.4224 21.4441 26.4224 21.2419C26.4224 21.2419 26.4224 21.0398 26.4224 20.9387C26.4224 20.4333 26.5235 20.0289 26.6245 19.6246C26.7256 19.2203 26.8267 18.8159 27.0289 18.4116C27.13 18.2094 27.231 18.0073 27.3321 17.9062C27.3321 17.8051 27.5343 17.704 27.6354 17.5018L27.8375 17.2997C27.8375 17.2997 27.8375 17.2997 27.9386 17.2997C27.9386 17.2997 28.0397 17.2997 28.1408 17.2997C28.1408 17.2997 28.1408 17.2997 28.2419 17.2997C28.2419 17.2997 28.444 17.5018 28.444 17.6029C28.444 17.704 28.5451 17.9062 28.6462 18.2094C28.6462 18.4116 28.6462 18.7148 28.6462 19.0181C28.6462 19.3213 28.6462 19.6246 28.6462 19.9278C28.6462 20.3322 28.6462 20.7365 28.5451 21.1408C28.5451 21.5452 28.444 21.9495 28.2419 22.4549C28.2419 22.6571 28.2419 22.7582 28.1408 22.8593C28.1408 22.9603 28.1408 23.0614 28.0397 23.2636C28.0397 23.3647 28.0397 23.4657 27.9386 23.6679C27.9386 23.769 27.8375 23.9712 27.7365 24.1733C27.7365 24.2744 27.7365 24.3755 27.7365 24.4766C27.7365 24.4766 27.7365 24.6787 27.6354 24.7798C27.6354 24.7798 27.6354 24.982 27.5343 25.0831C27.5343 25.1842 27.5343 25.2852 27.4332 25.4874C27.4332 25.4874 27.4332 25.4874 27.5343 25.4874C27.5343 25.4874 27.6354 25.4874 27.7365 25.4874C27.7365 25.4874 27.9386 25.4874 28.0397 25.4874C28.1408 25.4874 28.2419 25.4874 28.444 25.4874C28.5451 25.4874 28.7473 25.4874 28.8484 25.4874C28.9495 25.4874 29.1516 25.4874 29.2527 25.4874C29.4549 25.4874 29.556 25.4874 29.657 25.4874H30.1625C30.1625 25.4874 30.1625 25.4874 30.1625 25.5885C30.1625 25.5885 30.1625 25.5885 30.3646 25.5885H30.4657V25.7907C30.4657 25.7907 30.2635 25.7907 30.1625 25.9928C30.0614 25.9928 29.8592 26.0939 29.657 26.0939C29.657 26.0939 29.657 26.0939 29.4549 26.0939C29.4549 26.0939 29.2527 26.0939 29.1516 26.0939C29.1516 26.0939 28.9495 26.0939 28.8484 26.0939H28.6462L28.9495 26.4982Z" fill="#999FC2"/>
<path d="M29.2528 27.8123C29.2528 27.8123 29.0506 27.8123 28.9495 27.8123C28.9495 27.8123 28.7473 27.8123 28.6463 27.6102C28.6463 27.6102 28.6463 27.5091 28.5452 27.408C28.5452 27.408 28.5452 27.3069 28.343 27.2058C28.343 27.2058 28.343 27.2058 28.343 27.1047C28.343 27.1047 28.343 27.1047 28.4441 27.0037C28.4441 27.0037 28.5452 27.0037 28.6463 27.0037C28.6463 27.0037 28.6463 27.0037 28.7473 27.0037C28.7473 27.2058 28.9495 27.3069 29.0506 27.3069C29.1517 27.3069 29.3538 27.3069 29.556 27.2058C29.8593 27.1047 30.0614 26.9026 30.4658 26.7004C30.769 26.4982 31.0723 26.195 31.4766 25.8917C31.4766 25.8917 31.6788 25.6896 31.7798 25.5885C31.8809 25.4874 31.982 25.3863 32.0831 25.2853C32.1842 25.1842 32.2853 25.0831 32.3863 24.982C32.4874 24.8809 32.5885 24.7798 32.6896 24.6788C32.6896 24.6788 32.7907 24.5777 32.8918 24.4766C32.8918 24.4766 32.9928 24.2744 33.0939 24.1733C33.0939 24.1733 33.195 23.9712 33.2961 23.8701C33.3972 23.769 33.3972 23.6679 33.4983 23.6679C33.4983 23.4658 33.7004 23.3647 33.7004 23.1625C33.7004 23.0614 33.7004 22.9603 33.7004 22.7582V22.4549H33.5993C33.5993 22.4549 33.4983 22.4549 33.3972 22.4549C33.3972 22.4549 33.2961 22.4549 33.195 22.556C33.195 22.556 33.0939 22.6571 32.9928 22.7582C32.9928 22.7582 32.7907 22.9603 32.6896 23.0614C32.6896 23.0614 32.4874 23.2636 32.3863 23.2636L32.2853 23.3647C32.2853 23.3647 32.2853 23.3647 32.2853 23.5668V23.6679V23.4658C32.2853 23.4658 32.0831 23.4658 31.982 23.3647C31.982 23.3647 31.982 23.3647 31.982 23.2636C31.982 23.2636 31.982 23.2636 31.982 23.1625V22.7582C31.982 22.556 31.982 22.2528 31.982 21.9495C31.982 21.6463 31.982 21.343 31.982 20.8376C31.982 20.6354 31.982 20.4333 31.982 20.2311C31.982 20.0289 31.982 19.9278 31.982 19.7257C31.982 19.5235 31.982 19.4224 31.982 19.2203C31.982 19.0181 31.982 18.917 31.982 18.7149C31.982 18.5127 31.982 18.4116 31.982 18.3105C31.982 18.2094 31.982 18.1084 31.982 18.1084C31.982 18.1084 31.982 18.1084 31.982 18.0073V17.9062C32.0831 17.9062 32.1842 17.8051 32.3863 17.8051C32.4874 17.8051 32.5885 17.8051 32.7907 17.704L33.3972 17.5019C33.3972 17.5019 34.1047 17.4008 34.408 17.2997C34.8123 17.2997 35.1156 17.2997 35.5199 17.1986C35.8232 17.1986 36.0253 17.1986 36.1264 17.1986C36.3286 17.1986 36.4297 17.1986 36.6318 17.1986H36.7329C36.7329 17.1986 36.7329 17.2997 36.7329 17.4008C36.7329 17.4008 36.7329 17.6029 36.7329 17.704V17.9062H36.5307C36.5307 17.9062 36.4297 17.9062 36.3286 17.9062H36.1264C36.1264 17.9062 35.9242 17.9062 35.8232 17.9062C35.7221 17.9062 35.621 17.9062 35.5199 17.9062H35.1156C35.1156 17.9062 35.0145 17.9062 34.8123 17.9062C34.6102 17.9062 34.408 17.9062 34.1048 17.9062H33.0939C33.0939 18.1084 33.0939 18.3105 33.0939 18.5127C33.0939 18.7149 33.0939 18.917 33.0939 19.2203V19.4224C33.0939 19.4224 33.0939 19.6246 33.0939 19.7257C33.0939 19.8268 33.0939 19.9279 33.0939 20.13C33.0939 20.2311 33.0939 20.4333 33.0939 20.6354V21.6463C33.0939 21.6463 33.2961 21.5452 33.2961 21.4441C33.2961 21.4441 33.4983 21.343 33.5993 21.2419C33.5993 21.2419 33.5993 21.2419 33.7004 21.2419C33.7004 21.2419 33.8015 21.2419 33.9026 21.2419H34.2058C34.2058 21.2419 34.2058 21.2419 34.408 21.2419C34.408 21.2419 34.5091 21.2419 34.6102 21.343C34.6102 21.343 34.8123 21.5452 34.8123 21.7473C34.8123 21.9495 34.8123 22.1517 34.8123 22.3538C34.8123 22.4549 34.8123 22.6571 34.8123 22.7582C34.8123 22.8593 34.8123 23.0614 34.6102 23.2636C34.6102 23.2636 34.6102 23.3647 34.6102 23.4658C34.6102 23.4658 34.6102 23.4658 34.6102 23.5668C34.6102 23.5668 34.6102 23.5668 34.6102 23.769C34.6102 23.769 34.6102 23.8701 34.6102 23.9712C34.6102 24.0723 34.5091 24.1733 34.408 24.3755C34.408 24.4766 34.3069 24.5777 34.2058 24.6788C34.2058 24.7798 34.1048 24.8809 34.0037 24.982C34.0037 25.0831 33.8015 25.1842 33.8015 25.2853C33.4983 25.6896 33.0939 25.9928 32.7907 26.2961C32.3863 26.5993 32.0831 26.9026 31.6788 27.0037C31.5777 27.0037 31.3755 27.1047 31.2744 27.2058C31.1733 27.2058 31.0723 27.2058 30.8701 27.3069C30.8701 27.3069 30.769 27.3069 30.6679 27.3069C30.6679 27.3069 30.6679 27.3069 30.5668 27.3069C30.5668 27.3069 30.5668 27.3069 30.4658 27.3069H30.0614L29.2528 27.8123Z" fill="#999FC2"/>
</svg>
