<svg width="40" height="40" viewBox="0 0 40 40" fill="none" xmlns="http://www.w3.org/2000/svg">
<rect width="40" height="40" rx="12" fill="#6151FF" fill-opacity="0.15"/>
<mask id="mask0_205_3734" style="mask-type:alpha" maskUnits="userSpaceOnUse" x="8" y="8" width="24" height="24">
<rect x="8" y="8" width="24" height="24" fill="#D9D9D9"/>
</mask>
<g mask="url(#mask0_205_3734)">
<path d="M20 23.4115C19.8795 23.4115 19.7673 23.3923 19.6634 23.3538C19.5596 23.3154 19.4609 23.2493 19.3673 23.1557L16.2577 20.0462C16.109 19.8974 16.0356 19.7234 16.0375 19.5241C16.0394 19.3247 16.1128 19.1475 16.2577 18.9923C16.4128 18.8372 16.591 18.7571 16.7923 18.752C16.9936 18.7468 17.1718 18.8218 17.3269 18.977L19.25 20.9V13.25C19.25 13.0372 19.3218 12.859 19.4654 12.7154C19.609 12.5718 19.7872 12.5 20 12.5C20.2128 12.5 20.391 12.5718 20.5346 12.7154C20.6782 12.859 20.7499 13.0372 20.7499 13.25V20.9L22.673 18.977C22.8217 18.8282 22.9983 18.7548 23.2028 18.7568C23.4073 18.7587 23.5871 18.8372 23.7422 18.9923C23.8871 19.1475 23.9621 19.3231 23.9672 19.5193C23.9724 19.7154 23.8974 19.891 23.7422 20.0462L20.6327 23.1557C20.5391 23.2493 20.4403 23.3154 20.3365 23.3538C20.2327 23.3923 20.1205 23.4115 20 23.4115ZM14.3077 27.5C13.8026 27.5 13.375 27.325 13.025 26.975C12.675 26.625 12.5 26.1974 12.5 25.6923V23.7307C12.5 23.5179 12.5718 23.3397 12.7154 23.1961C12.859 23.0525 13.0372 22.9808 13.25 22.9808C13.4628 22.9808 13.641 23.0525 13.7846 23.1961C13.9282 23.3397 14 23.5179 14 23.7307V25.6923C14 25.7692 14.032 25.8397 14.0961 25.9038C14.1602 25.9679 14.2308 26 14.3077 26H25.6922C25.7692 26 25.8397 25.9679 25.9038 25.9038C25.9679 25.8397 26 25.7692 26 25.6923V23.7307C26 23.5179 26.0718 23.3397 26.2154 23.1961C26.3589 23.0525 26.5371 22.9808 26.75 22.9808C26.9628 22.9808 27.141 23.0525 27.2845 23.1961C27.4281 23.3397 27.5 23.5179 27.5 23.7307V25.6923C27.5 26.1974 27.325 26.625 26.975 26.975C26.625 27.325 26.1974 27.5 25.6922 27.5H14.3077Z" fill="#312F8B"/>
</g>
</svg>
