<svg width="58" height="44" viewBox="0 0 58 44" fill="none" xmlns="http://www.w3.org/2000/svg">
<rect width="58" height="44" rx="16" fill="#8787FF"/>
<path d="M49.2289 27.5307H49.5641V26.6368C49.2289 26.6368 49.0054 26.6368 48.8937 26.6368C48.8937 26.6368 49.1171 26.6368 49.5641 26.4134V24.1787C49.5641 24.1787 48.6702 24.2905 48.5585 24.2905C48.5585 24.2905 49.0054 24.1787 49.6758 23.9553V22.2793L36.1562 24.067V31.553L49.2289 29.3184V27.5307Z" fill="#90B73A"/>
<path d="M15.9329 19.486L16.0446 20.8267L16.4915 20.9385H16.0446L16.2681 22.391L16.8267 22.6145H16.2681V23.2848H16.4915L16.3798 23.3966L16.4915 24.7374L36.2681 31.553V24.067L15.9329 19.486Z" fill="#64802A"/>
<path d="M15.9329 19.486L28.2234 17.9218L49.8993 22.2793L36.2681 24.067L15.9329 19.486Z" fill="#94BE39"/>
<path d="M46.9942 22.1676C46.9942 22.1676 46.9942 22.0558 47.2177 21.9441L29.1171 18.3687C29.1171 18.3687 28.6702 18.4804 28.335 18.4804C27.9998 18.4804 27.6646 18.4804 27.5529 18.257L18.8378 19.2625C18.8378 19.2625 19.0613 19.2625 19.0613 19.3743C19.0613 19.3743 18.9495 19.486 18.7261 19.5977L35.5976 23.2849C35.5976 23.2849 36.1562 23.0614 36.6032 23.0614C37.1618 23.0614 37.7205 23.1732 37.7205 23.3966L47.2177 22.391C47.2177 22.391 46.9942 22.2793 46.9942 22.1676Z" fill="#E5F097"/>
<path d="M27.9999 21.1619C24.7596 20.3798 31.9105 18.9273 35.2624 19.9329C38.6144 20.9384 32.3574 22.2792 27.9999 21.1619Z" fill="#90B73A"/>
<path d="M26.9945 19.7094C26.9945 19.7094 27.6649 19.3742 28.2236 19.4859C28.7822 19.5977 27.6649 19.9329 26.9945 19.7094Z" fill="#90B73A"/>
<path d="M35.5978 21.7206C35.5978 21.7206 36.2682 21.3854 36.8268 21.4972C37.3855 21.6089 36.2682 21.9441 35.5978 21.7206Z" fill="#90B73A"/>
<path opacity="0.2" d="M15.9329 19.486L49.8993 22.2793L28.2234 17.9218L15.9329 19.486Z" fill="white"/>
<path opacity="0.4" d="M29.0055 29.095L33.4748 23.3967L44.648 21.2738L38.1675 19.933L28.4468 24.0671L26.4357 28.2011L29.0055 29.095Z" fill="#384619"/>
<path d="M40.7373 18.1453L21.0725 32L19.3965 25.9665L39.6199 12L40.7373 18.1453Z" fill="#6A882B"/>
<path d="M39.62 12L27.2178 12.6704L9.6759 24.514L19.3966 25.9665L39.62 12Z" fill="#90B738"/>
<path opacity="0.6" d="M18.1677 25.5195C18.1677 25.5195 19.9554 25.0726 21.7431 24.4022L27.7766 20.2681C28.3353 18.5921 24.7599 17.4748 20.5141 17.2513L10.2347 24.1787L18.056 25.5195H18.1677Z" fill="#4F6324"/>
<path d="M16.2682 20.0447C10.7933 23.285 8 22.5028 8 22.5028L17.7207 24.514C17.7207 24.514 20.514 24.6257 24.648 22.2794C28.7821 19.933 39.6201 11.8883 39.6201 11.8883L27.2179 12.5587L16.2682 19.933V20.0447Z" fill="#94BE39"/>
<path d="M9.6759 24.5139L11.2401 28.8715L21.0726 31.9999L19.3966 25.9664L9.6759 24.5139Z" fill="#74942F"/>
<path d="M37.2736 12.5585C37.2736 12.5585 37.2736 12.5585 37.2736 12.4468L28.1116 13.0054C28.1116 13.0054 27.7764 13.4524 27.4412 13.4524C27.2177 13.4524 26.9943 13.4524 26.7708 13.4524C25.8769 14.1228 23.6423 15.5753 19.7317 18.3686C16.0445 21.0501 13.0278 22.1674 11.5753 22.6144C11.5753 22.6144 11.5753 22.6144 11.5753 22.7261C11.5753 22.7261 11.5753 22.9496 11.3518 22.9496L17.3853 23.8434C17.3853 23.8434 17.7205 23.7317 17.944 23.62C18.3909 23.62 18.8378 23.62 19.0613 23.62C20.2904 23.2848 22.6367 22.5026 25.5418 20.7149C29.1172 18.592 35.2624 14.3462 37.4971 12.782C37.2736 12.782 37.0501 12.5585 37.0501 12.4468L37.2736 12.5585Z" fill="#E5F097"/>
<path d="M22.0783 16.8044C19.5085 18.9273 23.5308 21.6089 27.5531 19.0391C31.5755 16.4692 25.095 14.2346 22.0783 16.8044Z" fill="#94BE39"/>
<path d="M19.8437 20.0447C18.9499 20.6033 19.8437 21.3854 21.0728 20.8268C22.3018 20.1564 20.7376 19.486 19.8437 20.0447Z" fill="#94BE39"/>
<path d="M27.3296 14.6815C26.4357 15.2402 27.3296 16.0223 28.5586 15.4636C29.7877 14.7932 28.2234 14.1228 27.3296 14.6815Z" fill="#94BE39"/>
<path opacity="0.2" d="M31.687 27.7542L36.268 28.7597L43.7541 28.0893L36.268 28.3128L31.687 27.7542Z" fill="#384619"/>
<path opacity="0.2" d="M34.4805 26.3016L36.2682 26.6368L39.5084 25.9664L36.2682 26.3016H34.4805Z" fill="#384619"/>
<path opacity="0.2" d="M15.0391 28.3128L20.1787 28.7597L22.3016 27.7542L20.2905 29.0949L15.0391 28.3128Z" fill="#384619"/>
<path opacity="0.3" d="M18.9498 30.1006L20.6258 30.324L23.6426 29.095L20.7375 30.7709L18.9498 30.1006Z" fill="#384619"/>
<g opacity="0.3">
<path d="M40.1788 15.2402V15.0167L39.5084 15.5754L40.1788 15.2402Z" fill="#384619"/>
<path d="M40.514 17.1396L39.5084 17.6983L40.514 17.3631V17.1396Z" fill="#384619"/>
<path d="M37.0503 16.0223L39.9553 13.7877V13.4525L37.0503 16.0223Z" fill="#384619"/>
</g>
<g opacity="0.4">
<path d="M11.0164 27.1953L10.5695 27.0836V27.1953H11.0164Z" fill="#384619"/>
<path d="M10.011 25.4077V25.6312H11.24C11.24 25.6312 10.6814 25.5194 10.011 25.4077Z" fill="#384619"/>
<path d="M11.0165 28.3126V28.4244H11.6869L11.0165 28.3126Z" fill="#384619"/>
</g>
<path opacity="0.3" d="M17.8325 19.0389C23.866 17.5864 29.3409 16.6926 34.0336 16.1339C37.1621 13.8993 39.6202 12.1116 39.6202 12.1116L27.218 12.782L17.8325 19.1507V19.0389Z" fill="#EFFFCF"/>
</svg>
