<svg width="24" height="24" viewBox="0 0 24 24" fill="none" xmlns="http://www.w3.org/2000/svg">
<path d="M0 24L1.70151 17.843C0.656031 16.0367 0.106998 13.9882 0.109683 11.9036C0.0975751 5.33459 5.45638 0 12.0423 0C15.2388 0 18.2401 1.23368 20.5 3.48408C21.6139 4.58719 22.4969 5.89939 23.0976 7.34465C23.6984 8.7899 24.0051 10.3395 23.9999 11.9036C23.9999 18.4598 18.6411 23.7944 12.0545 23.7944C10.0495 23.7944 8.09304 23.2981 6.3431 22.343L0 24ZM6.623 20.2018L6.98767 20.4195C8.51827 21.3211 10.2639 21.7973 12.0423 21.7985C17.5108 21.7985 21.9708 17.3594 21.9708 11.9149C21.9708 9.27811 20.9381 6.78665 19.0663 4.92408C18.1459 4.00264 17.0514 3.27164 15.8459 2.77321C14.6404 2.27479 13.3477 2.01879 12.0423 2.01997C6.56175 2.02068 2.10321 6.45979 2.10321 11.9043C2.10321 13.7669 2.62598 15.594 3.62239 17.1666L3.85315 17.5416L2.84464 21.1944L6.62372 20.2025L6.623 20.2018Z" fill="white"/>
<path fill-rule="evenodd" clip-rule="evenodd" d="M9.06523 6.91994C8.84658 6.42363 8.60371 6.41158 8.39716 6.41158C8.21483 6.39953 8.01968 6.39953 7.81314 6.39953C7.61941 6.39953 7.29107 6.47185 7.01188 6.77459C6.73198 7.07663 5.96704 7.79061 5.96704 9.254C5.96704 10.7181 7.0361 12.1333 7.1821 12.3269C7.3274 12.5204 9.24756 15.6167 12.2859 16.8149C14.8129 17.8068 15.3236 17.6132 15.8706 17.5523C16.4168 17.492 17.6326 16.839 17.8876 16.1371C18.1305 15.4479 18.1305 14.8431 18.0578 14.7219C17.9852 14.6014 17.7779 14.5283 17.4866 14.3709C17.1825 14.2263 15.7246 13.5003 15.4454 13.4031C15.1655 13.3067 14.971 13.2585 14.7766 13.5485C14.5821 13.8512 14.0109 14.5163 13.8293 14.7098C13.6584 14.9034 13.4768 14.9275 13.1848 14.7822C12.8813 14.6375 11.9213 14.3227 10.7789 13.3067C9.89142 12.5197 9.29599 11.5406 9.11366 11.2506C8.94415 10.9478 9.08945 10.7904 9.24756 10.6451C9.38146 10.5125 9.55169 10.2948 9.69769 10.1254C9.84299 9.95521 9.89142 9.82263 10.0011 9.62907C10.098 9.43551 10.0495 9.254 9.97688 9.10936C9.90353 8.97607 9.33303 7.51196 9.06523 6.91923V6.91994Z" fill="white"/>
</svg>
