<svg width="110" height="89" viewBox="0 0 110 89" fill="none" xmlns="http://www.w3.org/2000/svg">
<path d="M54.7749 88.519C85.0262 88.519 109.55 87.0868 109.55 85.3202C109.55 83.5535 85.0262 82.1214 54.7749 82.1214C24.5235 82.1214 0 83.5535 0 85.3202C0 87.0868 24.5235 88.519 54.7749 88.519Z" fill="#F5F5F5"/>
<path d="M3.14161 40.5497H21.0387V39.5728H3.14161V40.5497Z" fill="#8787FF"/>
<path opacity="0.2" d="M3.14161 40.5497H21.0387V39.5728H3.14161V40.5497Z" fill="white"/>
<path d="M2.53416 39.573H21.6468V38.5961H2.53416V39.573Z" fill="#8787FF"/>
<path opacity="0.4" d="M2.53416 39.573H21.6468V38.5961H2.53416V39.573Z" fill="white"/>
<path d="M3.84483 84.2851H20.335L20.335 40.5497H3.84483L3.84483 84.2851Z" fill="#8787FF"/>
<path opacity="0.5" d="M3.84483 84.2851H20.335L20.335 40.5497H3.84483L3.84483 84.2851Z" fill="white"/>
<path opacity="0.2" d="M15.114 84.2851H20.335L20.335 40.5497H15.114L15.114 84.2851Z" fill="black"/>
<path opacity="0.2" d="M15.0899 40.5497H21.0387V39.5728H15.0899V40.5497Z" fill="black"/>
<path opacity="0.2" d="M15.0904 39.573H21.6468V38.5961H15.0904V39.573Z" fill="black"/>
<path d="M11.8246 46.7558H14.0358V41.8272H11.8246V46.7558Z" fill="#8787FF"/>
<path d="M8.37464 46.7558H10.5855V41.8272H8.37464V46.7558Z" fill="#8787FF"/>
<path d="M4.92406 46.7558H7.13524L7.13524 41.8272H4.92406V46.7558Z" fill="#8787FF"/>
<path d="M11.8246 52.6955H14.0358V47.7669H11.8246V52.6955Z" fill="#8787FF"/>
<path d="M8.37464 52.6955H10.5855V47.7669H8.37464V52.6955Z" fill="#8787FF"/>
<path d="M4.92406 52.6955H7.13524L7.13524 47.7669H4.92406V52.6955Z" fill="#8787FF"/>
<path d="M11.8246 61.4984H14.0358V56.5698H11.8246V61.4984Z" fill="#8787FF"/>
<path d="M8.37464 61.4984H10.5855V56.5698H8.37464V61.4984Z" fill="#8787FF"/>
<path d="M4.92406 61.4984H7.13524L7.13524 56.5698H4.92406V61.4984Z" fill="#8787FF"/>
<path d="M11.8246 67.4381H14.0358V62.5095H11.8246V67.4381Z" fill="#8787FF"/>
<path d="M8.37464 67.4381H10.5855V62.5095H8.37464V67.4381Z" fill="#8787FF"/>
<path d="M4.92406 67.4381H7.13524L7.13524 62.5095H4.92406V67.4381Z" fill="#8787FF"/>
<path d="M11.8246 76.241H14.0358V71.3121H11.8246V76.241Z" fill="#8787FF"/>
<path d="M8.37464 76.241H10.5855V71.3121H8.37464V76.241Z" fill="#8787FF"/>
<path d="M4.92406 76.241H7.13524L7.13524 71.3121H4.92406V76.241Z" fill="#8787FF"/>
<path d="M9.47963 84.8142H12.244V78.6522H9.47963V84.8142Z" fill="#8787FF"/>
<path d="M6.7147 84.8142H9.47903V78.6522H6.7147L6.7147 84.8142Z" fill="#8787FF"/>
<g opacity="0.2">
<path d="M11.8246 46.7558H14.0358V41.8272H11.8246V46.7558Z" fill="white"/>
<path d="M8.37464 46.7558H10.5855V41.8272H8.37464V46.7558Z" fill="white"/>
<path d="M4.92406 46.7558H7.13524L7.13524 41.8272H4.92406V46.7558Z" fill="white"/>
<path d="M11.8246 52.6955H14.0358V47.7669H11.8246V52.6955Z" fill="white"/>
<path d="M8.37464 52.6955H10.5855V47.7669H8.37464V52.6955Z" fill="white"/>
<path d="M4.92406 52.6955H7.13524L7.13524 47.7669H4.92406V52.6955Z" fill="white"/>
<path d="M11.8246 61.4984H14.0358V56.5698H11.8246V61.4984Z" fill="white"/>
<path d="M8.37464 61.4984H10.5855V56.5698H8.37464V61.4984Z" fill="white"/>
<path d="M4.92406 61.4984H7.13524L7.13524 56.5698H4.92406V61.4984Z" fill="white"/>
<path d="M11.8246 67.4381H14.0358V62.5095H11.8246V67.4381Z" fill="white"/>
<path d="M8.37464 67.4381H10.5855V62.5095H8.37464V67.4381Z" fill="white"/>
<path d="M4.92406 67.4381H7.13524L7.13524 62.5095H4.92406V67.4381Z" fill="white"/>
<path d="M11.8246 76.241H14.0358V71.3121H11.8246V76.241Z" fill="white"/>
<path d="M8.37464 76.241H10.5855V71.3121H8.37464V76.241Z" fill="white"/>
<path d="M4.92406 76.241H7.13524L7.13524 71.3121H4.92406V76.241Z" fill="white"/>
<path d="M9.47963 84.8142H12.244V78.6522H9.47963V84.8142Z" fill="white"/>
<path d="M6.7147 84.8142H9.47903V78.6522H6.7147L6.7147 84.8142Z" fill="white"/>
</g>
<g opacity="0.8">
<path d="M12.226 46.3527H13.6307V42.2303H12.226V46.3527Z" fill="white"/>
<path d="M8.77575 46.3527H10.1804V42.2303H8.77575V46.3527Z" fill="white"/>
<path d="M5.32547 46.3527H6.73009L6.73009 42.2303H5.32547V46.3527Z" fill="white"/>
<path d="M12.226 52.2921H13.6307V48.1698H12.226V52.2921Z" fill="white"/>
<path d="M8.77575 52.2921H10.1804V48.1698H8.77575V52.2921Z" fill="white"/>
<path d="M5.32547 52.2921H6.73009L6.73009 48.1698H5.32547V52.2921Z" fill="white"/>
<path d="M12.226 61.095H13.6307V56.9727H12.226V61.095Z" fill="white"/>
<path d="M8.77575 61.095H10.1804V56.9727H8.77575V61.095Z" fill="white"/>
<path d="M5.32547 61.095H6.73009L6.73009 56.9727H5.32547V61.095Z" fill="white"/>
<path d="M12.226 67.035H13.6307V62.9127H12.226V67.035Z" fill="white"/>
<path d="M8.77575 67.035H10.1804V62.9127H8.77575V67.035Z" fill="white"/>
<path d="M5.32547 67.035H6.73009L6.73009 62.9127H5.32547V67.035Z" fill="white"/>
<path d="M12.226 75.8379H13.6307V71.7155H12.226V75.8379Z" fill="white"/>
<path d="M8.77575 75.8379H10.1804V71.7155H8.77575V75.8379Z" fill="white"/>
<path d="M5.32547 75.8379H6.73009L6.73009 71.7155H5.32547V75.8379Z" fill="white"/>
<path d="M9.98177 84.3102H11.7381V79.1562H9.98177V84.3102Z" fill="white"/>
<path d="M7.21814 84.3102H8.97448V79.1562H7.21814L7.21814 84.3102Z" fill="white"/>
</g>
<path d="M11.4847 47.0945H14.3739V46.7558H11.4847V47.0945Z" fill="#8787FF"/>
<path d="M8.03442 47.0945H10.9236V46.7558H8.03442V47.0945Z" fill="#8787FF"/>
<path d="M4.58414 47.0945H7.47334V46.7558H4.58414V47.0945Z" fill="#8787FF"/>
<path d="M11.4847 53.0342H14.3739V52.6955H11.4847V53.0342Z" fill="#8787FF"/>
<path d="M8.03442 53.0342H10.9236V52.6955H8.03442V53.0342Z" fill="#8787FF"/>
<path d="M4.58414 53.0342H7.47334V52.6955H4.58414V53.0342Z" fill="#8787FF"/>
<path d="M11.4847 61.8371H14.3739V61.4984H11.4847V61.8371Z" fill="#8787FF"/>
<path d="M8.03442 61.8371H10.9236V61.4984H8.03442V61.8371Z" fill="#8787FF"/>
<path d="M4.58414 61.8371H7.47334V61.4984H4.58414V61.8371Z" fill="#8787FF"/>
<path d="M11.4847 67.7768H14.3739V67.4381H11.4847V67.7768Z" fill="#8787FF"/>
<path d="M8.03442 67.7768H10.9236V67.4381H8.03442V67.7768Z" fill="#8787FF"/>
<path d="M4.58414 67.7768H7.47334V67.4381H4.58414V67.7768Z" fill="#8787FF"/>
<path d="M11.4847 76.5797H14.3739V76.241H11.4847V76.5797Z" fill="#8787FF"/>
<path d="M8.03442 76.5797H10.9236V76.241H8.03442V76.5797Z" fill="#8787FF"/>
<path d="M4.58414 76.5797H7.47334V76.241H4.58414V76.5797Z" fill="#8787FF"/>
<path d="M6.02853 78.6522H12.7508V78.3135H6.02853V78.6522Z" fill="#8787FF"/>
<path opacity="0.3" d="M19.1777 49.2975H20.3337V48.6526H19.1777V49.2975Z" fill="black"/>
<path opacity="0.3" d="M18.0633 50.5535H19.2194V49.9086H18.0633V50.5535Z" fill="black"/>
<path opacity="0.3" d="M17.4852 49.2975H18.6413V48.6526H17.4852V49.2975Z" fill="black"/>
<path opacity="0.3" d="M17.7547 44.4596H18.9107V43.8147H17.7547V44.4596Z" fill="black"/>
<path opacity="0.3" d="M16.639 45.7156H17.795V45.0706H16.639V45.7156Z" fill="black"/>
<path opacity="0.3" d="M16.639 43.1327H17.795V42.4877H16.639V43.1327Z" fill="black"/>
<path opacity="0.3" d="M16.0609 44.4596H17.2169V43.8147H16.0609V44.4596Z" fill="black"/>
<path opacity="0.3" d="M16.2244 78.5352H17.3804V77.8903H16.2244V78.5352Z" fill="black"/>
<path opacity="0.3" d="M15.1101 77.2086H16.2661V76.5636H15.1101V77.2086Z" fill="black"/>
<path opacity="0.3" d="M19.1789 58.5428H20.3349V57.8978H19.1789V58.5428Z" fill="black"/>
<path opacity="0.3" d="M18.0646 59.7991H19.2206V59.1541H18.0646V59.7991Z" fill="black"/>
<path opacity="0.3" d="M18.0646 57.2159H19.2206V56.5709H18.0646V57.2159Z" fill="black"/>
<path opacity="0.3" d="M17.4865 58.5428H18.6425V57.8978H17.4865V58.5428Z" fill="black"/>
<path opacity="0.3" d="M16.7828 66.7897H17.9388V66.1448H16.7828V66.7897Z" fill="black"/>
<path opacity="0.3" d="M15.6685 68.0457H16.8245V67.4008H15.6685V68.0457Z" fill="black"/>
<path opacity="0.3" d="M15.6685 65.4628H16.8245V64.8178H15.6685V65.4628Z" fill="black"/>
<path opacity="0.3" d="M19.158 63.8983H20.314V63.2533H19.158V63.8983Z" fill="black"/>
<path opacity="0.3" d="M18.0437 62.5714H19.1997V61.9264H18.0437V62.5714Z" fill="black"/>
<path opacity="0.3" d="M15.0904 66.7897H16.2464V66.1448H15.0904V66.7897Z" fill="black"/>
<path opacity="0.3" d="M19.1581 73.284H20.3141V72.639H19.1581V73.284Z" fill="black"/>
<path opacity="0.3" d="M18.0424 74.54H19.1984V73.895H18.0424V74.54Z" fill="black"/>
<path opacity="0.3" d="M18.0424 71.9574H19.1984V71.3124H18.0424V71.9574Z" fill="black"/>
<path opacity="0.3" d="M19.1581 82.0909H20.3141V81.4459H19.1581V82.0909Z" fill="black"/>
<path opacity="0.3" d="M18.0424 83.3474H19.1984V82.7024H18.0424V83.3474Z" fill="black"/>
<path opacity="0.3" d="M18.0424 80.7642H19.1984V80.1192H18.0424V80.7642Z" fill="black"/>
<path opacity="0.3" d="M17.4643 73.284H18.6203V72.639H17.4643V73.284Z" fill="black"/>
<path d="M3.14122 55.2909H21.0383V54.314H3.14122V55.2909Z" fill="#8787FF"/>
<path opacity="0.2" d="M3.14122 55.2909H21.0383V54.314H3.14122V55.2909Z" fill="white"/>
<path opacity="0.2" d="M15.0895 55.2909H21.0383V54.314H15.0895V55.2909Z" fill="black"/>
<path d="M3.14122 70.0323H21.0383V69.0554H3.14122V70.0323Z" fill="#8787FF"/>
<path opacity="0.2" d="M3.14122 70.0323H21.0383V69.0554H3.14122V70.0323Z" fill="white"/>
<path opacity="0.2" d="M15.0895 70.0323H21.0383V69.0554H15.0895V70.0323Z" fill="black"/>
<path d="M3.14122 84.9351H21.0383V83.9582H3.14122V84.9351Z" fill="#8787FF"/>
<path opacity="0.2" d="M3.14122 84.9351H21.0383V83.9582H3.14122V84.9351Z" fill="white"/>
<path opacity="0.2" d="M15.0895 84.9351H21.0383V83.9582H15.0895V84.9351Z" fill="black"/>
<path d="M106.056 75.0993H92.9927V84.9351H106.056V75.0993Z" fill="#8787FF"/>
<path d="M106.056 55.4632H92.9927V65.2989H106.056V55.4632Z" fill="#8787FF"/>
<path d="M106.056 35.827H92.9928V45.6628H106.056V35.827Z" fill="#8787FF"/>
<g opacity="0.7">
<path d="M106.056 75.0993H92.9927V84.9351H106.056V75.0993Z" fill="white"/>
<path d="M106.056 55.4632H92.9927V65.2989H106.056V55.4632Z" fill="white"/>
<path d="M106.056 35.827H92.9928V45.6628H106.056V35.827Z" fill="white"/>
</g>
<path d="M106.053 65.2811H92.9902V75.1168H106.053V65.2811Z" fill="#8787FF"/>
<path d="M106.053 45.645H92.9902V55.481H106.053V45.645Z" fill="#8787FF"/>
<g opacity="0.2">
<path d="M106.053 65.2811H92.9902V75.1168H106.053V65.2811Z" fill="white"/>
<path d="M106.053 45.645H92.9902V55.481H106.053V45.645Z" fill="white"/>
</g>
<path opacity="0.1" d="M97.4673 75.0993H92.9924V84.9351H97.4673V75.0993Z" fill="black"/>
<path opacity="0.1" d="M97.4673 65.2811H92.9924V75.1169H97.4673V65.2811Z" fill="black"/>
<path opacity="0.1" d="M97.4673 55.4632H92.9924V65.2989H97.4673V55.4632Z" fill="black"/>
<path opacity="0.1" d="M97.4673 45.645H92.9924V55.481H97.4673V45.645Z" fill="black"/>
<path opacity="0.1" d="M97.4672 35.827H92.9923V45.6628H97.4672V35.827Z" fill="black"/>
<path d="M101.886 37.4254H98.8475V44.2547H101.886V37.4254Z" fill="#8787FF"/>
<path opacity="0.2" d="M101.886 37.4254H98.8475V44.2547H101.886V37.4254Z" fill="black"/>
<path d="M104.926 37.4254H101.887V44.2547H104.926V37.4254Z" fill="#8787FF"/>
<path d="M105.408 37.0181H98.4643V37.4255H105.408V37.0181Z" fill="#8787FF"/>
<path opacity="0.2" d="M105.408 37.0181H98.4643V37.4255H105.408V37.0181Z" fill="white"/>
<path opacity="0.4" d="M101.639 38.7035L98.994 42.091V41.8577L101.639 38.4701V38.7035Z" fill="white"/>
<path opacity="0.4" d="M101.639 39.6361L98.994 43.0236V42.6154L101.639 39.2278V39.6361Z" fill="white"/>
<path opacity="0.4" d="M101.639 40.3937L98.994 43.7813V43.2586L101.639 39.8711V40.3937Z" fill="white"/>
<path opacity="0.4" d="M104.728 38.0608L102.083 41.4484V41.215L104.728 37.8275V38.0608Z" fill="white"/>
<path opacity="0.4" d="M104.728 40.6819L102.083 44.0694V43.8361L104.728 40.4485V40.6819Z" fill="white"/>
<path opacity="0.4" d="M102.083 41.9729L104.728 38.5854V39.7513L102.083 43.1386V41.9729Z" fill="white"/>
<path opacity="0.2" d="M99.5245 37.0181H98.4643V37.4255H99.5245V37.0181Z" fill="black"/>
<path d="M105.408 44.2545H98.4643V44.6618H105.408V44.2545Z" fill="#8787FF"/>
<path opacity="0.2" d="M105.408 44.2545H98.4643V44.6618H105.408V44.2545Z" fill="white"/>
<path opacity="0.2" d="M99.5245 44.2545H98.4643V44.6618H99.5245V44.2545Z" fill="black"/>
<path d="M101.886 47.2654H98.8475V54.0947H101.886V47.2654Z" fill="#8787FF"/>
<path opacity="0.2" d="M101.886 47.2654H98.8475V54.0947H101.886V47.2654Z" fill="black"/>
<path d="M104.926 47.2654H101.887V54.0947H104.926V47.2654Z" fill="#8787FF"/>
<path d="M105.408 46.858H98.4643V47.2654H105.408V46.858Z" fill="#8787FF"/>
<path opacity="0.2" d="M105.408 46.858H98.4643V47.2654H105.408V46.858Z" fill="white"/>
<path opacity="0.4" d="M101.639 48.5435L98.994 51.931V51.6977L101.639 48.3104V48.5435Z" fill="white"/>
<path opacity="0.4" d="M101.639 49.4763L98.994 52.8636V52.4556L101.639 49.0681V49.4763Z" fill="white"/>
<path opacity="0.4" d="M101.639 50.234L98.994 53.6215V53.0986L101.639 49.711V50.234Z" fill="white"/>
<path opacity="0.4" d="M104.728 47.9011L102.083 51.2886V51.0552L104.728 47.6677V47.9011Z" fill="white"/>
<path opacity="0.4" d="M104.728 50.5222L102.083 53.9097V53.6763L104.728 50.2888V50.5222Z" fill="white"/>
<path opacity="0.4" d="M102.083 51.8129L104.728 48.4257V49.5913L102.083 52.9788V51.8129Z" fill="white"/>
<path opacity="0.2" d="M99.5245 46.858H98.4643V47.2654H99.5245V46.858Z" fill="black"/>
<path d="M105.408 54.0947H98.4643V54.5021H105.408V54.0947Z" fill="#8787FF"/>
<path opacity="0.2" d="M105.408 54.0947H98.4643V54.5021H105.408V54.0947Z" fill="white"/>
<path opacity="0.2" d="M99.5245 54.0947H98.4643V54.5021H99.5245V54.0947Z" fill="black"/>
<path d="M101.886 57.1057H98.8475V63.935H101.886V57.1057Z" fill="#8787FF"/>
<path opacity="0.2" d="M101.886 57.1057H98.8475V63.935H101.886V57.1057Z" fill="black"/>
<path d="M104.926 57.1057H101.887V63.935H104.926V57.1057Z" fill="#8787FF"/>
<path d="M105.408 56.6983H98.4643V57.1057H105.408V56.6983Z" fill="#8787FF"/>
<path opacity="0.2" d="M105.408 56.6983H98.4643V57.1057H105.408V56.6983Z" fill="white"/>
<path opacity="0.4" d="M101.639 58.3837L98.994 61.7713V61.5379L101.639 58.1504V58.3837Z" fill="white"/>
<path opacity="0.4" d="M101.639 59.3163L98.994 62.7038V62.2956L101.639 58.9083V59.3163Z" fill="white"/>
<path opacity="0.4" d="M101.639 60.074L98.994 63.4615V62.9388L101.639 59.5513V60.074Z" fill="white"/>
<path opacity="0.4" d="M104.728 57.7414L102.083 61.1286V60.8955L104.728 57.508V57.7414Z" fill="white"/>
<path opacity="0.4" d="M104.728 60.3621L102.083 63.7496V63.5163L104.728 60.1288V60.3621Z" fill="white"/>
<path opacity="0.4" d="M102.083 61.6532L104.728 58.2656V59.4315L102.083 62.8191V61.6532Z" fill="white"/>
<path opacity="0.2" d="M99.5245 56.6983H98.4643V57.1057H99.5245V56.6983Z" fill="black"/>
<path d="M105.408 63.935H98.4643V64.3424H105.408V63.935Z" fill="#8787FF"/>
<path opacity="0.2" d="M105.408 63.935H98.4643V64.3424H105.408V63.935Z" fill="white"/>
<path opacity="0.2" d="M99.5245 63.935H98.4643V64.3424H99.5245V63.935Z" fill="black"/>
<path d="M101.886 66.9459H98.8475V73.7752H101.886V66.9459Z" fill="#8787FF"/>
<path opacity="0.2" d="M101.886 66.9459H98.8475V73.7752H101.886V66.9459Z" fill="black"/>
<path d="M104.926 66.9459H101.887V73.7752H104.926V66.9459Z" fill="#8787FF"/>
<path d="M105.408 66.5385H98.4643V66.9459H105.408V66.5385Z" fill="#8787FF"/>
<path opacity="0.2" d="M105.408 66.5385H98.4643V66.9459H105.408V66.5385Z" fill="white"/>
<path opacity="0.4" d="M101.639 68.2239L98.994 71.6115V71.3781L101.639 67.9906V68.2239Z" fill="white"/>
<path opacity="0.4" d="M101.639 69.1565L98.994 72.5438V72.1358L101.639 68.7483V69.1565Z" fill="white"/>
<path opacity="0.4" d="M101.639 69.9142L98.994 73.3017V72.7788L101.639 69.3915V69.9142Z" fill="white"/>
<path opacity="0.4" d="M104.728 67.5813L102.083 70.9688V70.7355L104.728 67.3479V67.5813Z" fill="white"/>
<path opacity="0.4" d="M104.728 70.2023L102.083 73.5899V73.3565L104.728 69.969V70.2023Z" fill="white"/>
<path opacity="0.4" d="M102.083 71.4934L104.728 68.1059V69.2718L102.083 72.6593V71.4934Z" fill="white"/>
<path opacity="0.2" d="M99.5245 66.5385H98.4643V66.9459H99.5245V66.5385Z" fill="black"/>
<path d="M105.408 73.7749H98.4643V74.1823H105.408V73.7749Z" fill="#8787FF"/>
<path opacity="0.2" d="M105.408 73.7749H98.4643V74.1823H105.408V73.7749Z" fill="white"/>
<path opacity="0.2" d="M99.5245 73.7749H98.4643V74.1823H99.5245V73.7749Z" fill="black"/>
<path d="M101.886 76.786H98.8475V83.6153H101.886V76.786Z" fill="#8787FF"/>
<path opacity="0.2" d="M101.886 76.786H98.8475V83.6153H101.886V76.786Z" fill="black"/>
<path d="M104.926 76.786H101.887V83.6153H104.926V76.786Z" fill="#8787FF"/>
<path d="M105.408 76.3786H98.4643V76.7859H105.408V76.3786Z" fill="#8787FF"/>
<path opacity="0.2" d="M105.408 76.3786H98.4643V76.7859H105.408V76.3786Z" fill="white"/>
<path opacity="0.4" d="M101.639 78.064L98.994 81.4515V81.2182L101.639 77.8309V78.064Z" fill="white"/>
<path opacity="0.4" d="M101.639 78.9966L98.994 82.3841V81.9762L101.639 78.5886V78.9966Z" fill="white"/>
<path opacity="0.4" d="M101.639 79.7545L98.994 83.1421V82.6192L101.639 79.2319V79.7545Z" fill="white"/>
<path opacity="0.4" d="M104.728 77.4216L102.083 80.8092V80.5758L104.728 77.1883V77.4216Z" fill="white"/>
<path opacity="0.4" d="M104.728 80.0427L102.083 83.4302V83.1969L104.728 79.8093V80.0427Z" fill="white"/>
<path opacity="0.4" d="M102.083 81.3335L104.728 77.9462V79.1118L102.083 82.4994V81.3335Z" fill="white"/>
<path opacity="0.2" d="M99.5245 76.3786H98.4643V76.7859H99.5245V76.3786Z" fill="black"/>
<path d="M105.408 83.6153H98.4643V84.0227H105.408V83.6153Z" fill="#8787FF"/>
<path opacity="0.2" d="M105.408 83.6153H98.4643V84.0227H105.408V83.6153Z" fill="white"/>
<path opacity="0.2" d="M99.5245 83.6153H98.4643V84.0227H99.5245V83.6153Z" fill="black"/>
<path d="M51.0833 17.0958H55.9364H61.1744H66.4123V1.26244L51.0833 17.0958Z" fill="#8787FF"/>
<path d="M66.411 17.0958H51.0816V84.9351H66.411V17.0958Z" fill="#8787FF"/>
<path opacity="0.2" d="M66.411 17.0958H51.0816V84.9351H66.411V17.0958Z" fill="white"/>
<path opacity="0.2" d="M55.9351 17.0958H51.0816V84.9351H55.9351V17.0958Z" fill="black"/>
<path d="M58.9949 19.3539H56.9397V84.4696H58.9949V19.3539Z" fill="#8787FF"/>
<path d="M54.5375 19.3539H52.4823V84.4696H54.5375V19.3539Z" fill="#8787FF"/>
<path d="M62.2019 19.3539H60.1467V84.4696H62.2019V19.3539Z" fill="#8787FF"/>
<path d="M65.4103 19.3539H63.355V84.4696H65.4103V19.3539Z" fill="#8787FF"/>
<g opacity="0.2">
<path d="M58.9949 19.3539H56.9397V84.4696H58.9949V19.3539Z" fill="black"/>
<path d="M54.5375 19.3539H52.4823V84.4696H54.5375V19.3539Z" fill="black"/>
<path d="M62.2019 19.3539H60.1467V84.4696H62.2019V19.3539Z" fill="black"/>
<path d="M65.4103 19.3539H63.355V84.4696H65.4103V19.3539Z" fill="black"/>
</g>
<path opacity="0.2" d="M66.4115 17.0958H55.9356L66.4115 1.26244V17.0958Z" fill="black"/>
<path opacity="0.4" d="M55.9356 17.0958H61.1736L66.4115 1.26244L55.9356 17.0958Z" fill="white"/>
<path d="M67.2369 25.6328H55.9352V26.5637H67.2369V25.6328Z" fill="#8787FF"/>
<path opacity="0.4" d="M67.2365 25.6329H55.9348V26.5637H67.2365V25.6329Z" fill="white"/>
<path opacity="0.1" d="M57.4996 25.6329H55.9348V26.5637H57.4996V25.6329Z" fill="black"/>
<path d="M50.0489 26.5634H54.5357V25.6325H50.0489V26.5634Z" fill="#8787FF"/>
<path opacity="0.4" d="M50.0485 26.5634H54.5353V25.6325H50.0485V26.5634Z" fill="white"/>
<path opacity="0.1" d="M53.914 26.5634H54.5353V25.6325H53.914V26.5634Z" fill="black"/>
<path d="M67.2364 33.925H55.9348V34.8558H67.2364V33.925Z" fill="#8787FF"/>
<path opacity="0.4" d="M67.236 33.925H55.9344V34.8558H67.236V33.925Z" fill="white"/>
<path opacity="0.1" d="M57.4992 33.925H55.9344V34.8558H57.4992V33.925Z" fill="black"/>
<path d="M50.0485 34.8558H54.5353V33.925H50.0485V34.8558Z" fill="#8787FF"/>
<path opacity="0.4" d="M50.048 34.8558H54.5348V33.925H50.048V34.8558Z" fill="white"/>
<path opacity="0.1" d="M53.9136 34.8558H54.5348V33.925H53.9136V34.8558Z" fill="black"/>
<path d="M67.2364 42.2171H55.9348V43.1479H67.2364V42.2171Z" fill="#8787FF"/>
<path opacity="0.4" d="M67.236 42.2171H55.9344V43.1479H67.236V42.2171Z" fill="white"/>
<path opacity="0.1" d="M57.4992 42.2171H55.9344V43.1479H57.4992V42.2171Z" fill="black"/>
<path d="M50.0485 43.1477H54.5353V42.2168H50.0485V43.1477Z" fill="#8787FF"/>
<path opacity="0.4" d="M50.048 43.1477H54.5348V42.2168H50.048V43.1477Z" fill="white"/>
<path opacity="0.1" d="M53.9136 43.1477H54.5348V42.2168H53.9136V43.1477Z" fill="black"/>
<path d="M67.2364 50.5092H55.9348V51.44H67.2364V50.5092Z" fill="#8787FF"/>
<path opacity="0.4" d="M67.236 50.5092H55.9344V51.44H67.236V50.5092Z" fill="white"/>
<path opacity="0.1" d="M57.4992 50.5092H55.9344V51.44H57.4992V50.5092Z" fill="black"/>
<path d="M50.0485 51.4401H54.5353V50.5092H50.0485V51.4401Z" fill="#8787FF"/>
<path opacity="0.4" d="M50.048 51.44H54.5348V50.5092H50.048V51.44Z" fill="white"/>
<path opacity="0.1" d="M53.9136 51.44H54.5348V50.5092H53.9136V51.44Z" fill="black"/>
<path d="M67.2364 58.8016H55.9348V59.7325H67.2364V58.8016Z" fill="#8787FF"/>
<path opacity="0.4" d="M67.236 58.8016H55.9344V59.7324H67.236V58.8016Z" fill="white"/>
<path opacity="0.1" d="M57.4992 58.8016H55.9344V59.7324H57.4992V58.8016Z" fill="black"/>
<path d="M50.0485 59.7322H54.5353V58.8013H50.0485V59.7322Z" fill="#8787FF"/>
<path opacity="0.4" d="M50.048 59.7322H54.5348V58.8014H50.048V59.7322Z" fill="white"/>
<path opacity="0.1" d="M53.9136 59.7322H54.5348V58.8014H53.9136V59.7322Z" fill="black"/>
<path d="M67.2364 67.0937H55.9348V68.0246H67.2364V67.0937Z" fill="#8787FF"/>
<path opacity="0.4" d="M67.236 67.0937H55.9344V68.0246H67.236V67.0937Z" fill="white"/>
<path opacity="0.1" d="M57.4992 67.0937H55.9344V68.0246H57.4992V67.0937Z" fill="black"/>
<path d="M50.0485 68.0246H54.5353V67.0937H50.0485V68.0246Z" fill="#8787FF"/>
<path opacity="0.4" d="M50.048 68.0246H54.5348V67.0937H50.048V68.0246Z" fill="white"/>
<path opacity="0.1" d="M53.9136 68.0246H54.5348V67.0937H53.9136V68.0246Z" fill="black"/>
<path d="M67.2364 75.3858H55.9348V76.3167H67.2364V75.3858Z" fill="#8787FF"/>
<path opacity="0.4" d="M67.236 75.3858H55.9344V76.3167H67.236V75.3858Z" fill="white"/>
<path opacity="0.1" d="M57.4992 75.3858H55.9344V76.3167H57.4992V75.3858Z" fill="black"/>
<path d="M50.0485 76.3164H54.5353V75.3856H50.0485V76.3164Z" fill="#8787FF"/>
<path opacity="0.4" d="M50.048 76.3164H54.5348V75.3856H50.048V76.3164Z" fill="white"/>
<path opacity="0.1" d="M53.9136 76.3164H54.5348V75.3856H53.9136V76.3164Z" fill="black"/>
<path d="M67.2364 84.0043H55.9348V84.9351H67.2364V84.0043Z" fill="#8787FF"/>
<path opacity="0.4" d="M67.236 84.0043H55.9344V84.9351H67.236V84.0043Z" fill="white"/>
<path opacity="0.1" d="M57.4992 84.0043H55.9344V84.9351H57.4992V84.0043Z" fill="black"/>
<path d="M50.0485 84.9349H54.5353V84.004H50.0485V84.9349Z" fill="#8787FF"/>
<path opacity="0.4" d="M50.048 84.9349H54.5348V84.004H50.048V84.9349Z" fill="white"/>
<path opacity="0.1" d="M53.9136 84.9349H54.5348V84.004H53.9136V84.9349Z" fill="black"/>
<path d="M59.1121 67.4381H35.8745V84.9352H59.1121V67.4381Z" fill="#8787FF"/>
<path opacity="0.7" d="M59.1121 67.4381H35.8745V84.9352H59.1121V67.4381Z" fill="white"/>
<path opacity="0.2" d="M43.835 67.4381H35.8745V84.9352H43.835V67.4381Z" fill="black"/>
<path d="M51.6949 72.7868H46.2895V84.9354H51.6949V72.7868Z" fill="#8787FF"/>
<path opacity="0.2" d="M51.6949 72.7868H46.2895V84.9354H51.6949V72.7868Z" fill="black"/>
<path d="M57.1005 72.7868H51.6951V84.9354H57.1005V72.7868Z" fill="#8787FF"/>
<path d="M57.9596 72.0619H45.6067V72.7865H57.9596V72.0619Z" fill="#8787FF"/>
<path opacity="0.3" d="M57.9596 72.0619H45.6067V72.7865H57.9596V72.0619Z" fill="white"/>
<g opacity="0.3">
<path d="M51.2551 75.0604L46.5496 81.0863V80.6713L51.2551 74.6452V75.0604Z" fill="white"/>
<path d="M51.2551 76.7193L46.5496 82.7452V82.0194L51.2551 75.9933V76.7193Z" fill="white"/>
<path d="M51.2551 78.0674L46.5496 84.0933V83.1633L51.2551 77.1374V78.0674Z" fill="white"/>
<path d="M56.7509 73.9171L52.0455 79.9433V79.5283L56.7509 73.5021V73.9171Z" fill="white"/>
<path d="M56.7509 78.5799L52.0455 84.6057V84.1907L56.7509 78.1649V78.5799Z" fill="white"/>
<path d="M52.0455 80.8764L56.7509 74.8502V76.9241L52.0455 82.9503V80.8764Z" fill="white"/>
</g>
<path d="M55.003 31.4132H39.6736V67.0875H55.003V31.4132Z" fill="#8787FF"/>
<path opacity="0.6" d="M55.003 31.4132H39.6736V67.0875H55.003V31.4132Z" fill="white"/>
<path opacity="0.2" d="M44.5271 31.4132H39.6736V67.0875H44.5271V31.4132Z" fill="black"/>
<path d="M47.5844 32.6006H45.5292V66.8429H47.5844V32.6006Z" fill="#8787FF"/>
<path d="M50.7927 32.6006H48.7375V66.8429H50.7927V32.6006Z" fill="#8787FF"/>
<path d="M53.9998 32.6006H51.9445V66.8429H53.9998V32.6006Z" fill="#8787FF"/>
<path d="M55.8287 40.263H46.0918V40.7526H55.8287V40.263Z" fill="#8787FF"/>
<path d="M55.8279 40.263H44.5263V40.7526H55.8279V40.263Z" fill="#8787FF"/>
<path opacity="0.5" d="M55.8279 40.263H44.5263V40.7526H55.8279V40.263Z" fill="white"/>
<path opacity="0.1" d="M46.0908 40.263H44.5263V40.7526H46.0908V40.263Z" fill="black"/>
<path d="M55.8287 49.0413H46.0918V49.5309H55.8287V49.0413Z" fill="#8787FF"/>
<path d="M55.8279 49.0413H44.5263V49.5309H55.8279V49.0413Z" fill="#8787FF"/>
<path opacity="0.5" d="M55.8279 49.0413H44.5263V49.5309H55.8279V49.0413Z" fill="white"/>
<path opacity="0.1" d="M46.0908 49.0413H44.5263V49.5309H46.0908V49.0413Z" fill="black"/>
<path d="M55.8287 57.8196H46.0918V58.3092H55.8287V57.8196Z" fill="#8787FF"/>
<path d="M55.8279 57.8196H44.5263V58.3092H55.8279V57.8196Z" fill="#8787FF"/>
<path opacity="0.5" d="M55.8279 57.8196H44.5263V58.3092H55.8279V57.8196Z" fill="white"/>
<path opacity="0.1" d="M46.0908 57.8196H44.5263V58.3092H46.0908V57.8196Z" fill="black"/>
<path d="M55.8287 66.5983H46.0918V67.0878H55.8287V66.5983Z" fill="#8787FF"/>
<path d="M55.8279 66.5983H44.5263V67.0878H55.8279V66.5983Z" fill="#8787FF"/>
<path opacity="0.5" d="M55.8279 66.5983H44.5263V67.0878H55.8279V66.5983Z" fill="white"/>
<path opacity="0.1" d="M46.0908 66.5983H44.5263V67.0878H46.0908V66.5983Z" fill="black"/>
<path d="M59.7443 66.9842H35.2454V67.4381H59.7443V66.9842Z" fill="#8787FF"/>
<path opacity="0.3" d="M59.7443 66.9842H35.2454V67.4381H59.7443V66.9842Z" fill="white"/>
<path opacity="0.2" d="M43.6497 66.9842H35.2454V67.4381H43.6497V66.9842Z" fill="black"/>
<path opacity="0.2" d="M47.493 72.0619H45.6067V72.7865H47.493V72.0619Z" fill="black"/>
<path d="M40.7735 7.39227H28.8559V16.5042H40.7735V7.39227Z" fill="#8787FF"/>
<path opacity="0.3" d="M40.7735 7.39227H28.8559V16.5042H40.7735V7.39227Z" fill="white"/>
<path opacity="0.2" d="M32.107 7.39227H28.8559V16.5042H32.107V7.39227Z" fill="black"/>
<path d="M42.3372 16.5042H27.0078V84.9143H42.3372V16.5042Z" fill="#8787FF"/>
<path opacity="0.3" d="M42.3372 16.5042H27.0078V84.9143H42.3372V16.5042Z" fill="white"/>
<path opacity="0.2" d="M31.8613 16.5042H27.0078V84.9143H31.8613V16.5042Z" fill="black"/>
<path d="M37.3332 78.2644H34.3649V84.9355H37.3332V78.2644Z" fill="#8787FF"/>
<path opacity="0.2" d="M37.3332 78.2644H34.3649V84.9355H37.3332V78.2644Z" fill="black"/>
<path d="M40.3021 78.2644H37.3339V84.9355H40.3021V78.2644Z" fill="#8787FF"/>
<path d="M40.7728 77.8663H33.9895V78.2643H40.7728V77.8663Z" fill="#8787FF"/>
<path opacity="0.4" d="M40.7728 77.8663H33.9895V78.2643H40.7728V77.8663Z" fill="white"/>
<path d="M33.4951 15.5253V7.39227H32.1063V15.5253H33.4951Z" fill="#8787FF"/>
<path d="M36.2744 15.5253V7.39227H34.8854V15.5253H36.2744Z" fill="#8787FF"/>
<path d="M30.2449 15.5253V7.39227H28.8559V15.5253H30.2449Z" fill="#8787FF"/>
<path d="M39.0511 15.5253V7.39227H37.6621V15.5253H39.0511Z" fill="#8787FF"/>
<path d="M31.8597 74.8398H27.0063V76.2286H31.8597V74.8398Z" fill="#8787FF"/>
<path d="M31.8597 72.0619H27.0063V73.451H31.8597V72.0619Z" fill="#8787FF"/>
<path d="M31.8597 69.2843H27.0063V70.6731H31.8597V69.2843Z" fill="#8787FF"/>
<path d="M31.8597 66.5062H27.0063V67.8952H31.8597V66.5062Z" fill="#8787FF"/>
<path d="M31.8597 63.7283H27.0063V65.1171H31.8597V63.7283Z" fill="#8787FF"/>
<path d="M31.8597 60.9504H27.0063V62.3395H31.8597V60.9504Z" fill="#8787FF"/>
<path d="M31.8597 58.1725H27.0063V59.5613H31.8597V58.1725Z" fill="#8787FF"/>
<path d="M31.8597 55.3947H27.0063V56.7837H31.8597V55.3947Z" fill="#8787FF"/>
<path d="M31.8597 52.6167H27.0063V54.0056H31.8597V52.6167Z" fill="#8787FF"/>
<path d="M31.8597 49.8389H27.0063V51.2277H31.8597V49.8389Z" fill="#8787FF"/>
<path d="M31.8597 47.061H27.0063V48.45H31.8597V47.061Z" fill="#8787FF"/>
<path d="M31.8597 44.2831H27.0063V45.6721H31.8597V44.2831Z" fill="#8787FF"/>
<path d="M31.8597 41.5052H27.0063V42.894H31.8597V41.5052Z" fill="#8787FF"/>
<path d="M31.8597 38.7273H27.0063V40.1161H31.8597V38.7273Z" fill="#8787FF"/>
<path d="M31.8597 35.9494H27.0063V37.3382H31.8597V35.9494Z" fill="#8787FF"/>
<path d="M31.8597 33.1716H27.0063V34.5606H31.8597V33.1716Z" fill="#8787FF"/>
<path d="M31.8597 30.3936H27.0063V31.7824H31.8597V30.3936Z" fill="#8787FF"/>
<path d="M31.8597 27.6158H27.0063V29.0048H31.8597V27.6158Z" fill="#8787FF"/>
<path d="M31.8597 24.8379H27.0063V26.2267H31.8597V24.8379Z" fill="#8787FF"/>
<path d="M31.8597 22.06H27.0063V23.4491H31.8597V22.06Z" fill="#8787FF"/>
<path d="M31.8597 19.2821H27.0063V20.6712H31.8597V19.2821Z" fill="#8787FF"/>
<path d="M31.86 16.5042H27.0066V17.8933H31.86V16.5042Z" fill="#8787FF"/>
<path d="M42.3374 16.5042H31.8615V17.8933H42.3374V16.5042Z" fill="#8787FF"/>
<path d="M42.3374 19.2821H31.8615V20.6712H42.3374V19.2821Z" fill="#8787FF"/>
<path d="M42.3374 22.06H31.8615V23.4491H42.3374V22.06Z" fill="#8787FF"/>
<path d="M42.3374 24.8379H31.8615V26.2267H42.3374V24.8379Z" fill="#8787FF"/>
<path d="M42.3374 27.6158H31.8615V29.0048H42.3374V27.6158Z" fill="#8787FF"/>
<path d="M42.3374 30.3936H31.8615V31.7824H42.3374V30.3936Z" fill="#8787FF"/>
<path d="M42.3374 33.1715H31.8615V34.5606H42.3374V33.1715Z" fill="#8787FF"/>
<path d="M42.3374 35.9494H31.8615V37.3382H42.3374V35.9494Z" fill="#8787FF"/>
<path d="M42.3374 38.7273H31.8615V40.1161H42.3374V38.7273Z" fill="#8787FF"/>
<path d="M42.3374 41.5052H31.8615V42.894H42.3374V41.5052Z" fill="#8787FF"/>
<path d="M42.3374 44.2831H31.8615V45.6721H42.3374V44.2831Z" fill="#8787FF"/>
<path d="M42.3374 47.0609H31.8615V48.45H42.3374V47.0609Z" fill="#8787FF"/>
<path d="M42.3374 49.8388H31.8615V51.2276H42.3374V49.8388Z" fill="#8787FF"/>
<path d="M42.3374 52.6167H31.8615V54.0055H42.3374V52.6167Z" fill="#8787FF"/>
<path d="M42.3374 55.3946H31.8615V56.7837H42.3374V55.3946Z" fill="#8787FF"/>
<path d="M42.3374 58.1725H31.8615V59.5613H42.3374V58.1725Z" fill="#8787FF"/>
<path d="M42.3374 60.9504H31.8615V62.3395H42.3374V60.9504Z" fill="#8787FF"/>
<path d="M42.3374 63.7282H31.8615V65.117H42.3374V63.7282Z" fill="#8787FF"/>
<path d="M42.3374 66.5061H31.8615V67.8952H42.3374V66.5061Z" fill="#8787FF"/>
<path d="M42.3374 69.2843H31.8615V70.6731H42.3374V69.2843Z" fill="#8787FF"/>
<path d="M42.3374 72.0619H31.8615V73.451H42.3374V72.0619Z" fill="#8787FF"/>
<path d="M42.3374 74.8398H31.8615V76.2286H42.3374V74.8398Z" fill="#8787FF"/>
<path opacity="0.2" d="M35.0252 77.8663H33.9895V78.2643H35.0252V77.8663Z" fill="black"/>
<path d="M37.0746 41.0449H20.1637V84.9354H37.0746V41.0449Z" fill="#8787FF"/>
<path opacity="0.7" d="M37.0746 41.0449H20.1637V84.9354H37.0746V41.0449Z" fill="white"/>
<path opacity="0.2" d="M25.5178 41.0449H20.1637V84.9354H25.5178V41.0449Z" fill="black"/>
<path d="M24.6898 49.8478H20.4945V50.3577H24.6898V49.8478Z" fill="#8787FF"/>
<path d="M31.2189 49.8478H27.0237V50.3577H31.2189V49.8478Z" fill="#8787FF"/>
<path d="M36.3093 49.8478H32.1141V50.3577H36.3093V49.8478Z" fill="#8787FF"/>
<path d="M24.6898 60.222H20.4945V60.7319H24.6898V60.222Z" fill="#8787FF"/>
<path d="M31.2189 60.222H27.0237V60.7319H31.2189V60.222Z" fill="#8787FF"/>
<path d="M36.3093 60.222H32.1141V60.7319H36.3093V60.222Z" fill="#8787FF"/>
<path d="M24.6898 70.5962H20.4945V71.1061H24.6898V70.5962Z" fill="#8787FF"/>
<path d="M31.2189 70.5962H27.0237V71.1061H31.2189V70.5962Z" fill="#8787FF"/>
<path d="M36.3093 70.5962H32.1141V71.1061H36.3093V70.5962Z" fill="#8787FF"/>
<path d="M29.2187 43.0126H28.5238C27.6966 43.0126 27.0234 43.6858 27.0234 44.513V49.8478H30.7191V44.513C30.7191 43.6858 30.0459 43.0126 29.2187 43.0126Z" fill="#8787FF"/>
<path d="M34.3092 43.0126H33.6142C32.787 43.0126 32.1138 43.6858 32.1138 44.513V49.8478H35.8096V44.513C35.8096 43.6858 35.1363 43.0126 34.3092 43.0126Z" fill="#8787FF"/>
<path d="M29.2187 53.3868H28.5238C27.6966 53.3868 27.0234 54.06 27.0234 54.8871V60.222H30.7191V54.8871C30.7191 54.06 30.0459 53.3868 29.2187 53.3868Z" fill="#8787FF"/>
<path d="M34.3092 53.3868H33.6142C32.787 53.3868 32.1138 54.06 32.1138 54.8871V60.222H35.8096V54.8871C35.8096 54.06 35.1363 53.3868 34.3092 53.3868Z" fill="#8787FF"/>
<path d="M29.2187 63.7609H28.5238C27.6966 63.7609 27.0234 64.4341 27.0234 65.2613V70.5962H30.7191V65.2613C30.7191 64.4341 30.0459 63.7609 29.2187 63.7609Z" fill="#8787FF"/>
<path d="M34.3092 63.7609H33.6142C32.787 63.7609 32.1138 64.4341 32.1138 65.2613V70.5962H35.8096V65.2613C35.8096 64.4341 35.1363 63.7609 34.3092 63.7609Z" fill="#8787FF"/>
<path d="M23.1893 43.0126H22.4943C21.6671 43.0126 20.9939 43.6858 20.9939 44.513V49.8478H24.6897V44.513C24.6897 43.6858 24.0164 43.0126 23.1893 43.0126Z" fill="#8787FF"/>
<path d="M23.1893 53.3868H22.4943C21.6671 53.3868 20.9939 54.06 20.9939 54.8871V60.222H24.6896V54.8871C24.6896 54.06 24.0164 53.3868 23.1893 53.3868Z" fill="#8787FF"/>
<path d="M23.1893 63.7609H22.4943C21.6671 63.7609 20.9939 64.4341 20.9939 65.2613V70.5962H24.6896V65.2613C24.6896 64.4341 24.0164 63.7609 23.1893 63.7609Z" fill="#8787FF"/>
<path d="M23.1893 74.1352H22.4943C21.6671 74.1352 20.9939 74.8084 20.9939 75.6356V80.9704H24.6896V75.6356C24.6896 74.8084 24.0164 74.1352 23.1893 74.1352Z" fill="#8787FF"/>
<path d="M31.8488 75.3106H30.8727C29.7111 75.3106 28.7655 76.2559 28.7655 77.4179V84.9099H33.956V77.4179C33.956 76.2562 33.0108 75.3106 31.8488 75.3106Z" fill="#8787FF"/>
<g opacity="0.2">
<path d="M29.2187 43.0126H28.5238C27.6966 43.0126 27.0234 43.6858 27.0234 44.513V49.8478H30.7191V44.513C30.7191 43.6858 30.0459 43.0126 29.2187 43.0126Z" fill="white"/>
<path d="M34.3092 43.0126H33.6142C32.787 43.0126 32.1138 43.6858 32.1138 44.513V49.8478H35.8096V44.513C35.8096 43.6858 35.1363 43.0126 34.3092 43.0126Z" fill="white"/>
<path d="M29.2187 53.3868H28.5238C27.6966 53.3868 27.0234 54.06 27.0234 54.8871V60.222H30.7191V54.8871C30.7191 54.06 30.0459 53.3868 29.2187 53.3868Z" fill="white"/>
<path d="M34.3092 53.3868H33.6142C32.787 53.3868 32.1138 54.06 32.1138 54.8871V60.222H35.8096V54.8871C35.8096 54.06 35.1363 53.3868 34.3092 53.3868Z" fill="white"/>
<path d="M29.2187 63.7609H28.5238C27.6966 63.7609 27.0234 64.4341 27.0234 65.2613V70.5962H30.7191V65.2613C30.7191 64.4341 30.0459 63.7609 29.2187 63.7609Z" fill="white"/>
<path d="M34.3092 63.7609H33.6142C32.787 63.7609 32.1138 64.4341 32.1138 65.2613V70.5962H35.8096V65.2613C35.8096 64.4341 35.1363 63.7609 34.3092 63.7609Z" fill="white"/>
<path d="M23.1893 43.0126H22.4943C21.6671 43.0126 20.9939 43.6858 20.9939 44.513V49.8478H24.6897V44.513C24.6897 43.6858 24.0164 43.0126 23.1893 43.0126Z" fill="white"/>
<path d="M23.1893 53.3868H22.4943C21.6671 53.3868 20.9939 54.06 20.9939 54.8871V60.222H24.6896V54.8871C24.6896 54.06 24.0164 53.3868 23.1893 53.3868Z" fill="white"/>
<path d="M23.1893 63.7609H22.4943C21.6671 63.7609 20.9939 64.4341 20.9939 65.2613V70.5962H24.6896V65.2613C24.6896 64.4341 24.0164 63.7609 23.1893 63.7609Z" fill="white"/>
<path d="M23.1893 74.1352H22.4943C21.6671 74.1352 20.9939 74.8084 20.9939 75.6356V80.9704H24.6896V75.6356C24.6896 74.8084 24.0164 74.1352 23.1893 74.1352Z" fill="white"/>
<path d="M31.8488 75.3106H30.8727C29.7111 75.3106 28.7655 76.2559 28.7655 77.4179V84.9099H33.956V77.4179C33.956 76.2562 33.0108 75.3106 31.8488 75.3106Z" fill="white"/>
</g>
<g opacity="0.7">
<path opacity="0.8" d="M30.0809 44.5129V45.2101H29.0475V43.6493H29.2176C29.6936 43.6493 30.0812 44.0366 30.0812 44.5126L30.0809 44.5129Z" fill="white"/>
<path opacity="0.8" d="M30.0809 45.5653H29.0475V47.1532H30.0809V45.5653Z" fill="white"/>
<path opacity="0.8" d="M28.6932 45.5653H27.6598V47.1532H28.6932V45.5653Z" fill="white"/>
<path opacity="0.8" d="M28.5232 43.6496H28.6932V45.2104H27.6598V44.5132C27.6598 44.0372 28.0472 43.6499 28.5232 43.6499V43.6496Z" fill="white"/>
<path opacity="0.8" d="M28.6932 47.5083H27.6598V49.211H28.6932V47.5083Z" fill="white"/>
<path opacity="0.8" d="M30.0809 47.5083H29.0475V49.211H30.0809V47.5083Z" fill="white"/>
<path opacity="0.8" d="M35.1727 44.5129V45.2101H34.1393V43.6493H34.3093C34.7853 43.6493 35.1727 44.0366 35.1727 44.5126V44.5129Z" fill="white"/>
<path opacity="0.8" d="M35.1727 45.5653H34.1393V47.1532H35.1727V45.5653Z" fill="white"/>
<path opacity="0.8" d="M33.7836 45.5653H32.7502V47.1532H33.7836V45.5653Z" fill="white"/>
<path opacity="0.8" d="M33.6136 43.6496H33.7836V45.2104H32.7502V44.5132C32.7502 44.0372 33.1376 43.6499 33.6139 43.6499L33.6136 43.6496Z" fill="white"/>
<path opacity="0.8" d="M33.7836 47.5083H32.7502V49.211H33.7836V47.5083Z" fill="white"/>
<path opacity="0.8" d="M35.1727 47.5083H34.1393V49.211H35.1727V47.5083Z" fill="white"/>
<path opacity="0.8" d="M30.0809 54.8871V55.5843H29.0475V54.0235H29.2176C29.6936 54.0235 30.0812 54.4108 30.0812 54.8871H30.0809Z" fill="white"/>
<path opacity="0.8" d="M30.0809 55.9395H29.0475V57.5274H30.0809V55.9395Z" fill="white"/>
<path opacity="0.8" d="M28.6932 55.9395H27.6598V57.5274H28.6932V55.9395Z" fill="white"/>
<path opacity="0.8" d="M28.5232 54.0238H28.6932V55.5846H27.6598V54.8874C27.6598 54.4114 28.0472 54.0238 28.5232 54.0238Z" fill="white"/>
<path opacity="0.8" d="M28.6932 57.8826H27.6598V59.5852H28.6932V57.8826Z" fill="white"/>
<path opacity="0.8" d="M30.0809 57.8826H29.0475V59.5852H30.0809V57.8826Z" fill="white"/>
<g opacity="0.8">
<path d="M35.1738 54.8871V55.5843H34.1404V54.0235H34.3104C34.7864 54.0235 35.1738 54.4108 35.1738 54.8871Z" fill="white"/>
<path d="M35.1738 55.9394H34.1404V57.5274H35.1738V55.9394Z" fill="white"/>
<path d="M33.7847 55.9394H32.7513V57.5274H33.7847V55.9394Z" fill="white"/>
<path d="M33.6146 54.0237H33.7846V55.5846H32.7512V54.8874C32.7512 54.4113 33.1386 54.0237 33.6149 54.0237H33.6146Z" fill="white"/>
<path d="M33.7847 57.8825H32.7513V59.5852H33.7847V57.8825Z" fill="white"/>
<path d="M35.1738 57.8825H34.1404V59.5852H35.1738V57.8825Z" fill="white"/>
</g>
<path d="M30.0809 65.2613V65.9585H29.0475V64.3977H29.2176C29.6936 64.3977 30.0812 64.785 30.0812 65.2613H30.0809Z" fill="white"/>
<path d="M30.0809 66.3136H29.0475V67.9016H30.0809V66.3136Z" fill="white"/>
<path d="M28.6932 66.3136H27.6598V67.9016H28.6932V66.3136Z" fill="white"/>
<path d="M28.5232 64.398H28.6932V65.9588H27.6598V65.2616C27.6598 64.7856 28.0472 64.398 28.5232 64.398Z" fill="white"/>
<path d="M28.6932 68.2567H27.6598V69.9594H28.6932V68.2567Z" fill="white"/>
<path d="M30.0809 68.2567H29.0475V69.9594H30.0809V68.2567Z" fill="white"/>
<path d="M35.1738 65.2613V65.9585H34.1404V64.3977H34.3104C34.7864 64.3977 35.1738 64.785 35.1738 65.2613Z" fill="white"/>
<path d="M35.1738 66.3136H34.1404V67.9016H35.1738V66.3136Z" fill="white"/>
<path d="M33.7847 66.3136H32.7513V67.9016H33.7847V66.3136Z" fill="white"/>
<path d="M33.6146 64.3979H33.7846V65.9588H32.7512V65.2615C32.7512 64.7855 33.1386 64.3979 33.6149 64.3979H33.6146Z" fill="white"/>
<path d="M33.7847 68.2567H32.7513V69.9594H33.7847V68.2567Z" fill="white"/>
<path d="M35.1738 68.2567H34.1404V69.9594H35.1738V68.2567Z" fill="white"/>
<path opacity="0.8" d="M24.0538 44.5129V45.2102H23.0204V43.6493H23.1904C23.6664 43.6493 24.054 44.0366 24.054 44.5126L24.0538 44.5129Z" fill="white"/>
<path opacity="0.8" d="M24.0538 45.5653H23.0204V47.1532H24.0538V45.5653Z" fill="white"/>
<path opacity="0.8" d="M22.6647 45.5653H21.6313V47.1532H22.6647V45.5653Z" fill="white"/>
<path opacity="0.8" d="M22.4945 43.6496H22.6645V45.2104H21.6311V44.5132C21.6311 44.0372 22.0185 43.6499 22.4945 43.6499V43.6496Z" fill="white"/>
<path opacity="0.8" d="M22.6647 47.5084H21.6313V49.211H22.6647V47.5084Z" fill="white"/>
<path opacity="0.8" d="M24.0538 47.5084H23.0204V49.211H24.0538V47.5084Z" fill="white"/>
<path opacity="0.8" d="M24.054 54.8871V55.5843H23.0206V54.0235H23.1906C23.6666 54.0235 24.0542 54.4108 24.0542 54.8871H24.054Z" fill="white"/>
<path opacity="0.8" d="M24.054 55.9394H23.0206V57.5274H24.054V55.9394Z" fill="white"/>
<path opacity="0.8" d="M22.6649 55.9394H21.6315V57.5274H22.6649V55.9394Z" fill="white"/>
<path opacity="0.8" d="M22.4947 54.0237H22.6647V55.5846H21.6313V54.8874C21.6313 54.4113 22.0187 54.0237 22.4947 54.0237Z" fill="white"/>
<path opacity="0.8" d="M22.6649 57.8825H21.6315V59.5852H22.6649V57.8825Z" fill="white"/>
<path opacity="0.8" d="M24.054 57.8825H23.0206V59.5852H24.054V57.8825Z" fill="white"/>
<g opacity="0.8">
<path d="M24.054 65.2613V65.9585H23.0206V64.3977H23.1906C23.6666 64.3977 24.0542 64.785 24.0542 65.2613H24.054Z" fill="white"/>
<path d="M24.054 66.3136H23.0206V67.9016H24.054V66.3136Z" fill="white"/>
<path d="M22.6649 66.3136H21.6315V67.9016H22.6649V66.3136Z" fill="white"/>
<path d="M22.4947 64.3979H22.6647V65.9588H21.6313V65.2616C21.6313 64.7855 22.0187 64.3979 22.4947 64.3979Z" fill="white"/>
<path d="M22.6649 68.2567H21.6315V69.9594H22.6649V68.2567Z" fill="white"/>
<path d="M24.054 68.2567H23.0206V69.9594H24.054V68.2567Z" fill="white"/>
</g>
<path d="M24.054 75.6355V76.3327H23.0206V74.7719H23.1906C23.6666 74.7719 24.0542 75.1592 24.0542 75.6352L24.054 75.6355Z" fill="white"/>
<path d="M24.054 76.6878H23.0206V78.2758H24.054V76.6878Z" fill="white"/>
<path d="M22.6649 76.6878H21.6315V78.2758H22.6649V76.6878Z" fill="white"/>
<path d="M22.4947 74.7722H22.6647V76.333H21.6313V75.6358C21.6313 75.1598 22.0187 74.7724 22.4947 74.7724V74.7722Z" fill="white"/>
<path d="M22.6649 78.631H21.6315V80.3336H22.6649V78.631Z" fill="white"/>
<path d="M24.054 78.631H23.0206V80.3336H24.054V78.631Z" fill="white"/>
<path d="M33.0624 77.4178V78.397H31.6109V76.205H31.8496C32.5183 76.205 33.0621 76.7489 33.0621 77.4175L33.0624 77.4178Z" fill="white"/>
<path d="M33.0624 78.8956H31.6109V81.1257H33.0624V78.8956Z" fill="white"/>
<path d="M31.1123 78.8956H29.6608V81.1257H31.1123V78.8956Z" fill="white"/>
<path d="M30.8734 76.2053H31.1121V78.3973H29.6606V77.4181C29.6606 76.7494 30.2047 76.2053 30.8734 76.2053Z" fill="white"/>
<path d="M31.1123 81.6243H29.6608V84.0155H31.1123V81.6243Z" fill="white"/>
<path d="M33.0624 81.6243H31.6109V84.0155H33.0624V81.6243Z" fill="white"/>
</g>
<path d="M24.6898 80.9704H20.4945V81.4803H24.6898V80.9704Z" fill="#8787FF"/>
<path d="M34.4929 84.4252H28.7659V84.9351H34.4929V84.4252Z" fill="#8787FF"/>
<path d="M92.109 12.54H79.1815V17.096H92.109V12.54Z" fill="#8787FF"/>
<path opacity="0.5" d="M92.109 12.54H79.1815V17.096H92.109V12.54Z" fill="white"/>
<path d="M89.9224 9.52487H81.367V12.5398H89.9224V9.52487Z" fill="#8787FF"/>
<path opacity="0.4" d="M89.9224 9.52487H81.367V12.5398H89.9224V9.52487Z" fill="white"/>
<path d="M88.3532 7.61653H82.9378V9.52514H88.3532V7.61653Z" fill="#8787FF"/>
<path opacity="0.3" d="M88.3532 7.61653H82.9378V9.52514H88.3532V7.61653Z" fill="white"/>
<path d="M87.0494 6.66225H84.2418V7.65158H87.0494V6.66225Z" fill="#8787FF"/>
<path opacity="0.2" d="M87.0494 6.66225H84.2418V7.65158H87.0494V6.66225Z" fill="white"/>
<path d="M93.1114 17.0961H77.782V84.9354H93.1114V17.0961Z" fill="#8787FF"/>
<path opacity="0.7" d="M93.1114 17.0961H77.782V84.9354H93.1114V17.0961Z" fill="white"/>
<path opacity="0.1" d="M82.6355 17.0961H77.782V84.9354H82.6355V17.0961Z" fill="black"/>
<path d="M85.6944 19.3538H83.6392V84.4696H85.6944V19.3538Z" fill="#8787FF"/>
<path d="M81.2371 19.3538H79.1818V84.4696H81.2371V19.3538Z" fill="#8787FF"/>
<path d="M88.9014 19.3538H86.8462V84.4696H88.9014V19.3538Z" fill="#8787FF"/>
<path d="M92.1098 19.3538H90.0545V84.4696H92.1098V19.3538Z" fill="#8787FF"/>
<path opacity="0.2" d="M82.6363 12.5401H79.1818V17.096H82.6363V12.5401Z" fill="black"/>
<path opacity="0.2" d="M83.6534 9.52489H81.3673V12.5398H83.6534V9.52489Z" fill="black"/>
<path opacity="0.2" d="M84.3851 7.61655H82.9381V9.52516H84.3851V7.61655Z" fill="black"/>
<path opacity="0.2" d="M84.9925 6.66225H84.2421V7.65158H84.9925V6.66225Z" fill="black"/>
<path d="M93.9368 25.6329H82.6351V26.5637H93.9368V25.6329Z" fill="#8787FF"/>
<path opacity="0.3" d="M93.9368 25.6329H82.6351V26.5637H93.9368V25.6329Z" fill="white"/>
<path opacity="0.2" d="M84.1999 25.6329H82.6351V26.5637H84.1999V25.6329Z" fill="black"/>
<path d="M76.7488 26.5637H81.2355V25.6328H76.7488V26.5637Z" fill="#8787FF"/>
<path opacity="0.3" d="M76.7488 26.5637H81.2355V25.6328H76.7488V26.5637Z" fill="white"/>
<path opacity="0.2" d="M80.6143 26.5637H81.2355V25.6328H80.6143V26.5637Z" fill="black"/>
<path d="M93.9368 33.9456H82.6351V34.8764H93.9368V33.9456Z" fill="#8787FF"/>
<path opacity="0.3" d="M93.9368 33.9456H82.6351V34.8764H93.9368V33.9456Z" fill="white"/>
<path opacity="0.2" d="M84.1999 33.9456H82.6351V34.8764H84.1999V33.9456Z" fill="black"/>
<path d="M76.7488 34.8765H81.2355V33.9456H76.7488V34.8765Z" fill="#8787FF"/>
<path opacity="0.3" d="M76.7488 34.8765H81.2355V33.9456H76.7488V34.8765Z" fill="white"/>
<path opacity="0.2" d="M80.6143 34.8765H81.2355V33.9456H80.6143V34.8765Z" fill="black"/>
<path d="M93.9368 42.2581H82.6351V43.1889H93.9368V42.2581Z" fill="#8787FF"/>
<path opacity="0.3" d="M93.9368 42.2581H82.6351V43.1889H93.9368V42.2581Z" fill="white"/>
<path opacity="0.2" d="M84.1999 42.2581H82.6351V43.1889H84.1999V42.2581Z" fill="black"/>
<path d="M76.7488 43.1892H81.2355V42.2583H76.7488V43.1892Z" fill="#8787FF"/>
<path opacity="0.3" d="M76.7488 43.1892H81.2355V42.2583H76.7488V43.1892Z" fill="white"/>
<path opacity="0.2" d="M80.6143 43.1892H81.2355V42.2583H80.6143V43.1892Z" fill="black"/>
<path d="M93.9368 50.5708H82.6351V51.5016H93.9368V50.5708Z" fill="#8787FF"/>
<path opacity="0.3" d="M93.9368 50.5708H82.6351V51.5016H93.9368V50.5708Z" fill="white"/>
<path opacity="0.2" d="M84.1999 50.5708H82.6351V51.5016H84.1999V50.5708Z" fill="black"/>
<path d="M76.7488 51.5016H81.2355V50.5708H76.7488V51.5016Z" fill="#8787FF"/>
<path opacity="0.3" d="M76.7488 51.5016H81.2355V50.5708H76.7488V51.5016Z" fill="white"/>
<path opacity="0.2" d="M80.6143 51.5016H81.2355V50.5708H80.6143V51.5016Z" fill="black"/>
<path d="M93.9368 58.8833H82.6351V59.8141H93.9368V58.8833Z" fill="#8787FF"/>
<path opacity="0.3" d="M93.9368 58.8833H82.6351V59.8141H93.9368V58.8833Z" fill="white"/>
<path opacity="0.2" d="M84.1999 58.8833H82.6351V59.8141H84.1999V58.8833Z" fill="black"/>
<path d="M76.7488 59.8141H81.2355V58.8832H76.7488V59.8141Z" fill="#8787FF"/>
<path opacity="0.3" d="M76.7488 59.8141H81.2355V58.8832H76.7488V59.8141Z" fill="white"/>
<path opacity="0.2" d="M80.6143 59.8141H81.2355V58.8832H80.6143V59.8141Z" fill="black"/>
<path d="M93.9368 67.196H82.6351V68.1268H93.9368V67.196Z" fill="#8787FF"/>
<path opacity="0.3" d="M93.9368 67.196H82.6351V68.1268H93.9368V67.196Z" fill="white"/>
<path opacity="0.2" d="M84.1999 67.196H82.6351V68.1268H84.1999V67.196Z" fill="black"/>
<path d="M76.7488 68.1268H81.2355V67.196H76.7488V68.1268Z" fill="#8787FF"/>
<path opacity="0.3" d="M76.7488 68.1268H81.2355V67.196H76.7488V68.1268Z" fill="white"/>
<path opacity="0.2" d="M80.6143 68.1268H81.2355V67.196H80.6143V68.1268Z" fill="black"/>
<path d="M93.9368 75.5087H82.6351V76.4396H93.9368V75.5087Z" fill="#8787FF"/>
<path opacity="0.3" d="M93.9368 75.5087H82.6351V76.4396H93.9368V75.5087Z" fill="white"/>
<path opacity="0.2" d="M84.1999 75.5087H82.6351V76.4396H84.1999V75.5087Z" fill="black"/>
<path d="M76.7488 76.4393H81.2355V75.5085H76.7488V76.4393Z" fill="#8787FF"/>
<path opacity="0.3" d="M76.7488 76.4393H81.2355V75.5085H76.7488V76.4393Z" fill="white"/>
<path opacity="0.2" d="M80.6143 76.4393H81.2355V75.5085H80.6143V76.4393Z" fill="black"/>
<path d="M78.499 43.9574H63.1699V84.6137H78.499V43.9574Z" fill="#8787FF"/>
<path opacity="0.7" d="M78.499 43.9574H63.1699V84.6137H78.499V43.9574Z" fill="white"/>
<path opacity="0.2" d="M68.0234 43.9574H63.1699V84.6137H68.0234V43.9574Z" fill="black"/>
<path opacity="0.2" d="M71.0816 44.8622H69.0264V49.4439H71.0816V44.8622Z" fill="black"/>
<path opacity="0.2" d="M74.2886 44.8622H72.2334V49.4439H74.2886V44.8622Z" fill="black"/>
<path opacity="0.2" d="M77.497 44.8622H75.4417V49.4439H77.497V44.8622Z" fill="black"/>
<path opacity="0.2" d="M71.0816 50.3838H69.0264V54.9655H71.0816V50.3838Z" fill="black"/>
<path opacity="0.2" d="M74.2886 50.3838H72.2334V54.9655H74.2886V50.3838Z" fill="black"/>
<path opacity="0.2" d="M66.6256 44.8622H64.5703V49.4439H66.6256V44.8622Z" fill="black"/>
<path opacity="0.2" d="M66.6256 50.3838H64.5703V54.9655H66.6256V50.3838Z" fill="black"/>
<path opacity="0.2" d="M77.497 50.3838H75.4417V54.9655H77.497V50.3838Z" fill="black"/>
<path opacity="0.2" d="M71.0816 58.5669H69.0264V63.1486H71.0816V58.5669Z" fill="black"/>
<path opacity="0.2" d="M74.2886 58.5669H72.2334V63.1486H74.2886V58.5669Z" fill="black"/>
<path opacity="0.2" d="M77.497 58.5669H75.4417V63.1486H77.497V58.5669Z" fill="black"/>
<path opacity="0.2" d="M71.0816 64.0882H69.0264V68.6699H71.0816V64.0882Z" fill="black"/>
<path opacity="0.2" d="M74.2886 64.0882H72.2334V68.6699H74.2886V64.0882Z" fill="black"/>
<path opacity="0.2" d="M66.6256 58.5669H64.5703V63.1486H66.6256V58.5669Z" fill="black"/>
<path opacity="0.2" d="M66.6256 64.0882H64.5703V68.6699H66.6256V64.0882Z" fill="black"/>
<path opacity="0.2" d="M77.497 64.0882H75.4417V68.6699H77.497V64.0882Z" fill="black"/>
<path d="M70.7075 64.4631H69.4018V68.2953H70.7075V64.4631Z" fill="#8787FF"/>
<path d="M73.9146 64.4631H72.6088V68.2953H73.9146V64.4631Z" fill="#8787FF"/>
<path d="M66.2501 64.4631H64.9444V68.2953H66.2501V64.4631Z" fill="#8787FF"/>
<path d="M77.1229 64.4631H75.8171V68.2953H77.1229V64.4631Z" fill="#8787FF"/>
<path d="M66.9908 78.3864H65.9162V78.9859H66.9908V78.3864Z" fill="#8787FF"/>
<path d="M68.0267 77.153H66.952V77.7527H68.0267V77.153Z" fill="#8787FF"/>
<path d="M70.2083 75.5958H69.1336V76.1956H70.2083V75.5958Z" fill="#8787FF"/>
<path d="M71.2442 76.7637H70.1695V77.3632H71.2442V76.7637Z" fill="#8787FF"/>
<path d="M71.2442 74.3624H70.1695V74.9622H71.2442V74.3624Z" fill="#8787FF"/>
<path d="M71.7817 75.5958H70.7071V76.1956H71.7817V75.5958Z" fill="#8787FF"/>
<path d="M74.0392 73.2377H72.9645V73.8375H74.0392V73.2377Z" fill="#8787FF"/>
<path d="M75.0751 74.4056H74.0004V75.0054H75.0751V74.4056Z" fill="#8787FF"/>
<path d="M75.0751 72.0043H74.0004V72.604H75.0751V72.0043Z" fill="#8787FF"/>
<path d="M75.6139 73.2377H74.5392V73.8375H75.6139V73.2377Z" fill="#8787FF"/>
<path d="M75.5825 75.8515H74.5079V76.4512H75.5825V75.8515Z" fill="#8787FF"/>
<path d="M76.6184 77.0194H75.5437V77.6189H76.6184V77.0194Z" fill="#8787FF"/>
<path d="M76.6184 74.618H75.5437V75.2178H76.6184V74.618Z" fill="#8787FF"/>
<path d="M78.5371 73.3363H77.4624V73.9361H78.5371V73.3363Z" fill="#8787FF"/>
<path d="M77.1546 75.8515H76.08V76.4512H77.1546V75.8515Z" fill="#8787FF"/>
<path d="M64.2638 73.5047H63.1891V74.1044H64.2638V73.5047Z" fill="#8787FF"/>
<path d="M65.301 74.6726H64.2263V75.2723H65.301V74.6726Z" fill="#8787FF"/>
<path d="M65.301 72.2713H64.2263V72.8711H65.301V72.2713Z" fill="#8787FF"/>
<path d="M64.2638 81.6918H63.1891V82.2915H64.2638V81.6918Z" fill="#8787FF"/>
<path d="M65.301 82.8596H64.2263V83.4594H65.301V82.8596Z" fill="#8787FF"/>
<path d="M65.301 80.4583H64.2263V81.0581H65.301V80.4583Z" fill="#8787FF"/>
<path d="M65.8372 73.5047H64.7626V74.1044H65.8372V73.5047Z" fill="#8787FF"/>
<path d="M70.5902 72.3465H69.5155V72.9462H70.5902V72.3465Z" fill="#8787FF"/>
<path d="M79.1536 43.1709H62.5165V44.0789H79.1536V43.1709Z" fill="#8787FF"/>
<path opacity="0.2" d="M79.1536 43.1709H62.5165V44.0789H79.1536V43.1709Z" fill="white"/>
<path d="M79.7186 42.2629H61.9515V43.1709H79.7186V42.2629Z" fill="#8787FF"/>
<path opacity="0.4" d="M79.7186 42.2629H61.9515V43.1709H79.7186V42.2629Z" fill="white"/>
<path opacity="0.2" d="M68.0463 43.1709H62.5165V44.0789H68.0463V43.1709Z" fill="black"/>
<path opacity="0.2" d="M68.0463 42.2629H61.9515V43.1709H68.0463V42.2629Z" fill="black"/>
<path d="M79.1553 56.4701H62.5182V57.3781H79.1553V56.4701Z" fill="#8787FF"/>
<path opacity="0.2" d="M79.1553 56.4701H62.5182V57.3781H79.1553V56.4701Z" fill="white"/>
<path opacity="0.2" d="M68.048 56.4701H62.5182V57.3781H68.048V56.4701Z" fill="black"/>
<path d="M79.1553 70.1737H62.5182V71.0816H79.1553V70.1737Z" fill="#8787FF"/>
<path opacity="0.2" d="M79.1553 70.1737H62.5182V71.0816H79.1553V70.1737Z" fill="white"/>
<path opacity="0.2" d="M68.048 70.1737H62.5182V71.0816H68.048V70.1737Z" fill="black"/>
<path d="M79.1553 84.0272H62.5182V84.9352H79.1553V84.0272Z" fill="#8787FF"/>
<path opacity="0.2" d="M79.1553 84.0272H62.5182V84.9352H79.1553V84.0272Z" fill="white"/>
<path opacity="0.2" d="M68.048 84.0272H62.5182V84.9352H68.048V84.0272Z" fill="black"/>
<path d="M70.7075 45.2369H69.4018V49.0691H70.7075V45.2369Z" fill="#8787FF"/>
<path d="M73.9146 45.2369H72.6088V49.0691H73.9146V45.2369Z" fill="#8787FF"/>
<path d="M77.1229 45.2369H75.8171V49.0691H77.1229V45.2369Z" fill="#8787FF"/>
<path d="M70.7075 50.7584H69.4018V54.5906H70.7075V50.7584Z" fill="#8787FF"/>
<path d="M73.9146 50.7584H72.6088V54.5906H73.9146V50.7584Z" fill="#8787FF"/>
<path d="M66.2501 45.2369H64.9444V49.0691H66.2501V45.2369Z" fill="#8787FF"/>
<path d="M66.2502 50.7584H64.9444V54.5906H66.2502V50.7584Z" fill="#8787FF"/>
<path d="M77.1229 50.7584H75.8171V54.5906H77.1229V50.7584Z" fill="#8787FF"/>
<path d="M70.7075 58.9415H69.4018V62.7737H70.7075V58.9415Z" fill="#8787FF"/>
<path d="M73.9146 58.9415H72.6088V62.7737H73.9146V58.9415Z" fill="#8787FF"/>
<path d="M77.1229 58.9415H75.8171V62.7737H77.1229V58.9415Z" fill="#8787FF"/>
<path d="M66.2502 58.9415H64.9444V62.7737H66.2502V58.9415Z" fill="#8787FF"/>
<path d="M73.2624 79.0947H70.6927V84.8231H73.2624V79.0947Z" fill="#8787FF"/>
<path opacity="0.2" d="M72.7935 79.5633H71.1609V84.3543H72.7935V79.5633Z" fill="black"/>
<path d="M75.8311 79.0947H73.2614V84.8231H75.8311V79.0947Z" fill="#8787FF"/>
<path opacity="0.2" d="M75.3636 79.5633H73.731V84.3543H75.3636V79.5633Z" fill="black"/>
<path d="M71.3966 49.4439H68.7108V49.7589H71.3966V49.4439Z" fill="#8787FF"/>
<path d="M74.6039 49.4439H71.9178V49.7589H74.6039V49.4439Z" fill="#8787FF"/>
<path d="M77.812 49.4439H75.1262V49.7589H77.812V49.4439Z" fill="#8787FF"/>
<path d="M71.3966 54.9652H68.7108V55.2802H71.3966V54.9652Z" fill="#8787FF"/>
<path d="M66.9392 49.4439H64.2535V49.7589H66.9392V49.4439Z" fill="#8787FF"/>
<path d="M66.9393 54.9652H64.2535V55.2802H66.9393V54.9652Z" fill="#8787FF"/>
<path d="M74.6039 54.9652H71.9178V55.2802H74.6039V54.9652Z" fill="#8787FF"/>
<path d="M77.812 54.9652H75.1262V55.2802H77.812V54.9652Z" fill="#8787FF"/>
<path d="M71.3966 63.1486H68.7108V63.4636H71.3966V63.1486Z" fill="#8787FF"/>
<path d="M74.6039 63.1486H71.9178V63.4636H74.6039V63.1486Z" fill="#8787FF"/>
<path d="M77.812 63.1486H75.1262V63.4636H77.812V63.1486Z" fill="#8787FF"/>
<path d="M71.3966 68.6699H68.7108V68.9849H71.3966V68.6699Z" fill="#8787FF"/>
<path d="M66.9393 63.1486H64.2535V63.4636H66.9393V63.1486Z" fill="#8787FF"/>
<path d="M66.9393 68.6699H64.2535V68.9849H66.9393V68.6699Z" fill="#8787FF"/>
<path d="M74.6039 68.6699H71.9178V68.9849H74.6039V68.6699Z" fill="#8787FF"/>
<path d="M77.812 68.6699H75.1262V68.9849H77.812V68.6699Z" fill="#8787FF"/>
<path d="M76.4676 78.7797H70.2189V79.0947H76.4676V78.7797Z" fill="#8787FF"/>
<path d="M6.58915 77.9199C6.58915 77.9199 4.31187 78.9881 4.07908 76.5546C4.07908 76.5546 2.36483 74.7135 4.6294 74.2267C4.6294 74.2267 4.67178 72.3221 6.34365 73.2744C6.34365 73.2744 6.21652 70.9465 8.34012 71.9062C8.34012 71.9062 9.70802 70.0261 10.7556 71.9042C10.7556 71.9042 12.163 71.8988 11.6551 73.6764C11.6551 73.6764 14.3004 74.7344 12.8614 76.0042C12.8614 76.0042 13.2049 78.1284 11.3016 78.0366C11.3016 78.0366 9.87752 79.3268 8.62884 77.8877C8.62884 77.8877 7.42735 78.9465 6.58915 77.9199Z" fill="#8787FF"/>
<path opacity="0.3" d="M6.58915 77.9199C6.58915 77.9199 4.31187 78.9881 4.07908 76.5546C4.07908 76.5546 2.36483 74.7135 4.6294 74.2267C4.6294 74.2267 4.67178 72.3221 6.34365 73.2744C6.34365 73.2744 6.21652 70.9465 8.34012 71.9062C8.34012 71.9062 9.70802 70.0261 10.7556 71.9042C10.7556 71.9042 12.163 71.8988 11.6551 73.6764C11.6551 73.6764 14.3004 74.7344 12.8614 76.0042C12.8614 76.0042 13.2049 78.1284 11.3016 78.0366C11.3016 78.0366 9.87752 79.3268 8.62884 77.8877C8.62884 77.8877 7.42735 78.9465 6.58915 77.9199Z" fill="black"/>
<path opacity="0.2" d="M11.5534 76.6653C11.5534 76.6653 9.95919 77.9767 8.56164 76.5138C8.56164 76.5138 7.21691 77.5902 6.2787 76.5466C6.2787 76.5466 4.21499 77.3314 3.46918 75.1587L3.46522 75.1386C3.38442 75.807 4.07911 76.5542 4.07911 76.5542C4.31189 78.9878 6.58918 77.9196 6.58918 77.9196C7.42737 78.9465 8.62887 77.8874 8.62887 77.8874C9.87727 79.3265 11.3017 78.0363 11.3017 78.0363C12.8789 78.1123 12.9128 76.6701 12.8783 76.1723C12.6614 76.4777 12.2625 76.6961 11.5534 76.665V76.6653Z" fill="black"/>
<path d="M6.10722 76.3136C6.10722 76.3136 7.0231 77.4707 7.2186 77.9176C7.45534 78.4595 7.58473 79.5692 7.66242 80.241C7.77147 81.1845 7.76158 83.1225 7.50421 84.0367C7.42709 84.311 7.00333 85.0603 7.00333 85.0603H9.13004C9.13004 85.0603 8.79075 83.8853 8.72973 83.483C8.61814 82.7468 8.61164 81.2396 8.72973 80.5046C8.80826 80.0158 9.12806 79.0666 9.34955 78.6239C9.57838 78.1665 10.1117 77.2874 10.4304 76.8873C10.6677 76.5893 11.511 75.8127 11.511 75.8127H11.2285L10.2109 76.7057L9.93179 75.655H9.66906L10.0301 76.9354L8.99895 78.4024L8.25483 79.6282C8.25483 79.6282 7.56213 78.1405 7.60507 77.6131C7.62174 77.41 7.97798 76.8876 7.97798 76.8876H7.71525L7.27397 77.4394L6.28718 76.1808L6.10722 76.3136Z" fill="#263238"/>
<path d="M68.6492 77.2156C68.6492 77.2156 71.1511 78.3891 71.4068 75.7155C71.4068 75.7155 73.29 73.6928 70.8022 73.1582C70.8022 73.1582 70.7556 71.0657 68.919 72.1121C68.919 72.1121 69.0586 69.5549 66.7256 70.6092C66.7256 70.6092 65.2227 68.5438 64.0718 70.6069C64.0718 70.6069 62.5256 70.601 63.0836 72.554C63.0836 72.554 60.1774 73.7165 61.7583 75.1112C61.7583 75.1112 61.3809 77.4447 63.4717 77.3439C63.4717 77.3439 65.0362 78.7612 66.4081 77.1803C66.4081 77.1803 67.728 78.3437 68.6489 77.2156H68.6492Z" fill="#8787FF"/>
<path opacity="0.3" d="M68.6492 77.2156C68.6492 77.2156 71.1511 78.3891 71.4068 75.7155C71.4068 75.7155 73.29 73.6928 70.8022 73.1582C70.8022 73.1582 70.7556 71.0657 68.919 72.1121C68.919 72.1121 69.0586 69.5549 66.7256 70.6092C66.7256 70.6092 65.2227 68.5438 64.0718 70.6069C64.0718 70.6069 62.5256 70.601 63.0836 72.554C63.0836 72.554 60.1774 73.7165 61.7583 75.1112C61.7583 75.1112 61.3809 77.4447 63.4717 77.3439C63.4717 77.3439 65.0362 78.7612 66.4081 77.1803C66.4081 77.1803 67.728 78.3437 68.6489 77.2156H68.6492Z" fill="black"/>
<path opacity="0.2" d="M63.1952 75.8375C63.1952 75.8375 64.9464 77.2783 66.4819 75.6711C66.4819 75.6711 67.9591 76.8537 68.99 75.707C68.99 75.707 71.2571 76.5689 72.0766 74.1823L72.0809 74.1603C72.1696 74.8945 71.4065 75.7155 71.4065 75.7155C71.1508 78.3891 68.649 77.2156 68.649 77.2156C67.728 78.3436 66.4081 77.1803 66.4081 77.1803C65.0366 78.7612 63.4718 77.3439 63.4718 77.3439C61.7392 77.4275 61.7019 75.8429 61.7397 75.2963C61.9782 75.6316 62.4163 75.8717 63.1952 75.8375Z" fill="black"/>
<path d="M69.1793 75.4511C69.1793 75.4511 68.173 76.7221 67.9583 77.2133C67.6981 77.8086 67.556 79.0279 67.4707 79.7658C67.3509 80.8023 67.362 82.9313 67.6445 83.9359C67.7292 84.2373 68.1948 85.0605 68.1948 85.0605H65.8585C65.8585 85.0605 66.2314 83.7697 66.2983 83.3279C66.4209 82.5191 66.428 80.8633 66.2983 80.0556C66.2122 79.5186 65.8607 78.4758 65.6175 77.9894C65.3661 77.4871 64.7801 76.5212 64.4301 76.0816C64.1694 75.7542 63.2427 74.901 63.2427 74.901H63.5532L64.6714 75.8819L64.9779 74.7278H65.2663L64.8697 76.1344L66.0025 77.7461L66.8198 79.0926C66.8198 79.0926 67.5809 77.4583 67.5334 76.8786C67.5151 76.6551 67.1238 76.0816 67.1238 76.0816H67.4122L67.897 76.6876L68.9813 75.3047L69.179 75.4511H69.1793Z" fill="#263238"/>
<path d="M106.102 77.9171C106.102 77.9171 108.38 78.9858 108.613 76.5512C108.613 76.5512 110.328 74.7092 108.063 74.2224C108.063 74.2224 108.021 72.3172 106.348 73.2698C106.348 73.2698 106.475 70.9411 104.351 71.9011C104.351 71.9011 102.982 70.0205 101.934 71.8991C101.934 71.8991 100.526 71.8937 101.035 73.6718C101.035 73.6718 98.3883 74.7304 99.828 76.0005C99.828 76.0005 99.4842 78.1256 101.388 78.0337C101.388 78.0337 102.813 79.3242 104.062 77.8849C104.062 77.8849 105.264 78.9443 106.103 77.9171H106.102Z" fill="#8787FF"/>
<path opacity="0.3" d="M106.102 77.9171C106.102 77.9171 108.38 78.9858 108.613 76.5512C108.613 76.5512 110.328 74.7092 108.063 74.2224C108.063 74.2224 108.021 72.3172 106.348 73.2698C106.348 73.2698 106.475 70.9411 104.351 71.9011C104.351 71.9011 102.982 70.0205 101.934 71.8991C101.934 71.8991 100.526 71.8937 101.035 73.6718C101.035 73.6718 98.3883 74.7304 99.828 76.0005C99.828 76.0005 99.4842 78.1256 101.388 78.0337C101.388 78.0337 102.813 79.3242 104.062 77.8849C104.062 77.8849 105.264 78.9443 106.103 77.9171H106.102Z" fill="black"/>
<path opacity="0.2" d="M101.134 76.6622C101.134 76.6622 102.729 77.9741 104.127 76.5108C104.127 76.5108 105.473 77.5877 106.411 76.5435C106.411 76.5435 108.476 77.3286 109.222 75.155L109.226 75.1349C109.307 75.8036 108.612 76.5512 108.612 76.5512C108.379 78.9858 106.1 77.9171 106.1 77.9171C105.262 78.9443 104.06 77.8849 104.06 77.8849C102.811 79.3245 101.386 78.0337 101.386 78.0337C99.8081 78.1097 99.7742 76.667 99.8087 76.1692C100.026 76.4746 100.425 76.6932 101.134 76.6622H101.134Z" fill="black"/>
<path d="M106.584 76.3102C106.584 76.3102 105.668 77.4676 105.473 77.9148C105.236 78.4569 105.106 79.5672 105.029 80.2393C104.92 81.1831 104.93 83.1217 105.187 84.0364C105.264 84.3108 105.688 85.0605 105.688 85.0605H103.561C103.561 85.0605 103.9 83.885 103.961 83.4827C104.073 82.7462 104.079 81.2385 103.961 80.5031C103.883 80.0141 103.563 79.0646 103.341 78.6216C103.112 78.1643 102.579 77.2845 102.26 76.8845C102.023 76.5862 101.179 75.8093 101.179 75.8093H101.462L102.48 76.7026L102.759 75.6517H103.022L102.66 76.9325L103.692 78.4002L104.436 79.6262C104.436 79.6262 105.129 78.138 105.086 77.6103C105.07 77.4069 104.713 76.8845 104.713 76.8845H104.976L105.417 77.4363L106.405 76.1771L106.585 76.3105L106.584 76.3102Z" fill="#263238"/>
<path d="M98.1562 74.0795H97.9107C97.9107 71.312 100.162 69.0602 102.93 69.0602V69.3057C100.298 69.3057 98.1562 71.4471 98.1562 74.0795Z" fill="black"/>
<path d="M98.1561 74.0795H97.9106C97.9106 71.4474 95.7692 69.3057 93.1368 69.3057V69.0602C95.9045 69.0602 98.1561 71.3118 98.1561 74.0795Z" fill="#263238"/>
<g opacity="0.3">
<path d="M98.1561 74.0795H97.9106C97.9106 71.4474 95.7692 69.3057 93.1368 69.3057V69.0602C95.9045 69.0602 98.1561 71.3118 98.1561 74.0795Z" fill="white"/>
</g>
<path d="M98.1562 74.0795H97.9107C97.9107 71.312 100.162 69.0602 102.93 69.0602V69.3057C100.298 69.3057 98.1562 71.4471 98.1562 74.0795Z" fill="#263238"/>
<g opacity="0.3">
<path d="M98.1549 74.0795H97.9093C97.9093 71.312 100.161 69.0602 102.929 69.0602V69.3057C100.296 69.3057 98.1549 71.4471 98.1549 74.0795Z" fill="white"/>
</g>
<path d="M102.579 69.4924H105.521C105.521 69.0842 105.176 68.7613 104.768 68.7884L102.843 68.917C102.694 68.9268 102.579 69.0503 102.579 69.1992V69.4924H102.579Z" fill="#263238"/>
<path opacity="0.5" d="M102.579 69.4924H105.521C105.521 69.0842 105.176 68.7613 104.768 68.7884L102.843 68.917C102.694 68.9268 102.579 69.0503 102.579 69.1992V69.4924H102.579Z" fill="white"/>
<path d="M102.865 69.7789H105.234C105.392 69.7789 105.521 69.6506 105.521 69.4924H102.579C102.579 69.6506 102.707 69.7789 102.865 69.7789Z" fill="#8787FF"/>
<path d="M93.4865 69.4924H90.5445C90.5445 69.0842 90.8897 68.7613 91.2971 68.7884L93.2226 68.917C93.3712 68.9268 93.4868 69.0503 93.4868 69.1992V69.4924H93.4865Z" fill="#263238"/>
<path opacity="0.5" d="M93.4865 69.4924H90.5445C90.5445 69.0842 90.8897 68.7613 91.2971 68.7884L93.2226 68.917C93.3712 68.9268 93.4868 69.0503 93.4868 69.1992V69.4924H93.4865Z" fill="white"/>
<path d="M93.2 69.7789H90.8309C90.6727 69.7789 90.5445 69.6506 90.5445 69.4924H93.4865C93.4865 69.6506 93.3582 69.7789 93.2 69.7789Z" fill="#8787FF"/>
<path opacity="0.8" d="M102.865 69.7789H105.234C105.392 69.7789 105.521 69.6506 105.521 69.4924H102.579C102.579 69.6506 102.707 69.7789 102.865 69.7789Z" fill="white"/>
<path opacity="0.8" d="M93.2 69.7789H90.8309C90.6727 69.7789 90.5445 69.6506 90.5445 69.4924H93.4865C93.4865 69.6506 93.3582 69.7789 93.2 69.7789Z" fill="white"/>
<path d="M98.8014 85.1068H97.2645L97.4473 81.4405C97.4549 81.2876 97.5809 81.1676 97.7341 81.1676H98.3321C98.4852 81.1676 98.6112 81.2876 98.6189 81.4405L98.8017 85.1068H98.8014Z" fill="#263238"/>
<path d="M97.9217 73.4947H98.1454C98.2491 73.4947 98.3333 73.5789 98.3333 73.6826V81.4761H97.7341V73.6829C97.7341 73.5792 97.8183 73.495 97.922 73.495L97.9217 73.4947Z" fill="#263238"/>
<path d="M60.66 74.0795H60.4145C60.4145 71.312 62.6661 69.0602 65.4338 69.0602V69.3057C62.8014 69.3057 60.66 71.4471 60.66 74.0795Z" fill="black"/>
<path d="M60.6612 74.0795H60.4158C60.4158 71.4474 58.2744 69.3057 55.642 69.3057V69.0602C58.4097 69.0602 60.6612 71.3118 60.6612 74.0795Z" fill="#263238"/>
<g opacity="0.3">
<path d="M60.6599 74.0795H60.4144C60.4144 71.4474 58.273 69.3057 55.6407 69.3057V69.0602C58.4084 69.0602 60.6599 71.3118 60.6599 74.0795Z" fill="white"/>
</g>
<path d="M60.66 74.0795H60.4145C60.4145 71.312 62.6661 69.0602 65.4338 69.0602V69.3057C62.8014 69.3057 60.66 71.4471 60.66 74.0795Z" fill="#263238"/>
<g opacity="0.3">
<path d="M60.6624 74.0795H60.4169C60.4169 71.312 62.6685 69.0602 65.4362 69.0602V69.3057C62.8038 69.3057 60.6624 71.4471 60.6624 74.0795Z" fill="white"/>
</g>
<path d="M65.0841 69.4924H68.0261C68.0261 69.0842 67.6809 68.7613 67.2735 68.7884L65.3479 68.917C65.1993 68.9268 65.0838 69.0503 65.0838 69.1992L65.0841 69.4924Z" fill="#263238"/>
<path opacity="0.5" d="M65.0841 69.4924H68.0261C68.0261 69.0842 67.6809 68.7613 67.2735 68.7884L65.3479 68.917C65.1993 68.9268 65.0838 69.0503 65.0838 69.1992L65.0841 69.4924Z" fill="white"/>
<path d="M65.3703 69.7789H67.7394C67.8976 69.7789 68.0258 69.6506 68.0258 69.4924H65.0838C65.0838 69.6506 65.2121 69.7789 65.3703 69.7789Z" fill="#8787FF"/>
<path d="M55.9917 69.4924H53.0497C53.0497 69.0842 53.3949 68.7613 53.8023 68.7884L55.7278 68.917C55.8764 68.9268 55.992 69.0503 55.992 69.1992L55.9917 69.4924Z" fill="#263238"/>
<path opacity="0.5" d="M55.9917 69.4924H53.0497C53.0497 69.0842 53.3949 68.7613 53.8023 68.7884L55.7278 68.917C55.8764 68.9268 55.992 69.0503 55.992 69.1992L55.9917 69.4924Z" fill="white"/>
<path d="M55.7052 69.7789H53.3361C53.1779 69.7789 53.0497 69.6506 53.0497 69.4924H55.9917C55.9917 69.6506 55.8634 69.7789 55.7052 69.7789Z" fill="#8787FF"/>
<path opacity="0.8" d="M65.3703 69.7789H67.7394C67.8976 69.7789 68.0258 69.6506 68.0258 69.4924H65.0838C65.0838 69.6506 65.2121 69.7789 65.3703 69.7789Z" fill="white"/>
<path opacity="0.8" d="M55.7052 69.7789H53.3361C53.1779 69.7789 53.0497 69.6506 53.0497 69.4924H55.9917C55.9917 69.6506 55.8634 69.7789 55.7052 69.7789Z" fill="white"/>
<path d="M61.3066 85.1068H59.7697L59.9525 81.4405C59.9601 81.2876 60.0861 81.1676 60.2393 81.1676H60.8373C60.9904 81.1676 61.1164 81.2876 61.1241 81.4405L61.3069 85.1068H61.3066Z" fill="#263238"/>
<path d="M60.4269 73.4947H60.6506C60.7543 73.4947 60.8385 73.5789 60.8385 73.6826V81.4758H60.2393V73.6826C60.2393 73.5789 60.3235 73.4947 60.4271 73.4947H60.4269Z" fill="#263238"/>
<path d="M20.2889 74.0795H20.0434C20.0434 71.3121 22.295 69.0602 25.0627 69.0602V69.3057C22.4303 69.3057 20.2889 71.4471 20.2889 74.0795Z" fill="black"/>
<path d="M20.2888 74.0795H20.0433C20.0433 71.4474 17.9019 69.3057 15.2695 69.3057V69.0602C18.0372 69.0602 20.2888 71.3118 20.2888 74.0795Z" fill="#263238"/>
<g opacity="0.3">
<path d="M20.2893 74.0795H20.0438C20.0438 71.4474 17.9024 69.3057 15.27 69.3057V69.0602C18.0377 69.0602 20.2893 71.3118 20.2893 74.0795Z" fill="white"/>
</g>
<path d="M20.2889 74.0795H20.0434C20.0434 71.3121 22.295 69.0602 25.0627 69.0602V69.3057C22.4303 69.3057 20.2889 71.4471 20.2889 74.0795Z" fill="#263238"/>
<g opacity="0.3">
<path d="M20.288 74.0795H20.0425C20.0425 71.3121 22.2941 69.0602 25.0618 69.0602V69.3057C22.4294 69.3057 20.288 71.4471 20.288 74.0795Z" fill="white"/>
</g>
<path d="M24.7117 69.4924H27.6537C27.6537 69.0842 27.3085 68.7613 26.9011 68.7884L24.9755 68.917C24.8269 68.9269 24.7114 69.0503 24.7114 69.1992V69.4924H24.7117Z" fill="#263238"/>
<path opacity="0.5" d="M24.7117 69.4924H27.6537C27.6537 69.0842 27.3085 68.7613 26.9011 68.7884L24.9755 68.917C24.8269 68.9269 24.7114 69.0503 24.7114 69.1992V69.4924H24.7117Z" fill="white"/>
<path d="M24.9978 69.7789H27.3669C27.5251 69.7789 27.6534 69.6506 27.6534 69.4924H24.7114C24.7114 69.6506 24.8396 69.7789 24.9978 69.7789Z" fill="#8787FF"/>
<path d="M15.6193 69.4925H12.6772C12.6772 69.0842 13.0225 68.7613 13.4298 68.7885L15.3554 68.917C15.504 68.9269 15.6195 69.0503 15.6195 69.1992L15.6193 69.4925Z" fill="#263238"/>
<path opacity="0.5" d="M15.6193 69.4925H12.6772C12.6772 69.0842 13.0225 68.7613 13.4298 68.7885L15.3554 68.917C15.504 68.9269 15.6195 69.0503 15.6195 69.1992L15.6193 69.4925Z" fill="white"/>
<path d="M15.3328 69.7789H12.9637C12.8055 69.7789 12.6772 69.6506 12.6772 69.4924H15.6193C15.6193 69.6506 15.491 69.7789 15.3328 69.7789Z" fill="#8787FF"/>
<path opacity="0.8" d="M24.9978 69.7789H27.3669C27.5251 69.7789 27.6534 69.6506 27.6534 69.4924H24.7114C24.7114 69.6506 24.8396 69.7789 24.9978 69.7789Z" fill="white"/>
<path opacity="0.8" d="M15.3328 69.7789H12.9637C12.8055 69.7789 12.6772 69.6506 12.6772 69.4924H15.6193C15.6193 69.6506 15.491 69.7789 15.3328 69.7789Z" fill="white"/>
<path d="M20.9342 85.1068H19.3973L19.5801 81.4405C19.5877 81.2876 19.7137 81.1676 19.8668 81.1676H20.4649C20.618 81.1676 20.744 81.2876 20.7517 81.4405L20.9342 85.1068Z" fill="#263238"/>
<path d="M20.0544 73.4947H20.2782C20.3819 73.4947 20.4661 73.5789 20.4661 73.6826V81.4758H19.8669V73.6826C19.8669 73.5789 19.9508 73.4947 20.0544 73.4947Z" fill="#263238"/>
<path d="M0.609666 84.9352H5.50861C5.65353 84.9352 5.77106 85.0527 5.77106 85.1976V85.501H0.3475V85.1976C0.3475 85.0527 0.46474 84.9352 0.609666 84.9352Z" fill="#8787FF"/>
<path opacity="0.2" d="M0.609666 84.9352H5.50861C5.65353 84.9352 5.77106 85.0527 5.77106 85.1976V85.501H0.3475V85.1976C0.3475 85.0527 0.46474 84.9352 0.609666 84.9352Z" fill="black"/>
<path d="M6.03341 84.9351H10.9323C11.0773 84.9351 11.1948 85.0526 11.1948 85.1976V85.501H5.77124V85.1976C5.77124 85.0526 5.88848 84.9351 6.03341 84.9351Z" fill="#8787FF"/>
<path opacity="0.6" d="M6.03341 84.9351H10.9323C11.0773 84.9351 11.1948 85.0526 11.1948 85.1976V85.501H5.77124V85.1976C5.77124 85.0526 5.88848 84.9351 6.03341 84.9351Z" fill="white"/>
<path d="M11.4887 84.9351H16.3877C16.5326 84.9351 16.6501 85.0526 16.6501 85.1976V85.501H11.2266V85.1976C11.2266 85.0526 11.3438 84.9351 11.4887 84.9351Z" fill="#8787FF"/>
<path opacity="0.2" d="M11.4887 84.9351H16.3877C16.5326 84.9351 16.6501 85.0526 16.6501 85.1976V85.501H11.2266V85.1976C11.2266 85.0526 11.3438 84.9351 11.4887 84.9351Z" fill="black"/>
<path d="M16.9128 84.9351H21.8118C21.9567 84.9351 22.0742 85.0527 22.0742 85.1976V85.501H16.6507V85.1976C16.6507 85.0527 16.7679 84.9351 16.9128 84.9351Z" fill="#8787FF"/>
<path opacity="0.6" d="M16.9128 84.9351H21.8118C21.9567 84.9351 22.0742 85.0527 22.0742 85.1976V85.501H16.6507V85.1976C16.6507 85.0527 16.7679 84.9351 16.9128 84.9351Z" fill="white"/>
<path d="M22.3627 84.9351H27.2617C27.4066 84.9351 27.5241 85.0526 27.5241 85.1976V85.501H22.1006V85.1976C22.1006 85.0526 22.2178 84.9351 22.3627 84.9351Z" fill="#8787FF"/>
<path opacity="0.2" d="M22.3627 84.9351H27.2617C27.4066 84.9351 27.5241 85.0526 27.5241 85.1976V85.501H22.1006V85.1976C22.1006 85.0526 22.2178 84.9351 22.3627 84.9351Z" fill="black"/>
<path d="M27.7869 84.9351H32.6858C32.8307 84.9351 32.9483 85.0527 32.9483 85.1976V85.501H27.5247V85.1976C27.5247 85.0527 27.6419 84.9351 27.7869 84.9351Z" fill="#8787FF"/>
<path opacity="0.6" d="M27.7869 84.9351H32.6858C32.8307 84.9351 32.9483 85.0527 32.9483 85.1976V85.501H27.5247V85.1976C27.5247 85.0527 27.6419 84.9351 27.7869 84.9351Z" fill="white"/>
<path d="M33.2416 84.9351H38.1405C38.2854 84.9351 38.403 85.0527 38.403 85.1976V85.501H32.9794V85.1976C32.9794 85.0527 33.0966 84.9351 33.2416 84.9351Z" fill="#8787FF"/>
<path opacity="0.2" d="M33.2416 84.9351H38.1405C38.2854 84.9351 38.403 85.0527 38.403 85.1976V85.501H32.9794V85.1976C32.9794 85.0527 33.0966 84.9351 33.2416 84.9351Z" fill="black"/>
<path d="M38.6655 84.9351H43.5644C43.7094 84.9351 43.8269 85.0527 43.8269 85.1976V85.501H38.4033V85.1976C38.4033 85.0527 38.5206 84.9351 38.6655 84.9351Z" fill="#8787FF"/>
<path opacity="0.6" d="M38.6655 84.9351H43.5644C43.7094 84.9351 43.8269 85.0527 43.8269 85.1976V85.501H38.4033V85.1976C38.4033 85.0527 38.5206 84.9351 38.6655 84.9351Z" fill="white"/>
<path d="M44.1195 84.9351H49.0185C49.1634 84.9351 49.2809 85.0527 49.2809 85.1976V85.501H43.8574V85.1976C43.8574 85.0527 43.9746 84.9351 44.1195 84.9351Z" fill="#8787FF"/>
<path opacity="0.2" d="M44.1195 84.9351H49.0185C49.1634 84.9351 49.2809 85.0527 49.2809 85.1976V85.501H43.8574V85.1976C43.8574 85.0527 43.9746 84.9351 44.1195 84.9351Z" fill="black"/>
<path d="M49.5435 84.9351H54.4424C54.5873 84.9351 54.7049 85.0527 54.7049 85.1976V85.501H49.2813V85.1976C49.2813 85.0527 49.3988 84.9351 49.5438 84.9351H49.5435Z" fill="#8787FF"/>
<path opacity="0.6" d="M49.5435 84.9351H54.4424C54.5873 84.9351 54.7049 85.0527 54.7049 85.1976V85.501H49.2813V85.1976C49.2813 85.0527 49.3988 84.9351 49.5438 84.9351H49.5435Z" fill="white"/>
<path d="M54.9968 84.9351H59.8958C60.0407 84.9351 60.1582 85.0527 60.1582 85.1976V85.501H54.7347V85.1976C54.7347 85.0527 54.8519 84.9351 54.9968 84.9351Z" fill="#8787FF"/>
<path opacity="0.2" d="M54.9968 84.9351H59.8958C60.0407 84.9351 60.1582 85.0527 60.1582 85.1976V85.501H54.7347V85.1976C54.7347 85.0527 54.8519 84.9351 54.9968 84.9351Z" fill="black"/>
<path d="M60.4208 84.9351H65.3197C65.4646 84.9351 65.5822 85.0527 65.5822 85.1976V85.501H60.1586V85.1976C60.1586 85.0527 60.2761 84.9351 60.4211 84.9351H60.4208Z" fill="#8787FF"/>
<path opacity="0.6" d="M60.4208 84.9351H65.3197C65.4646 84.9351 65.5822 85.0527 65.5822 85.1976V85.501H60.1586V85.1976C60.1586 85.0527 60.2761 84.9351 60.4211 84.9351H60.4208Z" fill="white"/>
<path d="M65.8732 84.9351H70.7721C70.917 84.9351 71.0346 85.0526 71.0346 85.1976V85.501H65.611V85.1976C65.611 85.0526 65.7283 84.9351 65.8732 84.9351Z" fill="#8787FF"/>
<path opacity="0.2" d="M65.8732 84.9351H70.7721C70.917 84.9351 71.0346 85.0526 71.0346 85.1976V85.501H65.611V85.1976C65.611 85.0526 65.7283 84.9351 65.8732 84.9351Z" fill="black"/>
<path d="M71.2971 84.9351H76.1961C76.341 84.9351 76.4585 85.0527 76.4585 85.1976V85.501H71.0349V85.1976C71.0349 85.0527 71.1525 84.9351 71.2974 84.9351H71.2971Z" fill="#8787FF"/>
<path opacity="0.6" d="M71.2971 84.9351H76.1961C76.341 84.9351 76.4585 85.0527 76.4585 85.1976V85.501H71.0349V85.1976C71.0349 85.0527 71.1525 84.9351 71.2974 84.9351H71.2971Z" fill="white"/>
<path d="M76.7495 84.9351H81.6485C81.7934 84.9351 81.9109 85.0527 81.9109 85.1976V85.501H76.4874V85.1976C76.4874 85.0527 76.6049 84.9351 76.7498 84.9351H76.7495Z" fill="#8787FF"/>
<path opacity="0.2" d="M76.7495 84.9351H81.6485C81.7934 84.9351 81.9109 85.0527 81.9109 85.1976V85.501H76.4874V85.1976C76.4874 85.0527 76.6049 84.9351 76.7498 84.9351H76.7495Z" fill="black"/>
<path d="M82.1735 84.9351H87.0724C87.2173 84.9351 87.3349 85.0527 87.3349 85.1976V85.501H81.9113V85.1976C81.9113 85.0527 82.0288 84.9351 82.1738 84.9351H82.1735Z" fill="#8787FF"/>
<path opacity="0.6" d="M82.1735 84.9351H87.0724C87.2173 84.9351 87.3349 85.0527 87.3349 85.1976V85.501H81.9113V85.1976C81.9113 85.0527 82.0288 84.9351 82.1738 84.9351H82.1735Z" fill="white"/>
<path d="M87.6291 84.9351H92.528C92.6729 84.9351 92.7905 85.0526 92.7905 85.1976V85.501H87.3669V85.1976C87.3669 85.0526 87.4844 84.9351 87.6294 84.9351H87.6291Z" fill="#8787FF"/>
<path opacity="0.2" d="M87.6291 84.9351H92.528C92.6729 84.9351 92.7905 85.0526 92.7905 85.1976V85.501H87.3669V85.1976C87.3669 85.0526 87.4844 84.9351 87.6294 84.9351H87.6291Z" fill="black"/>
<path d="M93.0531 84.9351H97.952C98.0969 84.9351 98.2145 85.0527 98.2145 85.1976V85.501H92.7909V85.1976C92.7909 85.0527 92.9084 84.9351 93.0534 84.9351H93.0531Z" fill="#8787FF"/>
<path opacity="0.6" d="M93.0531 84.9351H97.952C98.0969 84.9351 98.2145 85.0527 98.2145 85.1976V85.501H92.7909V85.1976C92.7909 85.0527 92.9084 84.9351 93.0534 84.9351H93.0531Z" fill="white"/>
<path d="M98.5057 84.9351H103.405C103.55 84.9351 103.667 85.0526 103.667 85.1976V85.501H98.2435V85.1976C98.2435 85.0526 98.361 84.9351 98.5059 84.9351H98.5057Z" fill="#8787FF"/>
<path opacity="0.2" d="M98.5057 84.9351H103.405C103.55 84.9351 103.667 85.0526 103.667 85.1976V85.501H98.2435V85.1976C98.2435 85.0526 98.361 84.9351 98.5059 84.9351H98.5057Z" fill="black"/>
<path d="M103.929 84.9351H108.828C108.973 84.9351 109.091 85.0527 109.091 85.1976V85.501H103.667V85.1976C103.667 85.0527 103.785 84.9351 103.93 84.9351H103.929Z" fill="#8787FF"/>
<path opacity="0.6" d="M103.929 84.9351H108.828C108.973 84.9351 109.091 85.0527 109.091 85.1976V85.501H103.667V85.1976C103.667 85.0527 103.785 84.9351 103.93 84.9351H103.929Z" fill="white"/>
<path d="M98.0907 85.8476C99.0378 85.8476 99.8055 85.0799 99.8055 84.1328C99.8055 83.1858 99.0378 82.418 98.0907 82.418C97.1437 82.418 96.3759 83.1858 96.3759 84.1328C96.3759 85.0799 97.1437 85.8476 98.0907 85.8476Z" fill="black"/>
<path d="M100.344 79.9351C100.326 79.6068 100.186 79.2974 99.9509 79.0675L98.5697 77.7182C98.3299 77.484 98.0095 77.3504 97.6742 77.3448L93.7536 77.2798V77.3292L94.6875 77.3448C95.0229 77.3504 95.3432 77.484 95.5831 77.7182L96.9643 79.0675C97.1993 79.2972 97.3397 79.6068 97.3575 79.9351L97.5327 83.1511C97.5586 83.8636 97.0725 84.4693 96.4117 84.6289L99.0291 84.6716C99.8695 84.6851 100.55 83.9913 100.519 83.1514L100.344 79.9353L100.344 79.9351Z" fill="#8787FF"/>
<path opacity="0.7" d="M100.344 79.9351C100.326 79.6068 100.186 79.2974 99.9509 79.0675L98.5697 77.7182C98.3299 77.484 98.0095 77.3504 97.6742 77.3448L93.7536 77.2798V77.3292L94.6875 77.3448C95.0229 77.3504 95.3432 77.484 95.5831 77.7182L96.9643 79.0675C97.1993 79.2972 97.3397 79.6068 97.3575 79.9351L97.5327 83.1511C97.5586 83.8636 97.0725 84.4693 96.4117 84.6289L99.0291 84.6716C99.8695 84.6851 100.55 83.9913 100.519 83.1514L100.344 79.9353L100.344 79.9351Z" fill="black"/>
<path d="M97.8471 79.8788L99.8989 79.9105C99.9941 79.9119 100.063 79.822 100.041 79.7297C99.997 79.5514 99.9043 79.3881 99.7707 79.2576L98.3779 77.8968C98.1968 77.7196 97.9547 77.6188 97.7013 77.6145L96.3235 77.5916C96.2063 77.5897 96.147 77.7321 96.2309 77.814L97.2228 78.783C97.4909 79.0449 97.6606 79.387 97.7078 79.7562C97.7169 79.826 97.777 79.8777 97.8474 79.8788H97.8471Z" fill="white"/>
<path d="M100.449 81.875L100.362 80.2851H100.08C99.9699 80.2851 99.8832 80.378 99.8908 80.4874L99.9679 81.6075C99.9784 81.7581 100.104 81.875 100.255 81.875H100.449Z" fill="#8787FF"/>
<path opacity="0.3" d="M100.449 81.875L100.362 80.2851H100.08C99.9699 80.2851 99.8832 80.378 99.8908 80.4874L99.9679 81.6075C99.9784 81.7581 100.104 81.875 100.255 81.875H100.449Z" fill="white"/>
<path d="M100.5 83.5554H97.9459C97.8568 83.5554 97.7846 83.6276 97.7846 83.7167V84.0774C97.7846 84.1665 97.8568 84.2387 97.9459 84.2387H100.5C100.589 84.2387 100.662 84.1665 100.662 84.0774V83.7167C100.662 83.6276 100.589 83.5554 100.5 83.5554Z" fill="#8787FF"/>
<path d="M85.48 84.1328C85.48 85.0801 84.7121 85.8476 83.7651 85.8476C82.8182 85.8476 82.0503 85.0798 82.0503 84.1328C82.0503 83.1859 82.8182 82.418 83.7651 82.418C84.7121 82.418 85.48 83.1859 85.48 84.1328Z" fill="black"/>
<path d="M96.9901 79.02C97.2271 79.2517 97.3687 79.5638 97.3868 79.8949L97.5633 83.1381C97.5941 83.9853 96.9082 84.6851 96.0607 84.6713L78.0034 84.3777C77.5732 84.3707 77.2387 84.0017 77.2737 83.5729L77.3661 82.4429C77.4071 81.9411 77.6441 81.4758 78.026 81.1476L78.1758 81.019C78.3958 80.83 78.6557 80.6933 78.9363 80.6196L81.7786 79.8715L84.6912 78.1239C85.7591 77.4832 86.9849 77.1546 88.2299 77.1752L94.6947 77.2823C95.0329 77.288 95.3558 77.4227 95.5979 77.6589L96.9907 79.0197L96.9901 79.02Z" fill="#8787FF"/>
<path opacity="0.3" d="M96.9901 79.02C97.2271 79.2517 97.3687 79.5638 97.3868 79.8949L97.5633 83.1381C97.5941 83.9853 96.9082 84.6851 96.0607 84.6713L78.0034 84.3777C77.5732 84.3707 77.2387 84.0017 77.2737 83.5729L77.3661 82.4429C77.4071 81.9411 77.6441 81.4758 78.026 81.1476L78.1758 81.019C78.3958 80.83 78.6557 80.6933 78.9363 80.6196L81.7786 79.8715L84.6912 78.1239C85.7591 77.4832 86.9849 77.1546 88.2299 77.1752L94.6947 77.2823C95.0329 77.288 95.3558 77.4227 95.5979 77.6589L96.9907 79.0197L96.9901 79.02Z" fill="black"/>
<path d="M82.7589 84.1328C82.7589 83.0254 81.8611 82.1273 80.7534 82.1273C79.6457 82.1273 78.7478 83.0251 78.7478 84.1328C78.7478 84.2204 78.7552 84.3057 78.7662 84.3902L82.7303 84.4546C82.7473 84.3495 82.7586 84.2427 82.7586 84.1328H82.7589Z" fill="black"/>
<path d="M95.0787 82.1276C93.9712 82.1276 93.0734 83.0254 93.0734 84.1331C93.0734 84.3029 93.0969 84.4667 93.1364 84.6241L96.0607 84.6715C96.4525 84.678 96.8085 84.5306 97.0763 84.2879C97.0802 84.2365 97.0842 84.1854 97.0842 84.1331C97.0842 83.0257 96.1864 82.1276 95.0787 82.1276Z" fill="black"/>
<g opacity="0.9">
<path d="M96.0293 79.5667C95.9923 79.4743 95.948 79.3879 95.8988 79.3365L94.59 77.9756C94.438 77.8174 94.2374 77.7284 94.025 77.7248L89.6393 77.6474C89.5326 77.6454 89.4416 77.725 89.4294 77.8313L89.2102 79.7308C89.1961 79.854 89.2924 79.9622 89.4164 79.9622H95.7604C95.9647 79.9622 96.1056 79.756 96.0299 79.5664L96.0293 79.5667Z" fill="white"/>
<path d="M88.9799 77.8637C88.994 77.742 88.8999 77.6346 88.7773 77.6324L87.9484 77.6177C87.916 77.6171 87.8835 77.6168 87.8513 77.6168C86.7913 77.6168 85.7537 77.9225 84.8434 78.5033L83.1066 79.6122C82.9464 79.7144 83.019 79.9622 83.2088 79.9622H88.5524C88.6578 79.9622 88.7465 79.8831 88.7587 79.7783L88.9796 77.8635L88.9799 77.8637Z" fill="white"/>
</g>
<path d="M77.1683 83.0887L77.1397 83.4958C77.1298 83.6365 77.2411 83.756 77.3821 83.756H77.8584C77.9827 83.756 78.0873 83.6622 78.1003 83.5384L78.1432 83.1313C78.1582 82.9878 78.0457 82.8629 77.9014 82.8629H77.4107C77.283 82.8629 77.177 82.9615 77.1683 83.089V83.0887Z" fill="#8787FF"/>
<path d="M77.6056 82.2443L77.7316 81.8725C77.7994 81.6725 77.9743 81.5278 78.1834 81.4987L78.6568 81.4329C78.7978 81.4134 78.9083 81.5521 78.8577 81.6852L78.6201 82.3089C78.5947 82.3756 78.5337 82.422 78.4625 82.4287L77.8006 82.4906C77.6655 82.5033 77.5621 82.3728 77.6056 82.2443Z" fill="white"/>
<path d="M80.753 85.8476C81.7001 85.8476 82.4678 85.0799 82.4678 84.1328C82.4678 83.1858 81.7001 82.418 80.753 82.418C79.8059 82.418 79.0382 83.1858 79.0382 84.1328C79.0382 85.0799 79.8059 85.8476 80.753 85.8476Z" fill="#263238"/>
<path opacity="0.7" d="M81.6294 84.1328C81.6294 84.6164 81.2373 85.0086 80.7537 85.0086C80.27 85.0086 79.8779 84.6164 79.8779 84.1328C79.8779 83.6491 80.27 83.257 80.7537 83.257C81.2373 83.257 81.6294 83.6491 81.6294 84.1328Z" fill="white"/>
<path d="M96.7934 84.1328C96.7934 85.0801 96.0256 85.8476 95.0786 85.8476C94.1317 85.8476 93.3638 85.0798 93.3638 84.1328C93.3638 83.1859 94.1317 82.418 95.0786 82.418C96.0256 82.418 96.7934 83.1859 96.7934 84.1328Z" fill="#263238"/>
<path opacity="0.7" d="M95.955 84.1328C95.955 84.6164 95.5629 85.0086 95.0793 85.0086C94.5956 85.0086 94.2035 84.6164 94.2035 84.1328C94.2035 83.6491 94.5956 83.257 95.0793 83.257C95.5629 83.257 95.955 83.6491 95.955 84.1328Z" fill="white"/>
<path d="M97.8855 81.8513H97.175C97.0227 81.8513 96.8964 81.7335 96.886 81.5815L96.808 80.452C96.8004 80.3418 96.888 80.248 96.9984 80.248H97.7089C97.8612 80.248 97.9875 80.3658 97.9979 80.5178L98.0759 81.6473C98.0835 81.7575 97.9959 81.8513 97.8855 81.8513Z" fill="#8787FF"/>
<path opacity="0.3" d="M97.4612 81.8513H97.8858C97.9962 81.8513 98.0838 81.7575 98.0762 81.6473L97.9982 80.5178C97.9878 80.3658 97.8615 80.248 97.7092 80.248H97.3739L97.4612 81.8513Z" fill="white"/>
<path d="M45.051 84.1328C45.051 85.0801 44.2831 85.8476 43.3362 85.8476C42.3892 85.8476 41.6214 85.0798 41.6214 84.1328C41.6214 83.1859 42.3892 82.418 43.3362 82.418C44.2831 82.418 45.051 83.1859 45.051 84.1328Z" fill="black"/>
<path d="M45.5896 79.9351C45.5718 79.6068 45.4314 79.2974 45.1963 79.0675L43.8151 77.7182C43.5753 77.484 43.2549 77.3504 42.9196 77.3448L38.999 77.2798V77.3292L39.9329 77.3448C40.2683 77.3504 40.5886 77.484 40.8285 77.7182L42.2097 79.0675C42.4447 79.2972 42.5851 79.6068 42.6029 79.9351L42.7781 83.1511C42.8041 83.8636 42.3181 84.4693 41.6574 84.6289L44.2748 84.6716C45.1152 84.6851 45.7952 83.9913 45.7647 83.1514L45.5896 79.9351Z" fill="black"/>
<path d="M43.0928 79.8788L45.1446 79.9105C45.2398 79.9119 45.309 79.822 45.2862 79.7297C45.2424 79.5514 45.1497 79.3881 45.0161 79.2576L43.6233 77.8968C43.4422 77.7196 43.2001 77.6188 42.9467 77.6145L41.5689 77.5916C41.4517 77.5897 41.3924 77.7321 41.4763 77.814L42.4682 78.783C42.7365 79.0449 42.9061 79.387 42.9532 79.7562C42.962 79.826 43.0224 79.8777 43.0928 79.8788Z" fill="white"/>
<path d="M45.6941 81.875L45.6077 80.2851H45.3249C45.2153 80.2851 45.1286 80.378 45.1362 80.4874L45.2136 81.6075C45.224 81.7581 45.3492 81.875 45.5003 81.875H45.6947H45.6941Z" fill="#8787FF"/>
<path opacity="0.3" d="M45.6941 81.875L45.6077 80.2851H45.3249C45.2153 80.2851 45.1286 80.378 45.1362 80.4874L45.2136 81.6075C45.224 81.7581 45.3492 81.875 45.5003 81.875H45.6947H45.6941Z" fill="white"/>
<path d="M45.7457 83.5554H43.1913C43.1022 83.5554 43.03 83.6276 43.03 83.7167V84.0774C43.03 84.1665 43.1022 84.2387 43.1913 84.2387H45.7457C45.8348 84.2387 45.907 84.1665 45.907 84.0774V83.7167C45.907 83.6276 45.8348 83.5554 45.7457 83.5554Z" fill="#8787FF"/>
<path d="M29.0105 85.8476C29.9576 85.8476 30.7254 85.0799 30.7254 84.1328C30.7254 83.1858 29.9576 82.418 29.0105 82.418C28.0635 82.418 27.2957 83.1858 27.2957 84.1328C27.2957 85.0799 28.0635 85.8476 29.0105 85.8476Z" fill="black"/>
<path d="M42.2355 79.02C42.4725 79.2517 42.6141 79.5638 42.6322 79.8949L42.8087 83.1381C42.8395 83.9853 42.1536 84.6851 41.3061 84.6713L23.2488 84.3777C22.8189 84.3707 22.4841 84.0017 22.5191 83.5729L22.6115 82.4429C22.6525 81.9411 22.8895 81.4758 23.2714 81.1476L23.4212 81.019C23.6412 80.83 23.9011 80.6933 24.1817 80.6196L27.024 79.8715L29.9366 78.1239C31.0045 77.4832 32.2303 77.1546 33.4753 77.1752L39.9399 77.2823C40.278 77.288 40.6012 77.4227 40.8431 77.6589L42.2358 79.0197L42.2355 79.02Z" fill="#263238"/>
<path d="M28.0043 84.1328C28.0043 83.0254 27.1065 82.1273 25.9988 82.1273C24.8911 82.1273 23.9933 83.0251 23.9933 84.1328C23.9933 84.2204 24.0006 84.3057 24.0116 84.3902L27.9757 84.4546C27.9927 84.3495 28.004 84.2427 28.004 84.1328H28.0043Z" fill="black"/>
<path d="M40.3244 82.1276C39.217 82.1276 38.3189 83.0254 38.3189 84.1331C38.3189 84.3029 38.3423 84.4667 38.3819 84.6241L41.3061 84.6715C41.6979 84.678 42.0539 84.5306 42.3217 84.2879C42.3257 84.2365 42.3296 84.1854 42.3296 84.1331C42.3296 83.0257 41.4321 82.1276 40.3244 82.1276Z" fill="black"/>
<g opacity="0.9">
<path d="M41.2748 79.5667C41.2378 79.4743 41.1934 79.3879 41.1443 79.3365L39.8354 77.9756C39.6834 77.8174 39.4828 77.7284 39.2704 77.7248L34.8848 77.6474C34.778 77.6454 34.687 77.725 34.6749 77.8313L34.4556 79.7308C34.4415 79.854 34.5378 79.9622 34.6619 79.9622H41.0058C41.2101 79.9622 41.351 79.756 41.2751 79.5664L41.2748 79.5667Z" fill="white"/>
<path d="M34.2254 77.8637C34.2395 77.742 34.1454 77.6346 34.0228 77.6324L33.194 77.6177C33.1615 77.6171 33.129 77.6168 33.0968 77.6168C32.0368 77.6168 30.9989 77.9225 30.0889 78.5033L28.3521 79.6122C28.1919 79.7144 28.2642 79.9622 28.4543 79.9622H33.7979C33.9033 79.9622 33.992 79.8831 34.0042 79.7783L34.2251 77.8635L34.2254 77.8637Z" fill="white"/>
</g>
<path d="M22.4137 83.0887L22.3851 83.4958C22.3752 83.6365 22.4866 83.756 22.6275 83.756H23.1038C23.2281 83.756 23.3327 83.6622 23.3457 83.5384L23.3886 83.1313C23.4036 82.9878 23.2911 82.8629 23.1468 82.8629H22.6561C22.5284 82.8629 22.4224 82.9615 22.4137 83.089V83.0887Z" fill="#8787FF"/>
<path d="M22.851 82.2443L22.977 81.8725C23.0448 81.6725 23.2197 81.5278 23.4288 81.4987L23.9023 81.4329C24.0432 81.4134 24.1537 81.5521 24.1031 81.6852L23.8655 82.3089C23.8401 82.3756 23.7791 82.422 23.7079 82.4287L23.046 82.4906C22.9109 82.5033 22.8075 82.3728 22.851 82.2443Z" fill="white"/>
<path d="M25.9984 85.8476C26.9455 85.8476 27.7132 85.0799 27.7132 84.1328C27.7132 83.1858 26.9455 82.418 25.9984 82.418C25.0514 82.418 24.2836 83.1858 24.2836 84.1328C24.2836 85.0799 25.0514 85.8476 25.9984 85.8476Z" fill="#8787FF"/>
<path opacity="0.7" d="M26.8748 84.1328C26.8748 84.6164 26.4827 85.0086 25.9991 85.0086C25.5154 85.0086 25.1233 84.6164 25.1233 84.1328C25.1233 83.6491 25.5154 83.257 25.9991 83.257C26.4827 83.257 26.8748 83.6491 26.8748 84.1328Z" fill="white"/>
<path d="M40.324 85.8476C41.2711 85.8476 42.0389 85.0799 42.0389 84.1328C42.0389 83.1858 41.2711 82.418 40.324 82.418C39.377 82.418 38.6092 83.1858 38.6092 84.1328C38.6092 85.0799 39.377 85.8476 40.324 85.8476Z" fill="#8787FF"/>
<path opacity="0.7" d="M41.2004 84.1328C41.2004 84.6164 40.8083 85.0086 40.3247 85.0086C39.841 85.0086 39.4489 84.6164 39.4489 84.1328C39.4489 83.6491 39.841 83.257 40.3247 83.257C40.8083 83.257 41.2004 83.6491 41.2004 84.1328Z" fill="white"/>
<path d="M43.1309 81.8513H42.4204C42.2681 81.8513 42.1418 81.7335 42.1314 81.5815L42.0534 80.452C42.0458 80.3418 42.1334 80.248 42.2438 80.248H42.9543C43.1066 80.248 43.2329 80.3658 43.2433 80.5178L43.3213 81.6473C43.3289 81.7575 43.2416 81.8513 43.1309 81.8513Z" fill="#8787FF"/>
<path opacity="0.3" d="M42.7066 81.8513H43.1312C43.2417 81.8513 43.3292 81.7575 43.3216 81.6473L43.2436 80.5178C43.2332 80.3658 43.1069 80.248 42.9546 80.248H42.6193L42.7066 81.8513Z" fill="white"/>
</svg>
