<svg width="113" height="79" viewBox="0 0 113 79" fill="none" xmlns="http://www.w3.org/2000/svg">
<path d="M72.8866 41.8773H71.5024V44.0761H72.8866V41.8773Z" fill="#263238"/>
<path d="M4.40164 26.9875H7.53383V28.2254H7.02366V32.8169H4.91181V28.2254H4.40164V26.9875Z" fill="#8787FF"/>
<g opacity="0.2">
<path d="M4.40164 26.9875H7.53383V28.2254H7.02366V32.8169H4.91181V28.2254H4.40164V26.9875Z" fill="black"/>
</g>
<path d="M18.8405 22.9023L29.9733 40.0265V77.4862H7.71179V40.0265L18.8405 22.9023Z" fill="#8787FF"/>
<path opacity="0.8" d="M18.8405 22.9023L29.9733 40.0265V77.4862H7.71179V40.0265L18.8405 22.9023Z" fill="white"/>
<path d="M10.7095 23.5983L12.4061 21H18.8406L31.2467 40.0265H24.8083H10.7095V23.5983Z" fill="#8787FF"/>
<path opacity="0.2" d="M10.7095 23.5983L12.4061 21H18.8406L31.2467 40.0265H24.8083H10.7095V23.5983Z" fill="black"/>
<path d="M24.8083 40.0265L12.4061 21L0 40.0265H24.8083Z" fill="#8787FF"/>
<path d="M12.4061 22.9023L23.5349 40.0265V77.4862H1.27344V40.0265L12.4061 22.9023Z" fill="#8787FF"/>
<path opacity="0.5" d="M12.4061 22.9023L23.5349 40.0265V77.4862H1.27344V40.0265L12.4061 22.9023Z" fill="white"/>
<path d="M15.0282 30.6813H9.78412V36.6174H15.0282V30.6813Z" fill="#8787FF"/>
<path opacity="0.7" d="M15.0282 30.6813H9.78412V36.6174H15.0282V30.6813Z" fill="white"/>
<path d="M14.3242 31.318H12.5327V33.5169H14.3242V31.318Z" fill="#263238"/>
<path d="M12.2756 31.318H10.4841V33.5169H12.2756V31.318Z" fill="#263238"/>
<path d="M14.3242 33.7779H12.5327V35.9768H14.3242V33.7779Z" fill="#263238"/>
<path d="M12.2756 33.7779H10.4841V35.9768H12.2756V33.7779Z" fill="#263238"/>
<path d="M18.8406 41.1971H5.96777V49.6128H18.8406V41.1971Z" fill="#8787FF"/>
<path opacity="0.7" d="M18.8406 41.1971H5.96777V49.6128H18.8406V41.1971Z" fill="white"/>
<path d="M17.9982 42.1027H15.6253V45.223H17.9982V42.1027Z" fill="#263238"/>
<path d="M15.2852 42.1027H12.9124V45.223H15.2852V42.1027Z" fill="#263238"/>
<path d="M17.9982 45.5869H15.6253V48.7072H17.9982V45.5869Z" fill="#263238"/>
<path d="M15.2852 45.5869H12.9124V48.7072H15.2852V45.5869Z" fill="#263238"/>
<path d="M21.5496 41.5609H18.8405V49.249H21.5496V41.5609Z" fill="#8787FF"/>
<path d="M5.96775 41.5609H3.25873V49.249H5.96775V41.5609Z" fill="#8787FF"/>
<path d="M11.8999 42.1027H9.52704V45.223H11.8999V42.1027Z" fill="#263238"/>
<path d="M9.18693 42.1027H6.81406V45.223H9.18693V42.1027Z" fill="#263238"/>
<path d="M11.8999 45.5869H9.52704V48.7072H11.8999V45.5869Z" fill="#263238"/>
<path d="M9.18693 45.5869H6.81406V48.7072H9.18693V45.5869Z" fill="#263238"/>
<path d="M18.8406 53.8642H5.96777V62.28H18.8406V53.8642Z" fill="#8787FF"/>
<path opacity="0.7" d="M18.8406 53.8642H5.96777V62.28H18.8406V53.8642Z" fill="white"/>
<path d="M17.9982 54.7699H15.6253V57.8902H17.9982V54.7699Z" fill="#263238"/>
<path d="M15.2852 54.7699H12.9124V57.8902H15.2852V54.7699Z" fill="#263238"/>
<path d="M17.9982 58.2541H15.6253V61.3744H17.9982V58.2541Z" fill="#263238"/>
<path d="M15.2852 58.2541H12.9124V61.3744H15.2852V58.2541Z" fill="#263238"/>
<path d="M21.5496 54.2281H18.8405V61.9162H21.5496V54.2281Z" fill="#8787FF"/>
<path d="M5.96775 54.2281H3.25873V61.9162H5.96775V54.2281Z" fill="#8787FF"/>
<path d="M11.8999 54.7699H9.52704V57.8902H11.8999V54.7699Z" fill="#263238"/>
<path d="M9.18693 54.7699H6.81406V57.8902H9.18693V54.7699Z" fill="#263238"/>
<path d="M11.8999 58.2541H9.52704V61.3744H11.8999V58.2541Z" fill="#263238"/>
<path d="M9.18693 58.2541H6.81406V61.3744H9.18693V58.2541Z" fill="#263238"/>
<path d="M8.53443 77.4862H16.27V66.6975H8.53443V77.4862Z" fill="#8787FF"/>
<path opacity="0.7" d="M8.53443 77.4862H16.27V66.6975H8.53443V77.4862Z" fill="white"/>
<path d="M9.01686 64.4354H15.7914L17.4405 67.0772H7.37167L9.01686 64.4354Z" fill="#8787FF"/>
<path d="M14.9214 68.5286H12.5525V71.3246H14.9214V68.5286Z" fill="#263238"/>
<path d="M12.2559 68.5286H9.88696V71.3246H12.2559V68.5286Z" fill="#263238"/>
<path d="M14.9214 71.6094H12.5525V74.4054H14.9214V71.6094Z" fill="#263238"/>
<path d="M12.2559 71.6094H9.88696V74.4054H12.2559V71.6094Z" fill="#263238"/>
<path d="M14.9214 74.6901H12.5525V77.4862H14.9214V74.6901Z" fill="#263238"/>
<path d="M12.2559 74.6901H9.88696V77.4862H12.2559V74.6901Z" fill="#263238"/>
<path d="M75.454 51.9264H73.4054V57.3524H75.454V51.9264Z" fill="#8787FF"/>
<path d="M72.7687 52.31H70.9772V54.5089H72.7687V52.31Z" fill="#263238"/>
<path d="M72.7687 54.7659H70.9772V56.9648H72.7687V54.7659Z" fill="#263238"/>
<path d="M101.706 39.7892H69.9054V77.4861H101.706V39.7892Z" fill="#8787FF"/>
<path opacity="0.6" d="M101.706 39.7892H69.9054V77.4861H101.706V39.7892Z" fill="white"/>
<path d="M109.133 39.7892H93.4284V77.4861H109.133V39.7892Z" fill="#8787FF"/>
<path opacity="0.8" d="M109.133 39.7892H93.4284V77.4861H109.133V39.7892Z" fill="white"/>
<path d="M105.249 41.1813L99.0364 29.6491H72.5789L66.366 41.1813H105.249Z" fill="#8787FF"/>
<path opacity="0.3" d="M105.249 41.1813L99.0364 29.6491H72.5789L66.366 41.1813H105.249Z" fill="black"/>
<path d="M112.676 41.1813L106.463 29.6491H96.1019L89.8889 41.1813H112.676Z" fill="#8787FF"/>
<path opacity="0.2" d="M112.676 41.1813L106.463 29.6491H96.1019L89.8889 41.1813H112.676Z" fill="black"/>
<path d="M78.9817 44.3055H73.2947V50.9021H78.9817V44.3055Z" fill="#8787FF"/>
<path opacity="0.3" d="M78.9817 44.3055H73.2947V50.9021H78.9817V44.3055Z" fill="white"/>
<path d="M75.9918 45.0174H74.0026V47.4614H75.9918V45.0174Z" fill="#263238"/>
<path d="M78.2658 45.0174H76.2766V47.4614H78.2658V45.0174Z" fill="#263238"/>
<path d="M75.9918 47.7462H74.0026V50.1903H75.9918V47.7462Z" fill="#263238"/>
<path d="M78.2658 47.7462H76.2766V50.1903H78.2658V47.7462Z" fill="#263238"/>
<path d="M90.1856 44.3055H84.4986V50.9021H90.1856V44.3055Z" fill="#8787FF"/>
<path opacity="0.3" d="M90.1856 44.3055H84.4986V50.9021H90.1856V44.3055Z" fill="white"/>
<path d="M87.1996 45.0174H85.2104V47.4614H87.1996V45.0174Z" fill="#263238"/>
<path d="M89.4737 45.0174H87.4844V47.4614H89.4737V45.0174Z" fill="#263238"/>
<path d="M87.1996 47.7462H85.2104V50.1903H87.1996V47.7462Z" fill="#263238"/>
<path d="M89.4737 47.7462H87.4844V50.1903H89.4737V47.7462Z" fill="#263238"/>
<path d="M98.3679 44.5903H96.0939V50.6174H98.3679V44.5903Z" fill="#8787FF"/>
<path d="M106.329 44.5903H104.055V50.6174H106.329V44.5903Z" fill="#8787FF"/>
<path d="M104.055 44.3055H98.368V50.9021H104.055V44.3055Z" fill="#8787FF"/>
<path opacity="0.3" d="M104.055 44.3055H98.368V50.9021H104.055V44.3055Z" fill="white"/>
<path d="M101.069 45.0174H99.0799V47.4614H101.069V45.0174Z" fill="#263238"/>
<path d="M103.343 45.0174H101.354V47.4614H103.343V45.0174Z" fill="#263238"/>
<path d="M101.069 47.7462H99.0799V50.1903H101.069V47.7462Z" fill="#263238"/>
<path d="M103.343 47.7462H101.354V50.1903H103.343V47.7462Z" fill="#263238"/>
<path d="M78.9817 53.5756H73.2947V60.1721H78.9817V53.5756Z" fill="#8787FF"/>
<path opacity="0.3" d="M78.9817 53.5756H73.2947V60.1721H78.9817V53.5756Z" fill="white"/>
<path d="M75.9918 54.2874H74.0026V56.7314H75.9918V54.2874Z" fill="#263238"/>
<path d="M78.2658 54.2874H76.2766V56.7314H78.2658V54.2874Z" fill="#263238"/>
<path d="M75.9918 57.0162H74.0026V59.4602H75.9918V57.0162Z" fill="#263238"/>
<path d="M78.2658 57.0162H76.2766V59.4602H78.2658V57.0162Z" fill="#263238"/>
<path d="M90.1856 53.5756H84.4986V60.1721H90.1856V53.5756Z" fill="#8787FF"/>
<path opacity="0.3" d="M90.1856 53.5756H84.4986V60.1721H90.1856V53.5756Z" fill="white"/>
<path d="M87.1996 54.2874H85.2104V56.7314H87.1996V54.2874Z" fill="#263238"/>
<path d="M89.4737 54.2874H87.4844V56.7314H89.4737V54.2874Z" fill="#263238"/>
<path d="M87.1996 57.0162H85.2104V59.4602H87.1996V57.0162Z" fill="#263238"/>
<path d="M89.4737 57.0162H87.4844V59.4602H89.4737V57.0162Z" fill="#263238"/>
<path d="M98.3679 53.8603H96.0939V59.8874H98.3679V53.8603Z" fill="#8787FF"/>
<path d="M106.329 53.8603H104.055V59.8874H106.329V53.8603Z" fill="#8787FF"/>
<path d="M104.055 53.5756H98.368V60.1721H104.055V53.5756Z" fill="#8787FF"/>
<path opacity="0.3" d="M104.055 53.5756H98.368V60.1721H104.055V53.5756Z" fill="white"/>
<path d="M101.069 54.2874H99.0799V56.7314H101.069V54.2874Z" fill="#263238"/>
<path d="M103.343 54.2874H101.354V56.7314H103.343V54.2874Z" fill="#263238"/>
<path d="M101.069 57.0162H99.0799V59.4602H101.069V57.0162Z" fill="#263238"/>
<path d="M103.343 57.0162H101.354V59.4602H103.343V57.0162Z" fill="#263238"/>
<path d="M109.133 67.5359H69.9054V77.4861H109.133V67.5359Z" fill="#8787FF"/>
<path opacity="0.1" d="M93.4284 67.5359H69.9054V77.4861H93.4284V67.5359Z" fill="black"/>
<path d="M84.6845 65.4992H77.2574V77.4861H84.6845V65.4992Z" fill="#8787FF"/>
<path opacity="0.3" d="M84.6845 65.4992H77.2574V77.4861H84.6845V65.4992Z" fill="white"/>
<path d="M84.2257 62.9879H77.7161L76.1382 65.9224H85.8076L84.2257 62.9879Z" fill="#8787FF"/>
<path d="M80.8286 67.5359H78.5546V70.6404H80.8286V67.5359Z" fill="#263238"/>
<path d="M83.3873 67.5359H81.1133V70.6404H83.3873V67.5359Z" fill="#263238"/>
<path d="M80.8286 70.9568H78.5546V74.0613H80.8286V70.9568Z" fill="#263238"/>
<path d="M83.3873 70.9568H81.1133V74.0613H83.3873V70.9568Z" fill="#263238"/>
<path d="M80.8286 74.3817H78.5546V77.4862H80.8286V74.3817Z" fill="#263238"/>
<path d="M83.3873 74.3817H81.1133V77.4862H83.3873V74.3817Z" fill="#263238"/>
<path d="M78.5071 39.2078V29.6491H90.7353L85.5861 39.2078H78.5071Z" fill="#8787FF"/>
<path opacity="0.8" d="M78.5071 39.2078V29.6491H90.7353L85.5861 39.2078H78.5071Z" fill="white"/>
<path d="M78.1472 39.2118H85.5743V31.7847H78.1472V39.2118Z" fill="#8787FF"/>
<path opacity="0.6" d="M78.1472 39.2118H85.5743V31.7847H78.1472V39.2118Z" fill="white"/>
<path d="M83.4268 38.3299H80.2946C80.2271 38.3299 80.1602 38.3166 80.0979 38.2907C80.0355 38.2649 79.9788 38.227 79.9311 38.1793C79.8833 38.1315 79.8455 38.0749 79.8196 38.0125C79.7938 37.9501 79.7805 37.8833 79.7805 37.8157V37.44H83.9409V37.8157C83.9409 37.9521 83.8867 38.0829 83.7903 38.1793C83.6939 38.2757 83.5631 38.3299 83.4268 38.3299Z" fill="#8787FF"/>
<path d="M83.1777 34.5807H81.9675V35.7909H83.1777V34.5807Z" fill="#263238"/>
<path d="M81.758 34.5807H80.5478V35.7909H81.758V34.5807Z" fill="#263238"/>
<path d="M83.1777 36.0044H81.9675V37.2146H83.1777V36.0044Z" fill="#263238"/>
<path d="M81.758 36.0044H80.5478V37.2146H81.758V36.0044Z" fill="#263238"/>
<path d="M83.1777 34.3751C83.1875 34.1963 83.1608 34.0174 83.0991 33.8494C83.0375 33.6813 82.9422 33.5276 82.8191 33.3976C82.6961 33.2676 82.5478 33.164 82.3834 33.0932C82.2189 33.0225 82.0418 32.986 81.8628 32.986C81.6837 32.986 81.5066 33.0225 81.3422 33.0932C81.1777 33.164 81.0294 33.2676 80.9064 33.3976C80.7833 33.5276 80.688 33.6813 80.6264 33.8494C80.5647 34.0174 80.538 34.1963 80.5478 34.3751H83.1777Z" fill="#263238"/>
<path d="M83.1776 32.2079L84.5539 29.6491H90.7352L89.359 32.2079H83.1776Z" fill="#8787FF"/>
<path opacity="0.2" d="M83.1776 32.2079L84.5539 29.6491H90.7352L89.359 32.2079H83.1776Z" fill="black"/>
<path d="M85.3172 29.6491L86.6974 32.2079H77.024L78.4042 29.6491H85.3172Z" fill="#8787FF"/>
<path d="M64.3324 45.4762H26.8015V77.4862H64.3324V45.4762Z" fill="#8787FF"/>
<path opacity="0.5" d="M64.3324 45.4762H26.8015V77.4862H64.3324V45.4762Z" fill="white"/>
<path d="M67.8719 46.8682L61.659 35.3361H29.475L23.262 46.8682H67.8719Z" fill="#8787FF"/>
<path opacity="0.3" d="M67.8719 46.8682L61.659 35.3361H29.475L23.262 46.8682H67.8719Z" fill="black"/>
<path d="M71.7595 45.4762H34.2286V77.4862H71.7595V45.4762Z" fill="#8787FF"/>
<path opacity="0.8" d="M71.7595 45.4762H34.2286V77.4862H71.7595V45.4762Z" fill="white"/>
<path d="M64.1307 30.9384H60.6465V32.3146H61.216V35.7711H63.5612V32.3146H64.1307V30.9384Z" fill="#8787FF"/>
<path d="M75.299 46.8682L69.0861 35.3361H36.902L30.6891 46.8682H75.299Z" fill="#8787FF"/>
<path opacity="0.2" d="M75.299 46.8682L69.0861 35.3361H36.902L30.6891 46.8682H75.299Z" fill="black"/>
<path d="M56.7076 65.4992H49.2805V77.4861H56.7076V65.4992Z" fill="#8787FF"/>
<path opacity="0.4" d="M56.7076 65.4992H49.2805V77.4861H56.7076V65.4992Z" fill="white"/>
<path d="M56.2449 62.9879H49.7393L48.1573 65.9224H57.8268L56.2449 62.9879Z" fill="#8787FF"/>
<path d="M52.8517 67.5359H50.5777V70.6404H52.8517V67.5359Z" fill="#263238"/>
<path d="M55.4105 67.5359H53.1365V70.6404H55.4105V67.5359Z" fill="#263238"/>
<path d="M52.8517 70.9568H50.5777V74.0613H52.8517V70.9568Z" fill="#263238"/>
<path d="M55.4105 70.9568H53.1365V74.0613H55.4105V70.9568Z" fill="#263238"/>
<path d="M52.8517 74.3817H50.5777V77.4862H52.8517V74.3817Z" fill="#263238"/>
<path d="M55.4105 74.3817H53.1365V77.4862H55.4105V74.3817Z" fill="#263238"/>
<path d="M48.9997 49.5061H38.1953V56.1026H48.9997V49.5061Z" fill="#8787FF"/>
<path opacity="0.4" d="M48.9997 49.5061H38.1953V56.1026H48.9997V49.5061Z" fill="white"/>
<path d="M40.8964 50.214H38.9071V52.658H40.8964V50.214Z" fill="#263238"/>
<path d="M43.1704 50.214H41.1811V52.658H43.1704V50.214Z" fill="#263238"/>
<path d="M40.8964 52.9428H38.9071V55.3868H40.8964V52.9428Z" fill="#263238"/>
<path d="M43.1704 52.9428H41.1811V55.3868H43.1704V52.9428Z" fill="#263238"/>
<path d="M38.1953 49.7869H35.9213V55.8139H38.1953V49.7869Z" fill="#8787FF"/>
<path d="M51.2738 49.7869H48.9998V55.8139H51.2738V49.7869Z" fill="#8787FF"/>
<path d="M46.0139 50.214H44.0246V52.658H46.0139V50.214Z" fill="#263238"/>
<path d="M48.2879 50.214H46.2986V52.658H48.2879V50.214Z" fill="#263238"/>
<path d="M46.0139 52.9428H44.0246V55.3868H46.0139V52.9428Z" fill="#263238"/>
<path d="M48.2879 52.9428H46.2986V55.3868H48.2879V52.9428Z" fill="#263238"/>
<path d="M67.7889 49.5061H56.9844V56.1026H67.7889V49.5061Z" fill="#8787FF"/>
<path opacity="0.4" d="M67.7889 49.5061H56.9844V56.1026H67.7889V49.5061Z" fill="white"/>
<path d="M59.6855 50.214H57.6963V52.658H59.6855V50.214Z" fill="#263238"/>
<path d="M61.9596 50.214H59.9703V52.658H61.9596V50.214Z" fill="#263238"/>
<path d="M59.6855 52.9428H57.6963V55.3868H59.6855V52.9428Z" fill="#263238"/>
<path d="M61.9596 52.9428H59.9703V55.3868H61.9596V52.9428Z" fill="#263238"/>
<path d="M56.9844 49.7869H54.7104V55.8139H56.9844V49.7869Z" fill="#8787FF"/>
<path d="M70.0629 49.7869H67.7889V55.8139H70.0629V49.7869Z" fill="#8787FF"/>
<path d="M64.803 50.214H62.8138V52.658H64.803V50.214Z" fill="#263238"/>
<path d="M67.077 50.214H65.0877V52.658H67.077V50.214Z" fill="#263238"/>
<path d="M64.803 52.9428H62.8138V55.3868H64.803V52.9428Z" fill="#263238"/>
<path d="M67.077 52.9428H65.0877V55.3868H67.077V52.9428Z" fill="#263238"/>
<path d="M38.1953 63.5772H35.9213V69.6043H38.1953V63.5772Z" fill="#8787FF"/>
<path d="M46.1562 63.5772H43.8822V69.6043H46.1562V63.5772Z" fill="#8787FF"/>
<path d="M43.8822 63.2924H38.1953V69.889H43.8822V63.2924Z" fill="#8787FF"/>
<path opacity="0.4" d="M43.8822 63.2924H38.1953V69.889H43.8822V63.2924Z" fill="white"/>
<path d="M40.8964 64.0043H38.9071V66.4484H40.8964V64.0043Z" fill="#263238"/>
<path d="M43.1704 64.0043H41.1811V66.4484H43.1704V64.0043Z" fill="#263238"/>
<path d="M40.8964 66.7331H38.9071V69.1772H40.8964V66.7331Z" fill="#263238"/>
<path d="M43.1704 66.7331H41.1811V69.1772H43.1704V66.7331Z" fill="#263238"/>
<path d="M62.1019 63.5772H59.8279V69.6043H62.1019V63.5772Z" fill="#8787FF"/>
<path d="M70.0629 63.5772H67.7889V69.6043H70.0629V63.5772Z" fill="#8787FF"/>
<path d="M67.7889 63.2924H62.1019V69.889H67.7889V63.2924Z" fill="#8787FF"/>
<path opacity="0.4" d="M67.7889 63.2924H62.1019V69.889H67.7889V63.2924Z" fill="white"/>
<path d="M64.803 64.0043H62.8138V66.4484H64.803V64.0043Z" fill="#263238"/>
<path d="M67.077 64.0043H65.0877V66.4484H67.077V64.0043Z" fill="#263238"/>
<path d="M64.803 66.7331H62.8138V69.1772H64.803V66.7331Z" fill="#263238"/>
<path d="M67.077 66.7331H65.0877V69.1772H67.077V66.7331Z" fill="#263238"/>
<path d="M56.3477 44.8948V35.3361H44.1195L49.2686 44.8948H56.3477Z" fill="#8787FF"/>
<path opacity="0.5" d="M56.3477 44.8948V35.3361H44.1195L49.2686 44.8948H56.3477Z" fill="white"/>
<path d="M56.7076 37.4677H49.2805V44.8948H56.7076V37.4677Z" fill="#8787FF"/>
<path opacity="0.8" d="M56.7076 37.4677H49.2805V44.8948H56.7076V37.4677Z" fill="white"/>
<path d="M50.9297 43.1072H55.0861V43.4829C55.0861 43.6193 55.032 43.7501 54.9356 43.8465C54.8392 43.9429 54.7084 43.9971 54.572 43.9971H51.4398C51.3035 43.9971 51.1727 43.9429 51.0763 43.8465C50.9799 43.7501 50.9257 43.6193 50.9257 43.4829V43.1072H50.9297Z" fill="#8787FF"/>
<path d="M52.8873 40.2677H51.6771V41.4778H52.8873V40.2677Z" fill="#263238"/>
<path d="M54.311 40.2677H53.1008V41.4778H54.311V40.2677Z" fill="#263238"/>
<path d="M52.8873 41.6914H51.6771V42.9016H52.8873V41.6914Z" fill="#263238"/>
<path d="M54.311 41.6914H53.1008V42.9016H54.311V41.6914Z" fill="#263238"/>
<path d="M51.6771 40.062C51.6673 39.8833 51.6941 39.7044 51.7557 39.5364C51.8174 39.3683 51.9126 39.2146 52.0357 39.0845C52.1588 38.9545 52.3071 38.851 52.4715 38.7802C52.6359 38.7095 52.8131 38.673 52.9921 38.673C53.1711 38.673 53.3482 38.7095 53.5127 38.7802C53.6771 38.851 53.8254 38.9545 53.9485 39.0845C54.0715 39.2146 54.1668 39.3683 54.2285 39.5364C54.2901 39.7044 54.3169 39.8833 54.307 40.062H51.6771Z" fill="#263238"/>
<path d="M51.6771 37.8909L50.3008 35.3361H44.1195L45.4958 37.8909H51.6771Z" fill="#8787FF"/>
<path opacity="0.3" d="M51.6771 37.8909L50.3008 35.3361H44.1195L45.4958 37.8909H51.6771Z" fill="black"/>
<path d="M49.5336 35.3361L48.1573 37.8909H57.8268L56.4505 35.3361H49.5336Z" fill="#8787FF"/>
<path d="M68.7569 11.5238C66.8386 10.4754 65.9655 11.3485 65.2677 10.4754C64.5698 9.60224 67.1859 7.33342 61.9604 5.06461C61.9604 5.06461 61.6131 0.179716 54.4561 0.00442823C47.2991 -0.170859 49.214 4.90917 47.2925 6.11633C45.3709 7.3235 44.8484 5.41849 42.9301 6.63889C41.0119 7.85929 41.8817 10.3034 40.3107 10.654C38.7398 11.0045 36.6462 9.08299 34.7247 10.3034C32.8031 11.5238 32.8064 12.5755 31.9333 12.5755C31.0602 12.5755 29.3139 11.8744 28.2688 12.5755C27.2237 13.2767 26 14.1465 26 14.1465H70.1592C70.1592 14.1465 70.6817 12.5755 68.7569 11.5238Z" fill="#8787FF"/>
<path opacity="0.5" d="M68.7569 11.5238C66.8386 10.4754 65.9655 11.3485 65.2677 10.4754C64.5698 9.60224 67.1859 7.33342 61.9604 5.06461C61.9604 5.06461 61.6131 0.179716 54.4561 0.00442823C47.2991 -0.170859 49.214 4.90917 47.2925 6.11633C45.3709 7.3235 44.8484 5.41849 42.9301 6.63889C41.0119 7.85929 41.8817 10.3034 40.3107 10.654C38.7398 11.0045 36.6462 9.08299 34.7247 10.3034C32.8031 11.5238 32.8064 12.5755 31.9333 12.5755C31.0602 12.5755 29.3139 11.8744 28.2688 12.5755C27.2237 13.2767 26 14.1465 26 14.1465H70.1592C70.1592 14.1465 70.6817 12.5755 68.7569 11.5238Z" fill="white"/>
<path d="M105.008 18.9024C103.775 18.2409 103.212 18.7899 102.766 18.2409C102.319 17.6919 103.999 16.2201 100.636 14.7649C100.636 14.7649 100.411 11.623 95.8139 11.5105C91.2167 11.3981 92.4503 14.6525 91.2167 15.4363C89.9831 16.2201 89.6457 14.9865 88.4121 15.767C87.1785 16.5476 87.7506 18.1218 86.7287 18.3467C85.7067 18.5716 84.3739 17.3347 83.1436 18.1218C81.9132 18.909 81.9099 19.5771 81.3477 19.5771C80.7854 19.5771 79.6643 19.1306 78.9929 19.5771C78.3215 20.0235 77.5344 20.5891 77.5344 20.5891H105.904C105.904 20.5891 106.242 19.5738 105.008 18.9024Z" fill="white"/>
<path d="M29.3563 75.0412C29.3563 75.0412 25.4404 74.5954 25.037 73.5145C24.7116 72.6453 26.6328 71.1766 26.8557 70.2739C27.0273 69.5786 26.5637 68.0898 26.7754 67.4033C26.9649 66.7971 28.135 65.9702 28.2776 65.3506C28.3445 65.0565 27.9945 64.4592 28.0547 64.165C28.2196 63.4963 29.0643 61.8961 29.7419 62.0053C30.8072 62.1769 31.2619 64.9562 31.302 66.0349C31.3176 66.4405 30.7827 67.1849 30.8228 67.595C30.8964 68.3193 32.2447 69.4225 32.218 70.1491C32.218 70.4544 31.5694 70.8712 31.5494 71.1766C31.5338 71.7271 32.7729 72.5673 32.6281 73.1C32.4007 74.0115 29.3563 75.0412 29.3563 75.0412Z" fill="#8787FF"/>
<path d="M30.4662 69.2821L30.9565 68.8141L30.9342 68.7606L30.5085 69.1707C30.4792 69.1986 30.4438 69.2193 30.4052 69.2313C30.3665 69.2433 30.3256 69.2462 30.2857 69.2398L29.5257 69.0905L29.4142 64.7043H29.256L29.071 71.8496C28.4848 72.0346 27.8898 72.19 27.288 72.3154C27.0473 72.3466 26.3141 72.3154 26.3141 72.3154V72.4024C26.3141 72.4024 27.0852 72.4581 27.3415 72.438C27.4686 72.438 27.843 72.3422 27.843 72.3422L27.3415 72.8124L27.395 72.8726L28.0213 72.3132L29.0532 72.0591L28.8816 78.6807H29.7575L29.5168 69.2108C29.5168 69.2108 30.2032 69.3445 30.435 69.3512C30.6668 69.3579 31.2797 69.2688 31.2797 69.2688L31.3109 69.2264L30.4662 69.2821Z" fill="#263238"/>
<path d="M86.3563 75.0412C86.3563 75.0412 82.4404 74.5954 82.037 73.5145C81.7116 72.6453 83.6328 71.1766 83.8557 70.2739C84.0273 69.5786 83.5637 68.0898 83.7754 67.4033C83.9649 66.7971 85.135 65.9702 85.2776 65.3506C85.3445 65.0565 84.9945 64.4592 85.0547 64.165C85.2196 63.4963 86.0643 61.8961 86.7419 62.0053C87.8072 62.1769 88.2619 64.9562 88.302 66.0349C88.3176 66.4405 87.7827 67.1849 87.8228 67.595C87.8964 68.3193 89.2447 69.4225 89.218 70.1491C89.218 70.4544 88.5694 70.8712 88.5494 71.1766C88.5338 71.7271 89.7729 72.5673 89.6281 73.1C89.4007 74.0115 86.3563 75.0412 86.3563 75.0412Z" fill="#8787FF"/>
<path d="M87.4662 69.2821L87.9565 68.8141L87.9342 68.7606L87.5085 69.1707C87.4792 69.1986 87.4438 69.2193 87.4052 69.2313C87.3665 69.2433 87.3256 69.2462 87.2857 69.2398L86.5257 69.0905L86.4142 64.7043H86.256L86.071 71.8496C85.4848 72.0346 84.8897 72.19 84.288 72.3154C84.0473 72.3466 83.3141 72.3154 83.3141 72.3154V72.4024C83.3141 72.4024 84.0852 72.4581 84.3415 72.438C84.4685 72.438 84.843 72.3422 84.843 72.3422L84.3415 72.8124L84.395 72.8726L85.0213 72.3132L86.0532 72.0591L85.8816 78.6807H86.7575L86.5167 69.2108C86.5167 69.2108 87.2032 69.3445 87.435 69.3512C87.6668 69.3579 88.2797 69.2688 88.2797 69.2688L88.3109 69.2264L87.4662 69.2821Z" fill="#263238"/>
<path d="M41.1839 75.8496C41.1839 75.8496 38.5266 75.5471 38.2529 74.8136C38.0321 74.2238 39.3358 73.2271 39.487 72.6146C39.6035 72.1427 39.2889 71.1324 39.4326 70.6666C39.5611 70.2552 40.3551 69.6941 40.4519 69.2737C40.4973 69.0741 40.2598 68.6688 40.3007 68.4691C40.4126 68.0154 40.9858 66.9295 41.4455 67.0036C42.1685 67.1201 42.477 69.006 42.5042 69.738C42.5148 70.0133 42.1518 70.5184 42.1791 70.7967C42.229 71.2882 43.144 72.0368 43.1258 72.5299C43.1258 72.7371 42.6857 73.0199 42.6721 73.2271C42.6615 73.6006 43.5024 74.1708 43.4041 74.5323C43.2498 75.1508 41.1839 75.8496 41.1839 75.8496Z" fill="#8787FF"/>
<path d="M41.9371 71.9416L42.2698 71.624L42.2547 71.5877L41.9658 71.8659C41.9459 71.8849 41.9219 71.8989 41.8957 71.9071C41.8695 71.9152 41.8417 71.9172 41.8146 71.9128L41.2989 71.8115L41.2232 68.8351H41.1159L40.9903 73.6838C40.5926 73.8093 40.1888 73.9148 39.7804 73.9999C39.6171 74.0211 39.1195 73.9999 39.1195 73.9999V74.0589C39.1195 74.0589 39.6428 74.0967 39.8167 74.0831C39.9029 74.0831 40.157 74.0181 40.157 74.0181L39.8167 74.3372L39.853 74.378L40.278 73.9984L40.9782 73.826L40.8618 78.3193H41.4561L41.2928 71.8932C41.2928 71.8932 41.7586 71.9839 41.9159 71.9884C42.0732 71.993 42.4891 71.9325 42.4891 71.9325L42.5103 71.9038L41.9371 71.9416Z" fill="#263238"/>
<path d="M68.9561 75.8496C68.9561 75.8496 66.2989 75.5471 66.0251 74.8136C65.8043 74.2238 67.108 73.2271 67.2592 72.6146C67.3757 72.1427 67.0611 71.1324 67.2048 70.6666C67.3333 70.2552 68.1273 69.6941 68.2241 69.2737C68.2695 69.0741 68.0321 68.6688 68.0729 68.4691C68.1848 68.0154 68.758 66.9295 69.2178 67.0036C69.9407 67.1201 70.2492 69.006 70.2764 69.738C70.287 70.0133 69.9241 70.5184 69.9513 70.7967C70.0012 71.2882 70.9162 72.0368 70.898 72.5299C70.898 72.7371 70.4579 73.0199 70.4443 73.2271C70.4337 73.6006 71.2746 74.1708 71.1763 74.5323C71.022 75.1508 68.9561 75.8496 68.9561 75.8496Z" fill="#8787FF"/>
<path d="M69.7093 71.9416L70.042 71.624L70.0269 71.5877L69.738 71.8659C69.7181 71.8849 69.6941 71.8989 69.6679 71.9071C69.6417 71.9152 69.6139 71.9172 69.5868 71.9128L69.0711 71.8115L68.9955 68.8351H68.8881L68.7625 73.6838C68.3648 73.8093 67.961 73.9148 67.5526 73.9999C67.3893 74.0211 66.8917 73.9999 66.8917 73.9999V74.0589C66.8917 74.0589 67.415 74.0967 67.5889 74.0831C67.6751 74.0831 67.9292 74.0181 67.9292 74.0181L67.5889 74.3372L67.6252 74.378L68.0502 73.9984L68.7504 73.826L68.634 78.3193H69.2284L69.065 71.8932C69.065 71.8932 69.5308 71.9839 69.6881 71.9884C69.8454 71.993 70.2613 71.9325 70.2613 71.9325L70.2825 71.9038L69.7093 71.9416Z" fill="#263238"/>
</svg>
