<svg width="40" height="40" viewBox="0 0 40 40" fill="none" xmlns="http://www.w3.org/2000/svg">
<rect width="40" height="40" rx="12" fill="#6151FF" fill-opacity="0.15"/>
<mask id="mask0_285_5780" style="mask-type:alpha" maskUnits="userSpaceOnUse" x="8" y="8" width="24" height="24">
<rect x="8" y="8" width="24" height="24" fill="#D9D9D9"/>
</mask>
<g mask="url(#mask0_285_5780)">
<path d="M13 27H14.2615L24.4981 16.7634L23.2366 15.5019L13 25.7385V27ZM12.4038 28.5C12.1478 28.5 11.9331 28.4133 11.7599 28.2401C11.5866 28.0668 11.5 27.8522 11.5 27.5961V25.8635C11.5 25.6196 11.5468 25.3871 11.6404 25.1661C11.734 24.9451 11.8628 24.7526 12.0269 24.5885L24.6904 11.9308C24.8416 11.7934 25.0086 11.6873 25.1913 11.6124C25.374 11.5375 25.5656 11.5 25.7661 11.5C25.9666 11.5 26.1608 11.5356 26.3488 11.6068C26.5368 11.6779 26.7032 11.791 26.848 11.9462L28.0692 13.1827C28.2243 13.3275 28.3349 13.4942 28.4009 13.6828C28.4669 13.8713 28.5 14.0598 28.5 14.2483C28.5 14.4494 28.4656 14.6413 28.3969 14.824C28.3283 15.0068 28.219 15.1737 28.0692 15.325L15.4115 27.973C15.2474 28.1371 15.0548 28.266 14.8338 28.3596C14.6128 28.4532 14.3804 28.5 14.1365 28.5H12.4038ZM23.8563 16.1437L23.2366 15.5019L24.4981 16.7634L23.8563 16.1437Z" fill="#312F8B"/>
</g>
</svg>
