<svg width="32" height="32" viewBox="0 0 32 32" fill="none" xmlns="http://www.w3.org/2000/svg">
<mask id="mask0_285_5833" style="mask-type:alpha" maskUnits="userSpaceOnUse" x="4" y="4" width="24" height="24">
<rect x="4" y="4" width="24" height="24" fill="#312F8B"/>
</mask>
<g mask="url(#mask0_285_5833)">
<path d="M15.2827 18.75H16.7173C16.8528 18.75 16.9704 18.6935 17.0699 18.5805C17.1694 18.4676 17.2025 18.3433 17.1692 18.2077L16.6942 15.5923C17.0083 15.4577 17.2612 15.2461 17.4528 14.9573C17.6445 14.6686 17.7403 14.3495 17.7403 14C17.7403 13.5214 17.5698 13.1117 17.2288 12.7709C16.8878 12.4301 16.4779 12.2597 15.9991 12.2597C15.5202 12.2597 15.1106 12.4301 14.7702 12.7709C14.4298 13.1117 14.2596 13.5214 14.2596 14C14.2596 14.3495 14.3554 14.6686 14.5471 14.9573C14.7388 15.2461 14.9916 15.4577 15.3057 15.5923L14.8307 18.2077C14.7974 18.3433 14.8305 18.4676 14.93 18.5805C15.0296 18.6935 15.1471 18.75 15.2827 18.75ZM16 25.3712C15.8961 25.3712 15.7942 25.3628 15.6942 25.3462C15.5942 25.3295 15.4973 25.3045 15.4036 25.2712C13.2948 24.5212 11.617 23.1914 10.3702 21.2817C9.1234 19.3721 8.5 17.3116 8.5 15.1V10.5962C8.5 10.2164 8.60922 9.8745 8.82765 9.57061C9.04608 9.26673 9.32853 9.04642 9.675 8.90969L15.3673 6.78469C15.5814 6.70777 15.7923 6.66931 16 6.66931C16.2077 6.66931 16.4186 6.70777 16.6327 6.78469L22.325 8.90969C22.6714 9.04642 22.9539 9.26673 23.1723 9.57061C23.3907 9.8745 23.5 10.2164 23.5 10.5962V15.1C23.5 17.3116 22.8765 19.3721 21.6297 21.2817C20.383 23.1914 18.7052 24.5212 16.5963 25.2712C16.5026 25.3045 16.4057 25.3295 16.3057 25.3462C16.2057 25.3628 16.1038 25.3712 16 25.3712ZM16 23.9C17.7333 23.35 19.1666 22.25 20.3 20.6C21.4333 18.95 22 17.1167 22 15.1V10.5866C22 10.5225 21.9823 10.4648 21.9471 10.4135C21.9118 10.3622 21.8621 10.3237 21.798 10.2981L16.1057 8.17311C16.0737 8.16029 16.0384 8.15389 16 8.15389C15.9615 8.15389 15.9263 8.16029 15.8942 8.17311L10.2019 10.2981C10.1378 10.3237 10.0881 10.3622 10.0529 10.4135C10.0176 10.4648 9.99997 10.5225 9.99997 10.5866V15.1C9.99997 17.1167 10.5666 18.95 11.7 20.6C12.8333 22.25 14.2666 23.35 16 23.9Z" fill="#6F7894"/>
</g>
</svg>
