<svg width="32" height="32" viewBox="0 0 32 32" fill="none" xmlns="http://www.w3.org/2000/svg">
<mask id="mask0_285_5843" style="mask-type:alpha" maskUnits="userSpaceOnUse" x="4" y="4" width="24" height="24">
<rect x="4" y="4" width="24" height="24" fill="#D9D9D9"/>
</mask>
<g mask="url(#mask0_285_5843)">
<path d="M16 25.3808C15.8961 25.3808 15.7942 25.3708 15.6942 25.351C15.5942 25.3311 15.4972 25.3045 15.4032 25.2712C13.2882 24.5212 11.609 23.1914 10.3654 21.2817C9.12179 19.3721 8.5 17.3116 8.5 15.1V10.5962C8.5 10.2164 8.60922 9.8745 8.82765 9.57061C9.04608 9.26673 9.32853 9.04642 9.675 8.90969L15.3673 6.78469C15.5814 6.70777 15.7923 6.66931 16 6.66931C16.2077 6.66931 16.4186 6.70777 16.6327 6.78469L22.325 8.90969C22.6714 9.04642 22.9539 9.26673 23.1723 9.57061C23.3907 9.8745 23.5 10.2164 23.5 10.5962V15.1C23.5 16.2218 23.3314 17.3241 22.9942 18.4067C22.657 19.4894 22.1597 20.5006 21.5023 21.4404C21.3828 21.6186 21.2176 21.7119 21.0066 21.7202C20.7956 21.7285 20.612 21.6558 20.4557 21.5019L17.8846 18.9308C17.6102 19.1205 17.3118 19.2628 16.9894 19.3577C16.667 19.4526 16.3372 19.5 16 19.5C15.0375 19.5 14.2135 19.1573 13.5281 18.4719C12.8427 17.7865 12.5 16.9625 12.5 16C12.5 15.0376 12.8427 14.2136 13.5281 13.5282C14.2135 12.8428 15.0375 12.5001 16 12.5001C16.9625 12.5001 17.7864 12.8428 18.4718 13.5282C19.1572 14.2136 19.5 15.0376 19.5 16C19.5 16.3376 19.4541 16.6637 19.3625 16.9782C19.2708 17.2928 19.1397 17.5923 18.9692 17.8769L20.8346 19.7424C21.1936 19.0398 21.4775 18.3023 21.6865 17.5299C21.8955 16.7574 22 15.9475 22 15.1V10.5866C22 10.5225 21.9823 10.4648 21.9471 10.4135C21.9118 10.3622 21.8621 10.3237 21.798 10.2981L16.1057 8.17311C16.0737 8.16029 16.0384 8.15389 16 8.15389C15.9615 8.15389 15.9263 8.16029 15.8942 8.17311L10.2019 10.2981C10.1378 10.3237 10.0881 10.3622 10.0529 10.4135C10.0176 10.4648 9.99997 10.5225 9.99997 10.5866V15.1C9.99997 17.1167 10.5666 18.95 11.7 20.6C12.8333 22.25 14.2666 23.35 16 23.9C16.3051 23.8039 16.6029 23.6879 16.8933 23.552C17.1836 23.4161 17.4699 23.2571 17.7519 23.075C17.9276 22.9673 18.1197 22.9259 18.3282 22.9507C18.5368 22.9754 18.7043 23.0746 18.8307 23.2481C18.9525 23.4237 18.9917 23.6111 18.9483 23.8102C18.905 24.0094 18.7965 24.1649 18.623 24.2769C18.2961 24.4769 17.9692 24.6609 17.6423 24.8288C17.3154 24.9968 16.9679 25.1474 16.5998 25.2808C16.5038 25.3141 16.4057 25.3391 16.3057 25.3558C16.2057 25.3724 16.1038 25.3808 16 25.3808ZM16 18C16.55 18 17.0208 17.8042 17.4125 17.4125C17.8041 17.0209 18 16.55 18 16C18 15.45 17.8041 14.9792 17.4125 14.5875C17.0208 14.1959 16.55 14 16 14C15.45 14 14.9791 14.1959 14.5875 14.5875C14.1958 14.9792 14 15.45 14 16C14 16.55 14.1958 17.0209 14.5875 17.4125C14.9791 17.8042 15.45 18 16 18Z" fill="#6F7894"/>
</g>
</svg>
