<svg width="32" height="32" viewBox="0 0 32 32" fill="none" xmlns="http://www.w3.org/2000/svg">
<mask id="mask0_285_5853" style="mask-type:alpha" maskUnits="userSpaceOnUse" x="4" y="4" width="24" height="24">
<rect x="4" y="4" width="24" height="24" fill="#D9D9D9"/>
</mask>
<g mask="url(#mask0_285_5853)">
<path d="M9.3077 24.5C8.81058 24.5 8.38503 24.3229 8.03102 23.9689C7.67701 23.6149 7.5 23.1894 7.5 22.6923V9.3077C7.5 8.81058 7.67701 8.38503 8.03102 8.03103C8.38503 7.67701 8.81058 7.5 9.3077 7.5H13.7577C13.8205 6.94488 14.0628 6.47278 14.4846 6.08368C14.9064 5.69456 15.4131 5.5 16.0048 5.5C16.5964 5.5 17.1032 5.69456 17.525 6.08368C17.9468 6.47278 18.1859 6.94488 18.2423 7.5H22.6923C23.1894 7.5 23.6149 7.67701 23.9689 8.03103C24.3229 8.38503 24.5 8.81058 24.5 9.3077V22.6923C24.5 23.1894 24.3229 23.6149 23.9689 23.9689C23.6149 24.3229 23.1894 24.5 22.6923 24.5H9.3077ZM9.3077 23H22.6923C22.7692 23 22.8397 22.9679 22.9038 22.9038C22.9679 22.8397 23 22.7692 23 22.6923V9.3077C23 9.23077 22.9679 9.16024 22.9038 9.09613C22.8397 9.03203 22.7692 8.99998 22.6923 8.99998H9.3077C9.23077 8.99998 9.16024 9.03203 9.09612 9.09613C9.03202 9.16024 8.99997 9.23077 8.99997 9.3077V22.6923C8.99997 22.7692 9.03202 22.8397 9.09612 22.9038C9.16024 22.9679 9.23077 23 9.3077 23ZM12 20.6346H17C17.2125 20.6346 17.3906 20.5627 17.5344 20.4189C17.6781 20.275 17.75 20.0968 17.75 19.8843C17.75 19.6717 17.6781 19.4936 17.5344 19.35C17.3906 19.2064 17.2125 19.1346 17 19.1346H12C11.7875 19.1346 11.6094 19.2065 11.4656 19.3503C11.3219 19.4941 11.25 19.6723 11.25 19.8849C11.25 20.0975 11.3219 20.2756 11.4656 20.4192C11.6094 20.5628 11.7875 20.6346 12 20.6346ZM12 16.75H20C20.2125 16.75 20.3906 16.6781 20.5344 16.5343C20.6781 16.3904 20.75 16.2122 20.75 15.9997C20.75 15.7871 20.6781 15.609 20.5344 15.4654C20.3906 15.3218 20.2125 15.25 20 15.25H12C11.7875 15.25 11.6094 15.3219 11.4656 15.4657C11.3219 15.6095 11.25 15.7877 11.25 16.0003C11.25 16.2129 11.3219 16.391 11.4656 16.5346C11.6094 16.6782 11.7875 16.75 12 16.75ZM12 12.8654H20C20.2125 12.8654 20.3906 12.7934 20.5344 12.6496C20.6781 12.5058 20.75 12.3276 20.75 12.115C20.75 11.9024 20.6781 11.7244 20.5344 11.5808C20.3906 11.4372 20.2125 11.3654 20 11.3654H12C11.7875 11.3654 11.6094 11.4373 11.4656 11.5811C11.3219 11.7249 11.25 11.9031 11.25 12.1157C11.25 12.3283 11.3219 12.5064 11.4656 12.65C11.6094 12.7936 11.7875 12.8654 12 12.8654ZM16 8.34613C16.2166 8.34613 16.3958 8.27529 16.5375 8.13363C16.6791 7.99196 16.75 7.81279 16.75 7.59613C16.75 7.37946 16.6791 7.20029 16.5375 7.05863C16.3958 6.91696 16.2166 6.84613 16 6.84613C15.7833 6.84613 15.6041 6.91696 15.4625 7.05863C15.3208 7.20029 15.25 7.37946 15.25 7.59613C15.25 7.81279 15.3208 7.99196 15.4625 8.13363C15.6041 8.27529 15.7833 8.34613 16 8.34613Z" fill="#6F7894"/>
</g>
</svg>
