<svg width="168" height="220" viewBox="0 0 168 220" fill="none" xmlns="http://www.w3.org/2000/svg">
<path d="M167.826 219.863C167.826 219.937 131.136 220 85.8916 220C40.6474 220 3.94165 219.937 3.94165 219.863C3.94165 219.789 40.6263 219.725 85.8916 219.725C131.157 219.725 167.826 219.794 167.826 219.863Z" fill="#263238"/>
<path d="M132.076 155.18C123.913 149.479 122.064 138.896 122.386 129.38C122.439 127.795 122.265 126.114 123.02 124.725C123.776 123.335 125.541 122.379 126.962 123.045C128.14 123.599 128.653 124.973 129.313 126.109C130.194 127.622 131.486 128.855 133.038 129.665C134.047 130.193 135.299 130.51 136.298 129.961C137.672 129.205 137.83 127.319 137.82 125.734C137.82 122.786 137.802 119.841 137.767 116.9C137.672 115.32 137.833 113.736 138.242 112.208C138.734 110.707 139.828 109.318 141.323 108.895C142.818 108.472 144.683 109.344 145.021 110.887C145.08 111.54 145.096 112.197 145.069 112.852C145.111 113.513 145.418 114.237 146.036 114.437C146.654 114.638 147.299 114.178 147.774 113.714C149.402 112.128 150.511 110.063 151.542 108.023C152.572 105.984 153.581 103.886 155.06 102.148C156.54 100.409 158.585 99.0302 160.872 98.8981C163.16 98.766 165.543 100.171 166.114 102.391C166.685 104.61 165.39 106.876 164 108.678C161.904 111.353 159.432 113.711 156.661 115.679C156.121 115.974 155.689 116.436 155.43 116.995C155.087 118.051 156.085 119.108 157.126 119.441C158.305 119.832 159.583 119.711 160.825 119.858C162.067 120.006 163.388 120.545 163.858 121.708C164.502 123.325 163.15 125.015 161.824 126.125C159.161 128.344 156.137 130.09 152.884 131.287C151.721 131.71 150.501 132.085 149.56 132.899C148.62 133.712 148.06 135.134 148.625 136.248C149.19 137.363 150.643 137.717 151.864 137.49C153.084 137.263 154.167 136.608 155.33 136.169C157.501 135.35 160.302 135.498 161.67 137.374C162.094 138.02 162.363 138.756 162.454 139.523C162.546 140.29 162.458 141.068 162.199 141.796C161.67 143.245 160.856 144.572 159.805 145.701C156.345 149.836 151.848 152.977 146.776 154.805C141.74 156.548 137.075 157.024 132.071 155.19" fill="#FCA311"/>
<path d="M163.789 100.203C163.789 100.203 163.741 100.256 163.636 100.351L163.165 100.768C162.753 101.138 162.146 101.677 161.38 102.391C159.207 104.407 157.19 106.585 155.346 108.905C154.167 110.369 152.947 112.028 151.647 113.83C150.347 115.631 149.005 117.576 147.674 119.642C146.254 121.82 144.954 124.075 143.78 126.394C143.167 127.604 142.628 128.867 142.073 130.156L140.435 134.093C138.276 139.051 136.396 144.126 134.803 149.294C133.52 153.522 132.635 157.861 132.161 162.255C131.854 165.22 131.804 168.205 132.013 171.179C132.097 172.236 132.177 173.044 132.251 173.593C132.282 173.858 132.303 174.069 132.325 174.222V174.439C132.302 174.37 132.286 174.299 132.277 174.228C132.251 174.074 132.219 173.868 132.177 173.604C132.082 173.076 131.981 172.241 131.886 171.184C131.631 168.205 131.649 165.209 131.939 162.234C132.384 157.822 133.249 153.462 134.523 149.215C136.102 144.032 137.977 138.944 140.139 133.976L141.819 130.056C142.374 128.772 142.918 127.499 143.537 126.283C144.719 123.957 146.03 121.697 147.462 119.515C148.815 117.402 150.178 115.489 151.462 113.703C152.746 111.917 153.988 110.247 155.161 108.789C157.024 106.475 159.068 104.313 161.274 102.322C162.056 101.619 162.679 101.091 163.102 100.737L163.593 100.34C163.654 100.288 163.719 100.242 163.789 100.203Z" fill="#263238"/>
<path d="M143.605 126.273C143.531 126.055 143.48 125.83 143.452 125.602C143.368 125.163 143.273 124.545 143.162 123.742C142.934 122.157 142.702 119.985 142.454 117.581C142.205 115.177 141.925 113 141.693 111.431C141.571 110.649 141.466 110.02 141.392 109.582C141.334 109.357 141.304 109.127 141.302 108.895C141.393 109.107 141.458 109.328 141.497 109.555C141.613 109.989 141.746 110.612 141.894 111.399C142.195 112.984 142.491 115.14 142.739 117.55C142.987 119.959 143.199 122.072 143.362 123.716C143.442 124.455 143.51 125.084 143.563 125.586C143.604 125.813 143.618 126.043 143.605 126.273Z" fill="#263238"/>
<path d="M163.937 122.479C163.68 122.535 163.418 122.567 163.155 122.574C162.627 122.622 161.876 122.685 160.947 122.791C159.087 122.992 156.529 123.362 153.724 123.89C150.918 124.418 148.398 125.015 146.585 125.475C145.682 125.707 144.953 125.919 144.472 126.061C144.215 126.153 143.95 126.216 143.679 126.252C143.924 126.129 144.178 126.028 144.44 125.951C144.937 125.776 145.656 125.533 146.554 125.274C148.355 124.746 150.876 124.117 153.692 123.578C156.078 123.122 158.485 122.787 160.904 122.574C161.839 122.495 162.595 122.463 163.123 122.453C163.395 122.434 163.667 122.443 163.937 122.479Z" fill="#263238"/>
<path d="M134.782 148.845C134.725 148.768 134.679 148.685 134.644 148.596L134.296 147.862C133.995 147.223 133.588 146.277 133.102 145.12C132.119 142.795 130.867 139.54 129.535 135.926C128.204 132.312 126.978 129.057 126.048 126.706C125.593 125.565 125.218 124.63 124.938 123.932L124.642 123.177C124.601 123.089 124.573 122.997 124.558 122.902C124.614 122.978 124.66 123.062 124.695 123.15L125.044 123.885C125.34 124.524 125.752 125.47 126.238 126.627C127.221 128.952 128.473 132.206 129.805 135.82C131.136 139.435 132.362 142.689 133.292 145.04C133.746 146.182 134.121 147.117 134.396 147.814C134.518 148.116 134.618 148.343 134.697 148.57C134.738 148.657 134.767 148.75 134.782 148.845Z" fill="#263238"/>
<path d="M161.771 140.142C161.686 140.191 161.595 140.228 161.501 140.253L160.719 140.518L157.829 141.453C155.388 142.245 152.017 143.376 148.318 144.623C144.62 145.87 141.233 146.98 138.776 147.719C137.55 148.094 136.552 148.38 135.86 148.57L135.062 148.776C134.969 148.805 134.873 148.825 134.776 148.834C134.861 148.786 134.952 148.748 135.046 148.723L135.828 148.459L138.718 147.524C141.159 146.731 144.53 145.601 148.229 144.354C151.927 143.107 155.309 141.997 157.766 141.257C158.997 140.882 159.99 140.597 160.688 140.407L161.485 140.201C161.578 140.171 161.674 140.152 161.771 140.142Z" fill="#263238"/>
<path d="M150.759 11.9761L148.038 12.9483L146.871 9.3924C144.725 2.83535 137.888 -0.646595 131.606 1.56727C125.324 3.78113 121.979 10.9722 124.124 17.5293L125.292 21.0852L122.56 22.0627C121.519 22.4667 120.673 23.2566 120.199 24.2681C119.724 25.2797 119.658 26.4352 120.014 27.4943L127.585 50.6315C127.742 51.1558 128.003 51.6432 128.353 52.0647C128.702 52.4862 129.132 52.8331 129.618 53.085C130.104 53.3368 130.636 53.4884 131.182 53.5308C131.727 53.5731 132.276 53.5054 132.795 53.3315L160.994 43.2449C162.049 42.8416 162.907 42.0447 163.387 41.0219C163.867 39.999 163.932 38.8299 163.567 37.7605L155.99 14.6232C155.829 14.1004 155.564 13.6154 155.211 13.1972C154.859 12.779 154.425 12.4361 153.937 12.189C153.449 11.942 152.916 11.7958 152.37 11.7592C151.824 11.7226 151.276 11.7964 150.759 11.9761ZM129.265 15.6747C128.687 13.9698 128.791 12.1071 129.555 10.4771C130.319 8.84698 131.685 7.57593 133.366 6.9302C134.195 6.64628 135.074 6.53242 135.949 6.59542C136.824 6.65843 137.677 6.89701 138.457 7.29693C139.238 7.69685 139.93 8.24991 140.492 8.92311C141.054 9.59632 141.475 10.3759 141.73 11.2153L142.892 14.7712L130.428 19.2306L129.265 15.6747ZM145.116 36.2071L147.05 42.1142C147.086 42.2327 147.074 42.3603 147.018 42.4705C146.962 42.5807 146.866 42.665 146.749 42.706L144.039 43.6729C143.931 43.7028 143.815 43.6898 143.717 43.6366C143.618 43.5835 143.544 43.4942 143.51 43.3876L141.561 37.5069C140.486 37.4483 139.454 37.0627 138.604 36.4017C137.754 35.7407 137.127 34.8358 136.805 33.8083C136.346 32.4498 136.43 30.9662 137.039 29.6682C137.649 28.3701 138.737 27.3582 140.076 26.8444C140.737 26.6185 141.437 26.5281 142.133 26.5784C142.83 26.6287 143.51 26.8188 144.131 27.1373C144.753 27.4558 145.304 27.8963 145.752 28.4323C146.2 28.9684 146.536 29.5892 146.739 30.2577C147.079 31.3015 147.107 32.4218 146.819 33.4813C146.532 34.5409 145.942 35.4936 145.122 36.2229L145.116 36.2071Z" fill="#FCA311"/>
<path d="M147.917 12.8848C147.917 12.9587 142.871 14.8556 136.594 17.1117C130.317 19.3678 125.197 21.1801 125.171 21.1273C125.144 21.0745 130.216 19.1618 136.499 16.9004C142.781 14.6389 147.89 12.8161 147.917 12.8848Z" fill="#263238"/>
<path d="M153.908 13.857C153.932 13.9028 153.951 13.9506 153.967 13.9997C154.009 14.1053 154.056 14.2427 154.12 14.4118C154.257 14.7975 154.447 15.3311 154.685 15.9969L156.714 21.904C157.559 24.4085 158.569 27.3779 159.689 30.675C160.217 32.3287 160.841 34.0512 161.422 35.8635C161.733 36.7974 161.867 37.7811 161.818 38.7643C161.773 39.2756 161.628 39.773 161.39 40.2279C161.136 40.6812 160.797 41.0813 160.391 41.4061C159.575 42.002 158.669 42.4639 157.707 42.7746L154.986 43.7521L149.835 45.5961L141.111 48.7029L135.22 50.7741L133.635 51.3024L133.212 51.4398C133.167 51.4599 133.119 51.4724 133.07 51.4768C133.07 51.4768 133.112 51.4768 133.202 51.4134L133.614 51.2496L135.199 50.6526L141.059 48.4968L149.766 45.3266L154.907 43.4667L157.628 42.484C158.563 42.186 159.442 41.7381 160.233 41.1578C160.61 40.8564 160.926 40.485 161.163 40.0641C161.387 39.6434 161.522 39.1812 161.559 38.7062C161.608 37.7589 161.479 36.8109 161.179 35.9111C160.608 34.1146 160.006 32.3763 159.462 30.7225C158.363 27.4202 157.348 24.4402 156.545 21.9357C155.742 19.4313 155.066 17.4182 154.601 16.0022C154.379 15.31 154.21 14.7711 154.072 14.3801L153.945 13.9574C153.929 13.9254 153.917 13.8917 153.908 13.857Z" fill="#263238"/>
<path d="M139.03 6.57083C139.03 6.57083 138.75 6.43345 138.232 6.22211C137.494 5.93852 136.713 5.78133 135.923 5.75714C134.751 5.71697 133.586 5.93713 132.51 6.40175C131.201 6.9803 130.082 7.91609 129.281 9.10171C128.475 10.284 128.043 11.6811 128.04 13.112C128.051 14.2849 128.229 15.4502 128.568 16.5728C128.843 17.5345 129.128 18.3006 129.318 18.8343C129.431 19.1053 129.522 19.3844 129.593 19.6691C129.443 19.4156 129.317 19.1485 129.218 18.8712C129.001 18.3429 128.69 17.5926 128.383 16.6257C128.007 15.4912 127.802 14.3069 127.775 13.112C127.761 11.627 128.204 10.1735 129.044 8.94849C129.872 7.71956 131.037 6.75483 132.399 6.16927C133.508 5.7021 134.71 5.49603 135.912 5.56693C136.72 5.60808 137.513 5.79608 138.253 6.12172C138.451 6.213 138.642 6.31897 138.824 6.43874C138.899 6.47176 138.968 6.51633 139.03 6.57083Z" fill="#263238"/>
<path d="M139.273 27.2458C139.357 27.1947 139.445 27.1505 139.537 27.1137C139.801 26.9943 140.075 26.8971 140.356 26.8231C140.801 26.6917 141.261 26.6136 141.724 26.5906C142.355 26.5567 142.986 26.652 143.579 26.8706C144.932 27.3462 146.173 28.7252 146.786 30.5692C147.08 31.5588 147.08 32.6125 146.786 33.6021C146.46 34.6761 145.876 35.6539 145.085 36.45L145.117 36.3073C145.819 38.2358 146.585 40.3282 147.378 42.5103L147.426 42.6424L147.293 42.69L146.083 43.0915L143.442 43.9739L143.31 44.0162L143.267 43.8841C142.543 41.6967 141.751 39.6572 141.154 37.6546L141.27 37.7445C140.237 37.6587 139.252 37.271 138.438 36.6296C137.701 36.0622 137.097 35.341 136.668 34.5161C136.281 33.7847 136.088 32.9659 136.108 32.1385C136.132 31.2928 136.343 30.463 136.726 29.7085C137.109 28.954 137.654 28.2934 138.322 27.7742C138.597 27.551 138.905 27.3726 139.236 27.2458C138.937 27.4229 138.648 27.6151 138.369 27.8217C137.636 28.4425 137.073 29.2411 136.737 30.1412C136.448 30.82 136.312 31.5544 136.341 32.2916C136.369 33.0288 136.56 33.7506 136.9 34.4052C137.323 35.1987 137.912 35.891 138.628 36.4341C139.405 37.0437 140.344 37.4112 141.328 37.4908H141.418L141.444 37.5701C142.026 39.5356 142.823 41.591 143.558 43.789L143.384 43.7045L146.025 42.8221L147.23 42.4152L147.145 42.5949C146.358 40.4127 145.597 38.3151 144.9 36.3866V36.3073L144.963 36.2439C145.731 35.4809 146.304 34.5438 146.633 33.5122C146.913 32.5656 146.913 31.5581 146.633 30.6115C146.057 28.8362 144.868 27.4888 143.579 27.0133C143.008 26.7933 142.399 26.6908 141.788 26.7121C141.331 26.7226 140.878 26.7846 140.435 26.8971C139.648 27.0926 139.278 27.2722 139.273 27.2458Z" fill="#263238"/>
<path d="M122.941 179.807L70.1622 179.564C67.1142 179.547 64.1976 178.321 62.0528 176.156C59.9079 173.99 58.7104 171.062 58.723 168.014L59.2831 35.7051C59.2893 34.195 59.5931 32.701 60.177 31.3085C60.761 29.9159 61.6137 28.652 62.6863 27.5892C63.759 26.5263 65.0306 25.6853 66.4285 25.1142C67.8264 24.543 69.3232 24.253 70.8332 24.2606L123.607 24.5037C126.655 24.5191 129.572 25.7435 131.718 27.9082C133.863 30.0728 135.062 33.0006 135.051 36.0485L134.491 168.352C134.485 169.862 134.181 171.357 133.597 172.75C133.013 174.143 132.161 175.408 131.088 176.472C130.016 177.535 128.744 178.377 127.346 178.95C125.948 179.522 124.451 179.813 122.941 179.807Z" fill="#12203C"/>
<path d="M123.527 29.0528H113.298C112.964 29.059 112.635 29.1309 112.329 29.2644C112.023 29.3978 111.746 29.5903 111.515 29.8307C111.283 30.0711 111.101 30.3548 110.979 30.6656C110.857 30.9763 110.798 31.3081 110.804 31.6418V33.4964C110.811 33.8299 110.751 34.1614 110.629 34.4718C110.507 34.7823 110.325 35.0656 110.093 35.3057C109.862 35.5457 109.585 35.7376 109.279 35.8705C108.973 36.0034 108.644 36.0746 108.31 36.0801L88.3698 35.9903C87.6952 35.9723 87.0553 35.6873 86.5907 35.198C86.1261 34.7086 85.8747 34.0548 85.8917 33.3802V31.5256C85.9088 30.8519 85.6581 30.1989 85.1946 29.7096C84.7311 29.2204 84.0926 28.9348 83.4189 28.9155H79.8208L70.8649 28.8732C68.7347 28.8605 66.6863 29.6924 65.1682 31.1868C63.6501 32.6811 62.786 34.7162 62.765 36.8463L62.2367 165.99C62.2318 167.047 62.4351 168.094 62.835 169.072C63.2349 170.05 63.8236 170.94 64.5674 171.691C65.3112 172.442 66.1956 173.038 67.1701 173.447C68.1445 173.856 69.19 174.069 70.2467 174.074L122.914 174.317C123.972 174.322 125.02 174.118 125.999 173.718C126.978 173.318 127.868 172.729 128.619 171.985C129.37 171.24 129.968 170.356 130.377 169.38C130.786 168.405 130.999 167.359 131.004 166.302L131.532 37.158C131.545 35.0219 130.709 32.9682 129.208 31.4483C127.707 29.9284 125.663 29.0668 123.527 29.0528Z" fill="white"/>
<path d="M116.442 157.087L77.2795 156.918C76.8727 156.918 76.5451 156.474 76.5504 155.935L76.5926 145.69C76.5926 145.162 76.9255 144.708 77.3323 144.708L116.495 144.887C116.72 144.926 116.922 145.051 117.058 145.235C117.194 145.419 117.253 145.648 117.224 145.875L117.187 156.11C117.187 156.654 116.849 157.092 116.442 157.087Z" fill="#FCA311"/>
<path d="M85.0907 67.0163L71.5012 66.9547L71.4899 69.4485L85.0794 69.5102L85.0907 67.0163Z" fill="#FCA311"/>
<path opacity="0.1" d="M85.0907 67.0163L71.5012 66.9547L71.4899 69.4485L85.0794 69.5102L85.0907 67.0163Z" fill="black"/>
<path d="M124.928 82.3283C125.034 82.3175 125.139 82.2926 125.239 82.2543C125.386 82.1971 125.513 82.0999 125.606 81.9737C125.7 81.8475 125.756 81.6976 125.768 81.541C125.768 80.7009 125.768 79.4751 125.768 77.9006C125.768 77.1133 125.768 76.2309 125.768 75.2587C125.768 75.021 125.768 74.7726 125.768 74.5243C125.802 74.2833 125.75 74.038 125.62 73.8321C125.547 73.7334 125.452 73.653 125.343 73.597C125.234 73.5411 125.114 73.5113 124.991 73.5098H124.167H116.532L72.3392 73.346C72.226 73.3441 72.1141 73.3695 72.013 73.4201C71.9118 73.4707 71.8243 73.545 71.758 73.6366C71.6304 73.8433 71.5816 74.0891 71.6206 74.3288C71.6206 74.8572 71.6206 75.3855 71.6206 75.9139C71.6206 76.9706 71.6206 78.0274 71.6206 79.0841C71.6206 79.6125 71.6206 80.1408 71.6206 80.6692C71.5987 80.9153 71.5987 81.1628 71.6206 81.4089C71.6483 81.5144 71.6999 81.6122 71.7714 81.6946C71.8428 81.777 71.9322 81.842 72.0327 81.8845C72.1368 81.9259 72.2483 81.9457 72.3603 81.9426H75.0497L86.7848 82.006L106.651 82.1275L120.046 82.2332L123.686 82.2755H124.632C124.848 82.2755 124.954 82.2755 124.954 82.2755H124.632H123.686H120.046H106.651L86.7848 82.2121L75.0497 82.1645H72.3603C72.2123 82.1705 72.0647 82.1453 71.927 82.0905C71.7879 82.0312 71.6642 81.9408 71.5653 81.8263C71.4664 81.7119 71.3949 81.5763 71.3564 81.4301C71.3258 81.2914 71.3151 81.1491 71.3247 81.0074V80.6164C71.3247 80.088 71.3247 79.5596 71.3247 79.0313C71.3247 77.9745 71.3247 76.9178 71.3247 75.8611C71.3247 75.3327 71.3247 74.8043 71.3247 74.276C71.3146 74.1352 71.3146 73.994 71.3247 73.8533C71.3445 73.6978 71.4046 73.5503 71.4991 73.4253C71.5902 73.2977 71.7108 73.1941 71.8507 73.1233C71.9905 73.0525 72.1454 73.0165 72.3022 73.0184L116.495 73.2615L124.13 73.3143H124.954C125.099 73.3144 125.242 73.3496 125.371 73.4167C125.5 73.4838 125.611 73.581 125.694 73.7C125.843 73.9298 125.903 74.2059 125.863 74.4767C125.863 74.7251 125.863 74.9734 125.863 75.2112C125.863 76.1728 125.863 77.0552 125.863 77.853C125.863 79.4381 125.826 80.6534 125.815 81.4988C125.802 81.6613 125.743 81.8168 125.645 81.9469C125.547 82.077 125.413 82.1763 125.261 82.2332C125.161 82.2951 125.045 82.3281 124.928 82.3283Z" fill="#E0E0E0"/>
<path d="M100.438 75.9984H75.5833V78.3285H100.438V75.9984Z" fill="#FCA311"/>
<path opacity="0.2" d="M100.438 75.9984H75.5833V78.3285H100.438V75.9984Z" fill="white"/>
<path d="M84.9982 89.7671L71.4087 89.7054L71.3974 92.1993L84.9869 92.261L84.9982 89.7671Z" fill="#FCA311"/>
<path opacity="0.1" d="M84.9982 89.7671L71.4087 89.7054L71.3974 92.1993L84.9869 92.261L84.9982 89.7671Z" fill="black"/>
<path d="M124.584 105.08C124.691 105.067 124.797 105.047 124.901 105.022C125.049 104.975 125.185 104.897 125.299 104.793C125.414 104.689 125.505 104.561 125.567 104.419C125.65 104.206 125.683 103.976 125.662 103.748C125.662 103.495 125.662 103.22 125.662 102.913C125.662 102.301 125.662 101.603 125.662 100.8V97.4448C125.687 97.2019 125.634 96.9573 125.509 96.7474C125.379 96.532 125.174 96.3722 124.933 96.2983C124.67 96.2513 124.402 96.2371 124.135 96.256H116.532L72.4924 96.0922C72.2555 96.0927 72.0269 96.1793 71.849 96.3358C71.6712 96.4922 71.5562 96.708 71.5255 96.9429C71.5255 97.4448 71.5255 97.9996 71.5255 98.528C71.5255 99.5847 71.5255 100.641 71.5255 101.698C71.5255 102.227 71.5255 102.755 71.5255 103.283C71.5058 103.53 71.5164 103.779 71.5572 104.023C71.6231 104.237 71.7589 104.423 71.9429 104.551C72.138 104.675 72.3673 104.734 72.5981 104.72H73.3325H74.8595L86.5523 104.779L106.35 104.9L119.697 105.006L123.327 105.048H119.697H106.35L86.5417 105.027L74.8489 104.985H72.5505C72.2647 105.002 71.9811 104.926 71.7421 104.768C71.5017 104.601 71.3262 104.357 71.2454 104.076C71.1981 103.807 71.1839 103.534 71.2032 103.262C71.2032 102.734 71.2032 102.205 71.2032 101.677C71.2032 100.62 71.2032 99.5636 71.2032 98.5068C71.2032 97.9785 71.2032 97.4501 71.2032 96.9217C71.2417 96.6196 71.3891 96.3419 71.6176 96.1406C71.8462 95.9392 72.1403 95.8281 72.4448 95.828L116.484 96.071L124.088 96.1292C124.371 96.1118 124.655 96.1313 124.933 96.1873C125.207 96.277 125.439 96.4652 125.583 96.7157C125.72 96.9484 125.779 97.2185 125.752 97.4871C125.752 97.7354 125.752 97.9785 125.752 98.2215C125.752 99.1779 125.752 100.055 125.752 100.863C125.752 101.672 125.752 102.353 125.752 102.977C125.752 103.278 125.752 103.558 125.752 103.817C125.771 104.053 125.733 104.291 125.641 104.509C125.572 104.655 125.473 104.784 125.35 104.888C125.227 104.992 125.083 105.068 124.928 105.111C124.812 105.121 124.696 105.11 124.584 105.08Z" fill="#E0E0E0"/>
<path d="M84.8956 113.506L71.3062 113.444L71.2948 115.938L84.8843 116L84.8956 113.506Z" fill="#FCA311"/>
<path opacity="0.1" d="M84.8956 113.506L71.3062 113.444L71.2948 115.938L84.8843 116L84.8956 113.506Z" fill="black"/>
<path d="M124.478 128.809C124.585 128.796 124.691 128.777 124.795 128.751C124.942 128.704 125.078 128.627 125.192 128.524C125.307 128.421 125.399 128.295 125.461 128.154C125.544 127.94 125.576 127.711 125.556 127.483C125.556 127.224 125.556 126.954 125.556 126.643C125.556 126.035 125.556 125.332 125.556 124.529V121.174C125.581 120.931 125.528 120.686 125.403 120.476C125.27 120.265 125.065 120.108 124.827 120.033C124.564 119.984 124.296 119.968 124.029 119.985H116.426L72.3865 119.821C72.1496 119.822 71.921 119.908 71.7431 120.065C71.5653 120.221 71.4503 120.437 71.4196 120.672C71.4196 121.2 71.4196 121.729 71.4196 122.257C71.4196 123.314 71.4196 124.371 71.4196 125.427C71.4196 125.956 71.4196 126.484 71.4196 127.012C71.3999 127.258 71.4105 127.504 71.4513 127.747C71.5145 127.962 71.6509 128.149 71.837 128.275C72.0309 128.402 72.2611 128.461 72.4922 128.444H74.7905L86.4833 128.508L106.281 128.629L119.628 128.735L123.258 128.777H119.628H106.281L86.4833 128.719L74.7905 128.671H72.4922C72.2061 128.691 71.9218 128.615 71.6837 128.455C71.4433 128.288 71.2679 128.044 71.1871 127.763C71.1397 127.494 71.1255 127.221 71.1448 126.949C71.1448 126.421 71.1448 125.892 71.1448 125.364C71.1448 124.307 71.1448 123.25 71.1448 122.194C71.1448 121.665 71.1448 121.137 71.1448 120.582C71.1822 120.28 71.3284 120.003 71.5561 119.801C71.7838 119.6 72.0772 119.489 72.3812 119.488L116.421 119.731L124.024 119.79C124.307 119.772 124.591 119.792 124.869 119.848C125.144 119.937 125.375 120.126 125.519 120.376C125.656 120.609 125.715 120.879 125.688 121.147C125.688 121.396 125.688 121.644 125.688 121.882C125.688 122.838 125.688 123.715 125.688 124.524C125.688 125.332 125.688 126.014 125.688 126.637C125.688 126.938 125.688 127.218 125.688 127.477C125.709 127.714 125.67 127.951 125.577 128.169C125.509 128.315 125.41 128.445 125.286 128.549C125.163 128.652 125.019 128.729 124.864 128.772C124.74 128.814 124.608 128.827 124.478 128.809Z" fill="#E0E0E0"/>
<path d="M99.9072 99.4087L75.053 99.2959L75.0424 101.626L99.8966 101.739L99.9072 99.4087Z" fill="#FCA311"/>
<path opacity="0.2" d="M99.9072 99.4087L75.053 99.2959L75.0424 101.626L99.8966 101.739L99.9072 99.4087Z" fill="white"/>
<path d="M77.3004 124.497C77.2848 124.71 77.2072 124.913 77.0771 125.082C76.9471 125.251 76.7703 125.378 76.5688 125.447C76.3673 125.516 76.1498 125.525 75.9435 125.472C75.7371 125.419 75.5509 125.306 75.4079 125.148C75.2649 124.99 75.1714 124.793 75.1391 124.583C75.1067 124.372 75.1369 124.157 75.2259 123.963C75.3149 123.769 75.4588 123.606 75.6397 123.494C75.8207 123.381 76.0307 123.324 76.2437 123.33C76.538 123.346 76.8141 123.478 77.0119 123.696C77.2097 123.915 77.3134 124.203 77.3004 124.497Z" fill="#FCA311"/>
<path d="M80.6662 124.513C80.6766 124.662 80.6562 124.812 80.6063 124.952C80.5565 125.093 80.4782 125.222 80.3764 125.331C80.2745 125.441 80.1513 125.528 80.0144 125.587C79.8774 125.647 79.7297 125.677 79.5804 125.677C79.4311 125.677 79.2833 125.647 79.1464 125.587C79.0095 125.528 78.8862 125.441 78.7844 125.331C78.6825 125.222 78.6043 125.093 78.5544 124.952C78.5045 124.812 78.4842 124.662 78.4946 124.513C78.4842 124.364 78.5045 124.215 78.5544 124.074C78.6043 123.933 78.6825 123.804 78.7844 123.695C78.8862 123.586 79.0095 123.499 79.1464 123.439C79.2833 123.38 79.4311 123.349 79.5804 123.349C79.7297 123.349 79.8774 123.38 80.0144 123.439C80.1513 123.499 80.2745 123.586 80.3764 123.695C80.4782 123.804 80.5565 123.933 80.6063 124.074C80.6562 124.215 80.6766 124.364 80.6662 124.513Z" fill="#FCA311"/>
<path d="M84.037 124.529C84.0214 124.742 83.9438 124.945 83.8137 125.114C83.6837 125.283 83.5069 125.409 83.3054 125.479C83.1039 125.548 82.8864 125.557 82.68 125.504C82.4737 125.45 82.2874 125.338 82.1444 125.18C82.0014 125.022 81.908 124.825 81.8756 124.615C81.8433 124.404 81.8735 124.189 81.9625 123.995C82.0515 123.801 82.1954 123.638 82.3763 123.525C82.5572 123.413 82.7672 123.356 82.9803 123.361C83.2741 123.379 83.5494 123.511 83.7469 123.73C83.9444 123.948 84.0486 124.235 84.037 124.529Z" fill="#FCA311"/>
<path d="M87.4027 124.545C87.3871 124.757 87.3095 124.961 87.1794 125.13C87.0494 125.298 86.8726 125.425 86.6711 125.495C86.4696 125.564 86.2521 125.572 86.0458 125.519C85.8394 125.466 85.6532 125.354 85.5102 125.196C85.3672 125.038 85.2737 124.841 85.2414 124.63C85.209 124.42 85.2392 124.204 85.3282 124.011C85.4172 123.817 85.5611 123.654 85.742 123.541C85.923 123.429 86.133 123.372 86.346 123.377C86.6399 123.395 86.9151 123.527 87.1126 123.745C87.3102 123.964 87.4143 124.251 87.4027 124.545Z" fill="#FCA311"/>
<path d="M90.7686 124.556C90.754 124.768 90.6772 124.972 90.5477 125.142C90.4182 125.311 90.2417 125.439 90.0402 125.509C89.8387 125.579 89.6211 125.589 89.4143 125.536C89.2076 125.483 89.0208 125.371 88.8773 125.213C88.7338 125.055 88.6398 124.859 88.6071 124.648C88.5744 124.437 88.6044 124.221 88.6933 124.028C88.7822 123.834 88.9261 123.67 89.1072 123.557C89.2883 123.444 89.4986 123.387 89.7118 123.393C90.0048 123.411 90.2792 123.542 90.4766 123.759C90.674 123.977 90.7788 124.262 90.7686 124.556Z" fill="#FCA311"/>
<path d="M94.1395 124.571C94.125 124.783 94.049 124.986 93.9208 125.155C93.7925 125.324 93.6176 125.452 93.4176 125.523C93.2176 125.594 93.0012 125.605 92.795 125.555C92.5888 125.504 92.4019 125.395 92.2572 125.239C92.1125 125.084 92.0164 124.89 91.9806 124.681C91.9449 124.472 91.9711 124.256 92.056 124.062C92.1409 123.867 92.2808 123.702 92.4586 123.586C92.6363 123.47 92.8441 123.408 93.0563 123.409C93.3539 123.42 93.635 123.548 93.838 123.766C94.041 123.984 94.1494 124.274 94.1395 124.571Z" fill="#FCA311"/>
<path d="M97.5053 124.587C97.5157 124.736 97.4953 124.886 97.4455 125.026C97.3956 125.167 97.3173 125.296 97.2155 125.405C97.1136 125.514 96.9904 125.602 96.8535 125.661C96.7165 125.721 96.5688 125.751 96.4195 125.751C96.2702 125.751 96.1224 125.721 95.9855 125.661C95.8486 125.602 95.7253 125.514 95.6235 125.405C95.5217 125.296 95.4434 125.167 95.3935 125.026C95.3437 124.886 95.3233 124.736 95.3337 124.587C95.3233 124.438 95.3437 124.289 95.3935 124.148C95.4434 124.007 95.5217 123.878 95.6235 123.769C95.7253 123.66 95.8486 123.573 95.9855 123.513C96.1224 123.454 96.2702 123.423 96.4195 123.423C96.5688 123.423 96.7165 123.454 96.8535 123.513C96.9904 123.573 97.1136 123.66 97.2155 123.769C97.3173 123.878 97.3956 124.007 97.4455 124.148C97.4953 124.289 97.5157 124.438 97.5053 124.587Z" fill="#FCA311"/>
<path d="M100.871 124.603C100.856 124.815 100.78 125.018 100.652 125.187C100.524 125.356 100.349 125.484 100.149 125.555C99.949 125.626 99.7326 125.637 99.5264 125.586C99.3203 125.536 99.1333 125.426 98.9887 125.271C98.844 125.116 98.7478 124.922 98.7121 124.712C98.6763 124.503 98.7025 124.288 98.7874 124.094C98.8724 123.899 99.0123 123.734 99.19 123.618C99.3677 123.502 99.5755 123.44 99.7877 123.441C100.085 123.452 100.366 123.58 100.569 123.798C100.772 124.016 100.881 124.305 100.871 124.603Z" fill="#FCA311"/>
<path d="M104.237 124.619C104.222 124.832 104.145 125.036 104.016 125.205C103.886 125.375 103.71 125.502 103.508 125.573C103.307 125.643 103.089 125.652 102.882 125.599C102.676 125.547 102.489 125.435 102.345 125.277C102.202 125.119 102.108 124.922 102.075 124.711C102.042 124.501 102.072 124.285 102.161 124.091C102.25 123.897 102.394 123.733 102.575 123.621C102.756 123.508 102.967 123.451 103.18 123.456C103.473 123.474 103.747 123.606 103.945 123.823C104.142 124.04 104.247 124.326 104.237 124.619Z" fill="#FCA311"/>
<g opacity="0.2">
<path d="M77.3004 124.497C77.2848 124.71 77.2072 124.913 77.0771 125.082C76.9471 125.251 76.7703 125.378 76.5688 125.447C76.3673 125.516 76.1498 125.525 75.9435 125.472C75.7371 125.419 75.5509 125.306 75.4079 125.148C75.2649 124.99 75.1714 124.793 75.1391 124.583C75.1067 124.372 75.1369 124.157 75.2259 123.963C75.3149 123.769 75.4588 123.606 75.6397 123.494C75.8207 123.381 76.0307 123.324 76.2437 123.33C76.538 123.346 76.8141 123.478 77.0119 123.696C77.2097 123.915 77.3134 124.203 77.3004 124.497Z" fill="white"/>
<path d="M80.6662 124.513C80.6766 124.662 80.6562 124.812 80.6063 124.952C80.5565 125.093 80.4782 125.222 80.3764 125.331C80.2745 125.441 80.1513 125.528 80.0144 125.587C79.8774 125.647 79.7297 125.677 79.5804 125.677C79.4311 125.677 79.2833 125.647 79.1464 125.587C79.0095 125.528 78.8862 125.441 78.7844 125.331C78.6825 125.222 78.6043 125.093 78.5544 124.952C78.5045 124.812 78.4842 124.662 78.4946 124.513C78.4842 124.364 78.5045 124.215 78.5544 124.074C78.6043 123.933 78.6825 123.804 78.7844 123.695C78.8862 123.586 79.0095 123.499 79.1464 123.439C79.2833 123.38 79.4311 123.349 79.5804 123.349C79.7297 123.349 79.8774 123.38 80.0144 123.439C80.1513 123.499 80.2745 123.586 80.3764 123.695C80.4782 123.804 80.5565 123.933 80.6063 124.074C80.6562 124.215 80.6766 124.364 80.6662 124.513Z" fill="white"/>
<path d="M84.037 124.529C84.0214 124.741 83.9438 124.945 83.8137 125.114C83.6837 125.282 83.5069 125.409 83.3054 125.479C83.1039 125.548 82.8864 125.556 82.68 125.503C82.4737 125.45 82.2874 125.338 82.1444 125.18C82.0014 125.022 81.908 124.825 81.8756 124.614C81.8433 124.404 81.8735 124.188 81.9625 123.995C82.0515 123.801 82.1954 123.638 82.3763 123.525C82.5572 123.413 82.7672 123.356 82.9803 123.361C83.2741 123.379 83.5494 123.511 83.7469 123.729C83.9444 123.948 84.0486 124.235 84.037 124.529Z" fill="white"/>
<path d="M87.403 124.545C87.3874 124.757 87.3097 124.961 87.1797 125.13C87.0496 125.298 86.8729 125.425 86.6713 125.495C86.4698 125.564 86.2524 125.572 86.046 125.519C85.8396 125.466 85.6534 125.354 85.5104 125.196C85.3674 125.038 85.274 124.841 85.2416 124.63C85.2093 124.42 85.2395 124.204 85.3285 124.011C85.4175 123.817 85.5614 123.654 85.7423 123.541C85.9232 123.429 86.1332 123.372 86.3462 123.377C86.6401 123.395 86.9153 123.527 87.1129 123.745C87.3104 123.964 87.4146 124.251 87.403 124.545Z" fill="white"/>
<path d="M90.7686 124.556C90.754 124.768 90.6772 124.972 90.5477 125.142C90.4182 125.311 90.2417 125.439 90.0402 125.509C89.8387 125.579 89.6211 125.589 89.4143 125.536C89.2076 125.483 89.0208 125.371 88.8773 125.213C88.7338 125.055 88.6398 124.859 88.6071 124.648C88.5744 124.437 88.6044 124.221 88.6933 124.028C88.7822 123.834 88.9261 123.67 89.1072 123.557C89.2883 123.444 89.4986 123.387 89.7118 123.393C90.0048 123.411 90.2792 123.542 90.4766 123.759C90.674 123.977 90.7788 124.262 90.7686 124.556Z" fill="white"/>
<path d="M94.1395 124.571C94.125 124.783 94.049 124.986 93.9208 125.155C93.7925 125.324 93.6176 125.452 93.4176 125.523C93.2176 125.594 93.0012 125.605 92.795 125.555C92.5888 125.504 92.4019 125.395 92.2572 125.239C92.1125 125.084 92.0164 124.89 91.9806 124.681C91.9449 124.471 91.9711 124.256 92.056 124.062C92.1409 123.867 92.2808 123.702 92.4586 123.586C92.6363 123.47 92.8441 123.408 93.0563 123.409C93.3539 123.42 93.635 123.548 93.838 123.766C94.041 123.984 94.1494 124.274 94.1395 124.571Z" fill="white"/>
<path d="M97.5053 124.587C97.5157 124.736 97.4953 124.886 97.4455 125.026C97.3956 125.167 97.3173 125.296 97.2155 125.405C97.1136 125.514 96.9904 125.602 96.8535 125.661C96.7165 125.721 96.5688 125.751 96.4195 125.751C96.2702 125.751 96.1224 125.721 95.9855 125.661C95.8486 125.602 95.7253 125.514 95.6235 125.405C95.5217 125.296 95.4434 125.167 95.3935 125.026C95.3437 124.886 95.3233 124.736 95.3337 124.587C95.3233 124.438 95.3437 124.289 95.3935 124.148C95.4434 124.007 95.5217 123.878 95.6235 123.769C95.7253 123.66 95.8486 123.573 95.9855 123.513C96.1224 123.454 96.2702 123.423 96.4195 123.423C96.5688 123.423 96.7165 123.454 96.8535 123.513C96.9904 123.573 97.1136 123.66 97.2155 123.769C97.3173 123.878 97.3956 124.007 97.4455 124.148C97.4953 124.289 97.5157 124.438 97.5053 124.587Z" fill="white"/>
<path d="M100.871 124.603C100.856 124.815 100.78 125.018 100.652 125.187C100.524 125.356 100.349 125.484 100.149 125.555C99.949 125.626 99.7326 125.637 99.5264 125.586C99.3203 125.536 99.1333 125.426 98.9887 125.271C98.844 125.116 98.7478 124.922 98.7121 124.712C98.6763 124.503 98.7025 124.288 98.7874 124.094C98.8724 123.899 99.0123 123.734 99.19 123.618C99.3677 123.502 99.5755 123.44 99.7877 123.441C100.085 123.452 100.366 123.58 100.569 123.798C100.772 124.016 100.881 124.305 100.871 124.603Z" fill="white"/>
<path d="M104.237 124.619C104.222 124.832 104.145 125.036 104.016 125.205C103.886 125.375 103.71 125.502 103.509 125.573C103.307 125.643 103.089 125.652 102.883 125.599C102.676 125.547 102.489 125.435 102.346 125.277C102.202 125.119 102.108 124.922 102.075 124.711C102.043 124.501 102.073 124.285 102.162 124.091C102.25 123.897 102.394 123.733 102.575 123.621C102.757 123.508 102.967 123.451 103.18 123.456C103.473 123.474 103.747 123.606 103.945 123.823C104.142 124.04 104.247 124.326 104.237 124.619Z" fill="white"/>
</g>
<path d="M99.455 48.3435C99.822 48.1819 100.133 47.9159 100.35 47.5786C100.567 47.2414 100.68 46.8477 100.675 46.4467C100.689 46.186 100.65 45.9253 100.559 45.6803C100.469 45.4354 100.33 45.2115 100.15 45.0221C99.9703 44.8327 99.7539 44.6819 99.5141 44.5789C99.2742 44.4758 99.0159 44.4227 98.7549 44.4227C98.4938 44.4227 98.2355 44.4758 97.9956 44.5789C97.7558 44.6819 97.5394 44.8327 97.3597 45.0221C97.1801 45.2115 97.0408 45.4354 96.9505 45.6803C96.8601 45.9253 96.8206 46.186 96.8343 46.4467C96.8262 46.8517 96.9383 47.2501 97.1565 47.5914C97.3747 47.9328 97.6891 48.2019 98.0601 48.3647C95.1012 48.8085 95.2333 52.021 95.2333 52.021L102.229 52.0527C102.229 52.0527 102.393 48.7821 99.455 48.3435Z" fill="#FCA311"/>
<path opacity="0.1" d="M99.455 48.3435C99.822 48.1819 100.133 47.9159 100.35 47.5786C100.567 47.2414 100.68 46.8477 100.675 46.4467C100.689 46.186 100.65 45.9253 100.559 45.6803C100.469 45.4354 100.33 45.2115 100.15 45.0221C99.9703 44.8327 99.7539 44.6819 99.5141 44.5789C99.2742 44.4758 99.0159 44.4227 98.7549 44.4227C98.4938 44.4227 98.2355 44.4758 97.9956 44.5789C97.7558 44.6819 97.5394 44.8327 97.3597 45.0221C97.1801 45.2115 97.0408 45.4354 96.9505 45.6803C96.8601 45.9253 96.8206 46.186 96.8343 46.4467C96.8262 46.8517 96.9383 47.2501 97.1565 47.5914C97.3747 47.9328 97.6891 48.2019 98.0601 48.3647C95.1012 48.8085 95.2333 52.021 95.2333 52.021L102.229 52.0527C102.229 52.0527 102.393 48.7821 99.455 48.3435Z" fill="black"/>
<path d="M110.822 54.1247L85.8889 54.0115L85.8754 56.9915L110.809 57.1046L110.822 54.1247Z" fill="#FCA311"/>
<path opacity="0.2" d="M110.822 54.1247L85.8889 54.0115L85.8754 56.9915L110.809 57.1046L110.822 54.1247Z" fill="white"/>
<path d="M19.1587 69.5683H18.9104L18.1918 69.6211C17.8029 69.6445 17.4162 69.6957 17.0347 69.7743C16.7876 69.809 16.5424 69.8567 16.3003 69.917L15.4813 70.1442C14.0874 70.5719 12.7722 71.2232 11.5872 72.0727C10.0216 73.2091 8.71429 74.6641 7.75127 76.342C7.18524 77.3091 6.7348 78.3395 6.40921 79.4118C6.06709 80.5772 5.87011 81.7804 5.82273 82.9941C5.79124 83.6317 5.80183 84.2706 5.85443 84.9068C5.85443 85.2291 5.94425 85.5514 5.98652 85.879C6.02207 86.2092 6.08391 86.5361 6.17145 86.8565C6.64657 88.9767 7.6106 90.9565 8.98665 92.6381C10.3627 94.3196 12.1127 95.6563 14.097 96.5415C15.5331 97.1612 17.0724 97.507 18.6357 97.5612C20.2502 97.65 21.8664 97.4184 23.391 96.8796L23.8559 96.7053H23.9193L23.9722 96.737L30.6349 100.119L30.4394 100.288C29.7261 98.079 29.0392 95.9391 28.3735 93.8838V93.8045L28.4316 93.7464C30.0479 92.1185 31.2477 90.1248 31.9294 87.9344C32.5468 85.9318 32.727 83.8201 32.4578 81.7419C32.2183 79.895 31.6245 78.1117 30.7089 76.4899C29.9196 75.0968 28.9015 73.8464 27.6972 72.7913C26.7036 71.9562 25.6038 71.2562 24.4266 70.7096C23.5358 70.3254 22.6081 70.0332 21.6579 69.8377L20.6012 69.6634L19.835 69.6053L19.3701 69.5736H19.2116C19.2642 69.5677 19.3174 69.5677 19.3701 69.5736H19.8403L20.6065 69.6053L21.6632 69.7585C22.6252 69.9397 23.5656 70.2213 24.4688 70.5986C25.6663 71.1387 26.7859 71.8371 27.7976 72.6751C29.024 73.7255 30.0638 74.976 30.8727 76.3737C31.8142 78.0129 32.4263 79.8203 32.6744 81.6943C32.966 83.8046 32.7984 85.953 32.183 87.9925C31.4969 90.2284 30.2785 92.2645 28.6324 93.9261L28.6641 93.7887C29.3298 95.844 30.022 97.9839 30.7406 100.187L30.841 100.51L30.5398 100.356L23.8771 96.98H23.9933L23.5178 97.1544C21.9638 97.7012 20.3177 97.9381 18.6726 97.8518C17.0757 97.791 15.5042 97.4326 14.0388 96.7951C11.2436 95.598 8.91802 93.5174 7.4184 90.8721C6.7283 89.6504 6.22433 88.3326 5.92311 86.9622C5.84063 86.6335 5.77886 86.3 5.73818 85.9635C5.69592 85.6307 5.62723 85.3031 5.61138 84.9755C5.46838 83.0955 5.66708 81.2051 6.19787 79.3959C6.53156 78.3089 6.99456 77.2658 7.57691 76.2891C8.5629 74.596 9.89745 73.1318 11.4921 71.9935C12.6966 71.1418 14.0339 70.4954 15.4496 70.0808L16.2791 69.8694C16.5233 69.8128 16.7702 69.7687 17.0188 69.7374C17.4044 69.666 17.7947 69.6236 18.1865 69.6105L18.9104 69.5841C18.9927 69.573 19.0757 69.5677 19.1587 69.5683Z" fill="#FCA311"/>
<path d="M22.1703 81.8898H21.1928L19.0794 78.9204V76.9707C19.0794 76.9707 17.5682 76.8756 17.7479 79.4276C17.9275 81.9797 17.7479 81.3298 17.7479 81.3298C17.7479 81.3298 14.5407 81.3298 14.2765 81.6204C14.0123 81.911 13.9965 85.0072 13.9595 86.735C13.9392 87.1515 14.0587 87.5628 14.299 87.9036C14.5393 88.2444 14.8866 88.4951 15.2857 88.616C15.3976 88.647 15.513 88.663 15.6291 88.6635C16.4322 88.6635 20.5165 88.0136 20.5165 88.0136H22.202L22.1703 81.8898Z" fill="#FCA311"/>
<path d="M24.9656 81.3668L24.3632 88.0454H22.6936V81.5042L24.9656 81.3668Z" fill="#FCA311"/>
<path d="M44.8795 217.332V212.814L36.7796 212.756L36.7109 219.588L37.2129 219.625C39.4479 219.767 48.5834 219.979 50.0839 219.514C51.7536 218.996 44.8795 217.332 44.8795 217.332Z" fill="#FCA311"/>
<path d="M50.2743 219.091C50.2743 219.165 47.2415 219.229 43.5059 219.229C39.7704 219.229 36.7375 219.165 36.7375 219.091C36.7375 219.017 39.7704 218.954 43.5059 218.954C47.2415 218.954 50.2743 219.017 50.2743 219.091Z" fill="#263238"/>
<path d="M45.0223 218.256C44.9536 218.219 45.0223 217.982 45.1861 217.728C45.3499 217.474 45.5718 217.369 45.6246 217.422C45.6775 217.474 45.5665 217.675 45.408 217.892C45.2495 218.109 45.091 218.293 45.0223 218.256Z" fill="#263238"/>
<path d="M45.54 218.552C45.466 218.552 45.503 218.256 45.6616 217.976C45.8201 217.696 46.0314 217.527 46.0895 217.569C46.1476 217.612 46.0525 217.85 45.9046 218.098C45.7567 218.346 45.6087 218.579 45.54 218.552Z" fill="#263238"/>
<path d="M39.1785 219.07C39.1468 219.07 39.0253 218.975 38.851 218.774C38.6381 218.516 38.401 218.279 38.1429 218.066C37.8892 217.863 37.5868 217.73 37.2659 217.68C37.0175 217.649 36.859 217.68 36.8432 217.649C36.8273 217.617 36.9805 217.506 37.2711 217.485C37.6547 217.477 38.0288 217.604 38.3279 217.844C38.6081 218.073 38.8444 218.35 39.0253 218.663C39.1468 218.896 39.2102 219.049 39.1785 219.07Z" fill="#263238"/>
<path d="M45.0486 217.406C45.0856 217.469 44.9482 217.628 44.7157 217.712C44.4832 217.797 44.2772 217.765 44.2666 217.712C44.256 217.659 44.4198 217.548 44.6206 217.474C44.8214 217.4 45.0063 217.342 45.0486 217.406Z" fill="#263238"/>
<path d="M44.922 216.967C44.922 217.046 44.7107 217.11 44.4359 217.115C44.1611 217.12 43.9445 217.057 43.9498 216.983C43.9551 216.909 44.1717 216.84 44.4359 216.835C44.7001 216.83 44.9114 216.893 44.922 216.967Z" fill="#263238"/>
<path d="M64.8256 217.332V212.814L56.7257 212.756L56.657 219.519L57.1589 219.556C59.3939 219.699 68.5347 219.979 70.03 219.514C71.6996 218.996 64.8256 217.332 64.8256 217.332Z" fill="#FCA311"/>
<path d="M70.22 219.102C70.22 219.176 67.1924 219.239 63.4516 219.239C59.7107 219.239 56.6885 219.176 56.6885 219.102C56.6885 219.028 59.716 218.964 63.4516 218.964C67.1872 218.964 70.22 219.028 70.22 219.102Z" fill="#263238"/>
<path d="M64.9683 218.256C64.9049 218.219 64.9683 217.982 65.1321 217.728C65.2959 217.474 65.5178 217.369 65.5706 217.422C65.6235 217.474 65.5125 217.675 65.354 217.892C65.1955 218.109 65.037 218.293 64.9683 218.256Z" fill="#263238"/>
<path d="M65.486 218.552C65.4173 218.552 65.449 218.256 65.6128 217.976C65.7766 217.696 65.9826 217.527 66.0408 217.569C66.0989 217.612 65.9985 217.85 65.8506 218.098C65.7026 218.346 65.5599 218.579 65.486 218.552Z" fill="#263238"/>
<path d="M59.1243 219.07C59.0926 219.07 58.9764 218.975 58.7968 218.774C58.5839 218.516 58.3468 218.279 58.0887 218.066C57.835 217.863 57.5326 217.73 57.2117 217.68C56.9686 217.649 56.8048 217.68 56.789 217.649C56.7731 217.617 56.9263 217.506 57.2169 217.485C57.6005 217.477 57.9746 217.604 58.2737 217.844C58.5554 218.071 58.7919 218.349 58.9711 218.663C59.0926 218.896 59.156 219.049 59.1243 219.07Z" fill="#263238"/>
<path d="M64.9946 217.406C65.0316 217.469 64.8942 217.628 64.6618 217.712C64.4293 217.797 64.2232 217.765 64.2126 217.712C64.2021 217.659 64.3659 217.548 64.5666 217.474C64.7674 217.4 64.9524 217.342 64.9946 217.406Z" fill="#263238"/>
<path d="M64.8781 216.967C64.8781 217.046 64.6668 217.11 64.392 217.115C64.1173 217.12 63.9059 217.057 63.9112 216.983C63.9165 216.909 64.1279 216.84 64.392 216.835C64.6562 216.83 64.8781 216.893 64.8781 216.967Z" fill="#263238"/>
<path d="M94.6677 83.179C94.4564 82.9624 93.9333 83.0681 93.9333 83.0681C93.9857 82.7639 93.9857 82.4529 93.9333 82.1487C93.8382 81.8528 93.1724 81.911 93.1724 81.911C93.1417 81.6618 93.1417 81.4098 93.1724 81.1607C93.1777 81.1054 93.1659 81.0499 93.1384 81.0017C93.111 80.9535 93.0694 80.9149 93.0192 80.8912C92.7042 80.7628 92.3659 80.7016 92.0259 80.7116C91.619 80.421 93.2675 78.112 93.8804 77.3723C94.4934 76.6326 94.3824 76.0566 93.8382 76.0566C93.463 76.0566 91.5398 78.2758 90.948 79.0208C90.3562 79.7658 88.787 81.837 88.7341 80.1832C88.6813 78.5294 88.0155 77.2825 87.5981 77.0711C87.1807 76.8598 86.7369 77.3564 86.9641 77.8161C87.1637 78.3383 87.2882 78.8863 87.334 79.4435C87.3913 79.8873 87.3717 80.3378 87.2758 80.775C87.1007 81.5884 86.8622 82.3869 86.5625 83.1632H86.5203C86.5203 83.1632 74.9913 94.2219 74.1564 95.0092C73.4114 95.7172 58.4269 94.1691 55.4205 93.8521C54.3989 93.7026 53.3673 93.6319 52.3348 93.6407C51.0298 93.6989 50.7973 93.8838 49.4975 93.8996C46.215 93.9361 42.9401 94.224 39.7016 94.7609C38.2351 95.0102 36.8654 95.6575 35.7417 96.6321C34.618 97.6067 33.7836 98.8712 33.3294 100.288C30.3019 109.745 23.4437 132.132 22.2337 144.708C21.3194 146.366 20.494 148.071 19.7609 149.817C18.9103 152.131 19.1163 152.21 19.4016 152.263C20.1731 152.406 21.0502 148.253 21.3777 149.257C21.7053 150.261 19.7134 154.208 20.5218 154.324C21.5785 154.472 22.4186 150.097 22.519 149.748C22.6194 149.399 23.1425 149.51 23.0474 149.838C22.8942 150.303 21.4094 155.233 22.4451 155.391C23.0157 155.476 23.0791 154.435 23.0791 154.435C23.0791 154.435 24.1358 149.716 24.6166 149.812C25.0975 149.907 24.5849 152.691 24.3419 153.621C24.0988 154.551 24.437 155.021 24.9337 154.794C25.2718 154.636 26.0802 151.809 26.3021 150.889C26.5241 149.97 27.0788 147.423 27.8238 148.897C28.5688 150.372 29.6995 151.228 30.1645 151.249C30.2693 151.237 30.368 151.193 30.4481 151.125C30.5281 151.056 30.5858 150.965 30.6136 150.863C30.6415 150.762 30.6382 150.654 30.6043 150.554C30.5704 150.454 30.5074 150.367 30.4234 150.303C30.0235 149.912 29.6802 149.468 29.4037 148.982C29.1572 148.604 28.9784 148.185 28.8753 147.746C28.6624 146.869 28.5385 145.973 28.5054 145.072L28.4209 144.544C29.6044 138.684 33.0124 121.486 37.9315 110.501L39.9499 114.654L40.827 117.729L35.4482 131.007L58.3899 130.706L54.9661 117.528L59.1244 103.791C63.6208 103.891 75.1656 104.06 77.0889 103.188C79.5088 102.132 92.0259 86.3228 92.0259 86.3228C92.8418 85.6888 93.6231 85.0116 94.3665 84.2939C94.3665 84.2939 95.1274 83.6546 94.6677 83.179Z" fill="#FFBE9D"/>
<path d="M34.439 121.195C35.1047 118.923 38.5232 107.69 38.5232 107.69C38.5232 107.69 40.2035 116.847 39.7596 117.951C39.3514 118.896 38.869 119.808 38.3172 120.677C34.4389 126.579 34.9462 129.533 34.9462 129.533L58.3793 128.82C58.4321 125.544 56.493 117.925 56.0915 116.709C55.6899 115.494 57.0267 111.515 57.0267 111.515C57.0267 111.515 59.6685 108.826 59.5734 107.442C59.5232 106.198 59.3695 104.961 59.1137 103.743L73.3797 104.272L72.9306 94.6024L52.4405 92.5523C51.7272 94.5654 45.2758 93.5773 45.2758 93.5773C38.3119 93.8098 37.8786 95.0885 34.9832 97.3393C32.0877 99.5902 27.2954 118.907 27.2954 118.907L34.439 121.195Z" fill="#FCA311"/>
<path d="M48.293 118.907C47.8869 118.98 47.4733 119.001 47.0619 118.971C46.2957 118.971 45.2443 118.918 44.0871 118.802C42.93 118.685 41.8839 118.522 41.1389 118.374C40.7281 118.321 40.3253 118.218 39.9395 118.067C40.3526 118.067 40.7647 118.106 41.1706 118.184C41.9208 118.279 42.9617 118.411 44.1136 118.527C45.2654 118.643 46.3116 118.722 47.0671 118.775C47.479 118.78 47.8894 118.825 48.293 118.907Z" fill="#263238"/>
<path d="M49.899 116.915C49.4928 117.114 49.0633 117.262 48.6204 117.354C46.5124 117.908 44.3376 118.166 42.1585 118.12C41.7075 118.135 41.2566 118.092 40.8164 117.993C41.2614 117.937 41.71 117.914 42.1585 117.924C42.988 117.898 44.1293 117.84 45.3868 117.692C46.6443 117.544 47.7644 117.333 48.557 117.164C48.9972 117.046 49.4459 116.963 49.899 116.915Z" fill="#263238"/>
<path d="M57.7824 108.028C57.7717 108.431 57.7167 108.831 57.6186 109.222C57.4812 109.957 57.2698 110.961 57.0004 112.06C56.7309 113.159 56.472 114.173 56.2395 114.86C56.146 115.253 56.0078 115.634 55.8274 115.996C55.8568 115.594 55.9313 115.197 56.0493 114.812C56.2501 113.988 56.4773 113.037 56.7309 111.996C56.9845 110.955 57.2276 110.004 57.4283 109.18C57.4999 108.783 57.6187 108.397 57.7824 108.028Z" fill="#263238"/>
<path d="M34.6874 119.848C33.465 119.659 32.2587 119.378 31.0786 119.008C29.8728 118.726 28.6896 118.355 27.5386 117.898C28.7603 118.09 29.9665 118.371 31.1473 118.738C32.3534 119.019 33.5367 119.39 34.6874 119.848Z" fill="#263238"/>
<path d="M59.3675 103.627C59.1681 103.661 58.9644 103.661 58.7651 103.627C58.2132 103.57 57.6713 103.441 57.1536 103.241C56.2892 102.916 55.5024 102.414 54.8436 101.767C54.1848 101.12 53.6686 100.343 53.3282 99.4845C52.952 98.5403 52.7913 97.524 52.858 96.5098C52.8815 95.6733 53.1317 94.8588 53.5818 94.1533C53.8984 93.678 54.3713 93.3285 54.9186 93.1652C55.0648 93.1249 55.216 93.1053 55.3677 93.1071C55.4734 93.1071 55.5262 93.1071 55.5262 93.1071C55.5262 93.1071 55.3043 93.1071 54.9503 93.2498C54.4482 93.4352 54.0224 93.783 53.7403 94.2378C53.0218 95.3685 52.821 97.4344 53.5871 99.363C53.9437 100.272 54.5019 101.089 55.2198 101.751C55.808 102.293 56.4854 102.729 57.2223 103.04C57.9138 103.314 58.6331 103.51 59.3675 103.627Z" fill="#263238"/>
<path d="M71.6836 104.081C71.5514 102.461 71.5091 100.835 71.5568 99.2098C71.5154 97.5862 71.5648 95.9616 71.7047 94.3435C71.837 95.962 71.8794 97.5866 71.8316 99.2098C71.876 100.835 71.8266 102.462 71.6836 104.081Z" fill="#263238"/>
<path d="M52.3033 93.1441C52.3614 91.9659 52.4829 90.6344 52.4829 90.6344C52.4829 90.6344 55.3995 90.3121 55.5739 87.3004C55.7482 84.2887 55.5739 77.3406 55.5739 77.3406L50.2902 74.6354L44.4253 79.248L45.3288 94.3065L50.7076 94.65C51.1187 94.6613 51.5176 94.5092 51.8167 94.2269C52.1159 93.9446 52.2908 93.5552 52.3033 93.1441Z" fill="#FFBE9D"/>
<path d="M52.8264 84.9174C52.8264 84.9174 52.8264 84.9755 52.7789 85.0442C52.7395 85.094 52.6887 85.1335 52.6307 85.1593C52.5727 85.185 52.5093 85.1963 52.446 85.1921C52.1078 85.1921 51.7802 84.8011 51.664 84.3467C51.6087 84.1265 51.6087 83.896 51.664 83.6757C51.6748 83.5796 51.7095 83.4876 51.7649 83.4083C51.8202 83.3289 51.8945 83.2647 51.981 83.2213C52.0521 83.1919 52.1319 83.1919 52.2029 83.2213C52.2556 83.2475 52.2983 83.2901 52.3245 83.3428C52.3614 83.4326 52.3245 83.4908 52.3245 83.4855C52.3245 83.4802 52.3245 83.4326 52.2716 83.3798C52.244 83.342 52.2034 83.3156 52.1576 83.3059C52.1117 83.2961 52.0639 83.3036 52.0233 83.327C51.9585 83.3662 51.9046 83.4211 51.8667 83.4867C51.8289 83.5523 51.8082 83.6264 51.8066 83.7021C51.7622 83.8986 51.7622 84.1026 51.8066 84.2992C51.9123 84.7113 52.1976 85.0442 52.4513 85.0759C52.5009 85.0826 52.5514 85.079 52.5995 85.0654C52.6477 85.0518 52.6926 85.0283 52.7313 84.9966C52.7947 84.9543 52.8158 84.9121 52.8264 84.9174Z" fill="#EB996E"/>
<path d="M57.386 75.7132C56.9792 74.3289 55.505 73.642 54.163 73.2616C52.1182 72.6804 49.9096 72.4268 47.9124 73.1612C45.9152 73.8956 43.5164 75.1848 43.5164 77.3881C42.3381 77.293 41.6618 78.3234 41.1968 79.602C40.8996 80.381 40.7214 81.2004 40.6685 82.0325C40.5205 84.9174 39.7121 88.9013 37.8417 91.0148C36.785 92.193 35.3214 93.0067 34.719 94.4756C34.1907 95.7489 34.4654 97.2601 33.974 98.5493C33.5355 99.6853 32.5686 100.494 31.8606 101.482C31.1393 102.603 30.7147 103.888 30.6269 105.218C30.5391 106.548 30.7909 107.879 31.3586 109.085C31.9304 110.26 32.7354 111.306 33.7246 112.16C34.7139 113.014 35.8666 113.658 37.1125 114.052C39.5806 114.802 42.2124 114.828 44.6946 114.126C46.5575 113.68 48.2953 112.818 49.7775 111.605C51.2941 110.367 52.3358 108.642 52.7258 106.723C53.101 104.567 52.4986 102.375 52.0495 100.23C50.6441 93.4505 51.0456 93.0965 52.8209 86.8037C52.8632 86.6927 52.8843 86.5765 52.916 86.4655C52.9477 86.3546 52.9636 86.3017 52.9847 86.2172C53.0352 85.9684 53.0617 85.7154 53.064 85.4616C52.8047 85.558 52.5232 85.5784 52.2527 85.5204C51.9822 85.4624 51.7339 85.3283 51.537 85.134C51.3396 84.9268 51.202 84.6701 51.1387 84.391C51.0755 84.112 51.0889 83.821 51.1777 83.5489C51.3024 83.2514 51.4881 82.9834 51.723 82.7622C51.9578 82.541 52.2364 82.3716 52.5409 82.265C53.1274 82.0219 53.7561 81.8951 54.3321 81.6257C55.5526 81.0445 56.398 79.8398 56.9739 78.577C57.4474 77.7017 57.5935 76.6864 57.386 75.7132Z" fill="#263238"/>
<path d="M53.0376 85.0601C53.1493 85.2251 53.2415 85.4024 53.3124 85.5885C53.4709 85.9214 53.6822 86.3916 53.9147 86.9358L53.957 87.0362H53.846L53.3177 87.0838C52.9531 87.0838 52.6466 87.1525 52.2874 87.1472C52.2561 87.1401 52.2271 87.1253 52.2031 87.1041C52.179 87.0828 52.1608 87.0558 52.15 87.0257C52.1343 86.9776 52.1343 86.9258 52.15 86.8777C52.1622 86.8065 52.1781 86.7359 52.1975 86.6664L52.2926 86.2912C52.3404 86.041 52.4148 85.7965 52.5146 85.5621C52.5047 85.8172 52.4675 86.0705 52.4036 86.3176L52.3296 86.6928C52.3032 86.8196 52.2557 87.0151 52.3296 86.9992C52.5938 86.9992 52.9689 86.9411 53.3177 86.92L53.846 86.8724L53.7774 86.9887C53.5502 86.4603 53.3599 85.9636 53.249 85.6202C53.1517 85.4448 53.0804 85.2561 53.0376 85.0601Z" fill="#FCA311"/>
<path d="M34.9464 129.533L58.3796 128.82L68.5771 168.627L66.7014 214.288H54.3111L55.8275 169.599L46.766 141.886L48.1609 216.058L35.6386 216.243L34.3229 146.525C34.2648 144.586 33.6308 140.216 33.8686 138.293L34.9464 129.533Z" fill="#263238"/>
<path d="M49.8831 142.451C49.4996 142.476 49.1145 142.453 48.7366 142.383C48.0285 142.298 47.0616 142.15 45.9996 141.939C44.9376 141.728 43.9865 141.485 43.2997 141.289C42.9325 141.208 42.5773 141.081 42.2429 140.909C42.2429 140.829 43.9654 141.242 46.0789 141.67C48.1923 142.097 49.8937 142.372 49.8831 142.451Z" fill="#12203C"/>
<path d="M66.5743 211.784C66.5743 211.858 63.7687 211.921 60.3079 211.921C56.8471 211.921 54.0361 211.858 54.0361 211.784C54.0361 211.71 56.8418 211.646 60.3079 211.646C63.774 211.646 66.5743 211.705 66.5743 211.784Z" fill="#12203C"/>
<path d="M48.0497 214.13C48.0497 214.209 45.3233 214.267 41.9629 214.267C38.6024 214.267 35.8813 214.209 35.8813 214.13C35.8813 214.051 38.6077 213.992 41.9629 213.992C45.318 213.992 48.0497 214.056 48.0497 214.13Z" fill="#12203C"/>
<path d="M46.4329 213.94C46.3589 213.94 46.0313 197.735 45.6985 177.746C45.3656 157.758 45.1701 141.543 45.2388 141.543C45.3075 141.543 45.6456 157.742 45.9732 177.741C46.3008 197.74 46.5121 213.94 46.4329 213.94Z" fill="#12203C"/>
<path d="M64.91 211.784C64.9042 211.712 64.9042 211.639 64.91 211.567V210.933C64.91 210.363 64.9523 209.544 64.984 208.503C65.058 206.389 65.1636 203.319 65.2957 199.557C65.5811 191.991 65.9826 181.561 66.4212 170.048C66.4212 169.937 66.4212 169.831 66.4212 169.736V169.773C63.6472 158.678 61.1375 148.607 59.3146 141.321L57.2011 132.703C56.9581 131.694 56.7732 130.907 56.6411 130.357C56.5777 130.098 56.5354 129.897 56.4984 129.744C56.4778 129.675 56.4654 129.604 56.4614 129.533C56.4889 129.599 56.5101 129.668 56.5248 129.739C56.5671 129.887 56.6199 130.088 56.6939 130.341C56.8366 130.87 57.0426 131.673 57.3068 132.677C57.8352 134.716 58.5802 137.654 59.5101 141.273C61.3488 148.554 63.885 158.598 66.6959 169.71V169.747C66.6959 169.842 66.6959 169.953 66.6959 170.059C66.2257 181.572 65.7977 191.997 65.4859 199.563C65.3222 203.33 65.1848 206.379 65.0897 208.503C65.0368 209.559 64.9946 210.363 64.9681 210.933C64.9681 211.203 64.9365 211.414 64.9312 211.567C64.932 211.64 64.9249 211.713 64.91 211.784Z" fill="#12203C"/>
<path d="M60.8681 168.806C59.9781 169.099 59.0613 169.303 58.1311 169.414C56.9899 169.61 56.0177 169.747 55.5791 169.768V169.662C55.7218 169.705 55.7958 169.731 55.7958 169.752C55.7958 169.773 55.7059 169.752 55.558 169.752H55.241L55.558 169.657C55.9701 169.536 56.9423 169.335 58.0836 169.129C58.9989 168.93 59.9316 168.822 60.8681 168.806Z" fill="#12203C"/>
<path d="M60.6514 170.323C59.8273 170.361 59.0014 170.323 58.184 170.212C57.3586 170.195 56.5364 170.105 55.7271 169.942C57.3783 169.808 59.0405 169.936 60.6514 170.323Z" fill="#12203C"/>
<path opacity="0.2" d="M34.8459 130.373C35.1235 130.729 35.473 131.023 35.8718 131.235C36.2706 131.447 36.7096 131.573 37.1602 131.604C38.104 131.716 39.0586 131.698 39.9975 131.551C46.0474 130.88 52.4565 130.262 58.3795 128.82C50.7128 129.247 42.613 129.105 34.9463 129.533L34.8671 130.188" fill="black"/>
<g opacity="0.2">
<path d="M42.7449 141.178L47.0669 157.948L46.7658 141.886L42.7449 141.178Z" fill="black"/>
</g>
</svg>
