<?xml version="1.0" encoding="utf-8"?>
<!-- Generator: Adobe Illustrator 25.2.0, SVG Export Plug-In . SVG Version: 6.00 Build 0)  -->
<svg version="1.1" id="圖層_1" xmlns="http://www.w3.org/2000/svg" xmlns:xlink="http://www.w3.org/1999/xlink" x="0px" y="0px"
	 viewBox="0 0 512 512" style="enable-background:new 0 0 512 512;" xml:space="preserve">
<g>
	<g>
		<path d="M468.9,100.6c-7.7,0-14.7,3.1-19.7,8.2c-5,5-8.1,12-8.1,19.6l0,126.2l0,12l0,109.1v12l0,23.8h55.7V128.4
			C496.7,113,484.2,100.6,468.9,100.6z M484.7,399.4h-31.6v-271c0-8.7,7.1-15.8,15.8-15.8c8.7,0,15.8,7.1,15.8,15.8V399.4z"/>
		<path d="M468.9,88.5c-22,0-39.9,17.9-39.9,39.9v283.1c0,6.6,5.4,12,12,12h55.7c6.6,0,12-5.4,12.1-12V128.4
			C508.8,106.4,490.9,88.5,468.9,88.5z M484.7,128.4v271h-31.6v-271c0-8.7,7.1-15.8,15.8-15.8C477.6,112.6,484.7,119.7,484.7,128.4z
			"/>
	</g>
	<g>
		<path d="M68.2,182.7L68.2,182.7c-4.5-9.4-14-15.9-25.1-15.9c-15.3,0-27.8,12.4-27.8,27.8v216.9h55.6V194.6
			C70.9,190.3,69.9,186.3,68.2,182.7z M58.9,399.4H27.3V194.6c0-8.7,7.1-15.8,15.8-15.8c8.7,0,15.8,7.1,15.8,15.8V399.4z"/>
		<path d="M83.1,192.7c-0.2-4.1-1-8.1-2.4-11.8c-5.6-15.3-20.3-26.2-37.5-26.2c-22,0-39.9,17.9-39.9,39.9v216.9c0,6.6,5.4,12,12,12
			H71c6.6,0,12-5.4,12.1-12V194.6C83.1,194,83.1,193.3,83.1,192.7z M27.3,194.6c0-8.7,7.1-15.8,15.8-15.8c8.7,0,15.8,7.1,15.8,15.8
			v204.8H27.3V194.6z"/>
	</g>
	<g>
		<path d="M297.3,266.6v37.3H83.1v-37.3H71v109.1h370.1V266.6H297.3z M429,363.6H83.1v-35.7h226.2c6.6,0,12-5.4,12.1-12v-37.3H429
			V363.6z"/>
		<path d="M441.1,254.6H297.3v24H429v85H83v-85h0.1v-24H70.9c-6.6,0.1-11.9,5.4-11.9,12v109.1c0,6.6,5.3,12,11.9,12H441
			c6.7,0,12.1-5.4,12-12V266.6C453,260,447.6,254.6,441.1,254.6z"/>
	</g>
	<g>
		<path d="M375.8,171.2c-18,0-32.5,14.5-32.5,32.5s14.5,32.5,32.5,32.5s32.5-14.5,32.5-32.5S393.8,171.2,375.8,171.2z M375.8,224.2
			c-11.3,0-20.5-9.2-20.5-20.5s9.2-20.5,20.5-20.5s20.5,9.2,20.5,20.5S387.1,224.2,375.8,224.2z"/>
		<path d="M375.8,159.2c-24.5,0-44.5,20-44.5,44.5s19.9,44.5,44.5,44.5c24.6,0,44.5-20,44.5-44.5S400.4,159.2,375.8,159.2z
			 M375.8,224.2c-11.3,0-20.5-9.2-20.5-20.5s9.2-20.5,20.5-20.5s20.5,9.2,20.5,20.5S387.1,224.2,375.8,224.2z"/>
	</g>
	<g>
		<path d="M83.1,192.7L71,194.3v121.6h238.3V162.7L83.1,192.7z M297.3,303.9H83.1v-99.1l214.2-28.4V303.9z"/>
		<path d="M317.3,153.7c-2.6-2.3-6-3.4-9.5-2.9L80.7,180.9l-11.2,1.5c-0.4,0.1-0.9,0.1-1.3,0.2h0c-5.3,1.3-9.2,6.1-9.2,11.6v121.6
			c0,6.6,5.3,11.9,11.9,12h238.4c6.6,0,12-5.4,12.1-12V162.7C321.4,159.3,319.9,156,317.3,153.7z M297.3,303.9H83v-99.1l0.1,0
			l214.2-28.4V303.9z"/>
	</g>
</g>
</svg>
