<svg width="28" height="28" viewBox="0 0 28 28" fill="none" xmlns="http://www.w3.org/2000/svg">
<path d="M25.3298 13.7295C24.4379 11.3095 22.8894 9.21663 20.8758 7.70961C18.8623 6.2026 16.4718 5.3475 14 5.25C11.5282 5.3475 9.13772 6.2026 7.12415 7.70961C5.11058 9.21663 3.56213 11.3095 2.67018 13.7295C2.60994 13.9043 2.60994 14.0957 2.67018 14.2705C3.56213 16.6905 5.11058 18.7834 7.12415 20.2904C9.13772 21.7974 11.5282 22.6525 14 22.75C16.4718 22.6525 18.8623 21.7974 20.8758 20.2904C22.8894 18.7834 24.4379 16.6905 25.3298 14.2705C25.3901 14.0957 25.3901 13.9043 25.3298 13.7295ZM14 21.1591C9.98072 21.1591 5.73393 18.033 4.19447 14C5.73393 9.96705 9.98072 6.84091 14 6.84091C18.0193 6.84091 22.2661 9.96705 23.8055 14C22.2661 18.033 18.0193 21.1591 14 21.1591Z" fill="#1F6670"/>
<path d="M14 9.625C13.1347 9.625 12.2888 9.88159 11.5694 10.3623C10.8499 10.8431 10.2892 11.5263 9.95803 12.3258C9.6269 13.1252 9.54026 14.0049 9.70907 14.8535C9.87788 15.7022 10.2946 16.4817 10.9064 17.0936C11.5183 17.7054 12.2978 18.1221 13.1465 18.2909C13.9951 18.4597 14.8748 18.3731 15.6742 18.042C16.4737 17.7108 17.1569 17.1501 17.6377 16.4306C18.1184 15.7112 18.375 14.8653 18.375 14C18.375 12.8397 17.9141 11.7269 17.0936 10.9064C16.2731 10.0859 15.1603 9.625 14 9.625ZM14 16.9167C13.4231 16.9167 12.8592 16.7456 12.3796 16.4251C11.8999 16.1046 11.5261 15.6491 11.3054 15.1162C11.0846 14.5832 11.0268 13.9968 11.1394 13.431C11.2519 12.8652 11.5297 12.3455 11.9376 11.9376C12.3455 11.5297 12.8652 11.2519 13.431 11.1394C13.9968 11.0268 14.5832 11.0846 15.1162 11.3054C15.6491 11.5261 16.1046 11.8999 16.4251 12.3796C16.7456 12.8592 16.9167 13.4231 16.9167 14C16.9167 14.7735 16.6094 15.5154 16.0624 16.0624C15.5154 16.6094 14.7735 16.9167 14 16.9167Z" fill="#1F6670"/>
</svg>
