<svg width="48" height="48" viewBox="0 0 48 48" fill="none" xmlns="http://www.w3.org/2000/svg">
<path opacity="0.4" d="M22.5005 32.5392C22.5005 31.7112 23.1725 31.0272 24.0005 31.0272C24.8285 31.0272 25.5005 31.6892 25.5005 32.5172V32.5392C25.5005 33.3672 24.8285 34.0392 24.0005 34.0392C23.1725 34.0392 22.5005 33.3672 22.5005 32.5392Z" fill="black"/>
<path d="M9.59137 40.8358H38.5554C40.8494 40.7158 42.6134 38.7618 42.4954 36.4678C42.4694 36.0038 42.3694 35.5458 42.1934 35.1178L27.6394 9.64577C26.5274 7.63577 23.9974 6.90777 21.9874 8.02177C21.3034 8.39777 20.7394 8.96177 20.3614 9.64577L5.80737 35.1178C4.94337 37.2458 5.96737 39.6698 8.09337 40.5358C8.52537 40.7098 8.98137 40.8098 9.44537 40.8358" stroke="black" stroke-width="1.5" stroke-linecap="round" stroke-linejoin="round"/>
<path opacity="0.4" d="M23.9798 26.7922V20.5922" stroke="black" stroke-width="1.5" stroke-linecap="round" stroke-linejoin="round"/>
</svg>
