<svg width="265" height="56" viewBox="0 0 265 56" fill="none" xmlns="http://www.w3.org/2000/svg">
<path d="M86.5666 33.2128C87.6465 34.5571 88.1754 36.0998 88.1754 37.7967C88.1754 39.2512 87.8008 40.5735 87.0294 41.7415C86.2801 42.9096 85.1782 43.8352 83.7458 44.5183C82.3133 45.2015 80.6384 45.5321 78.7431 45.5321H67.2612V16.8164H78.2142C80.1756 16.8164 81.8505 17.147 83.2609 17.8081C84.6714 18.4693 85.7292 19.3508 86.4344 20.4747C87.1396 21.5987 87.5143 22.8328 87.5143 24.2212C87.5143 25.8741 87.0735 27.2625 86.192 28.3644C85.3105 29.4663 84.1204 30.2817 82.6438 30.8106C84.1865 31.0971 85.4868 31.8905 86.5666 33.2569V33.2128ZM71.9774 28.8713H77.7955C79.3381 28.8713 80.5502 28.5187 81.4097 27.8134C82.2692 27.1082 82.71 26.0945 82.71 24.7722C82.71 23.4499 82.2692 22.4582 81.4097 21.7309C80.5502 21.0037 79.3381 20.629 77.7955 20.629H71.9774V28.8492V28.8713ZM82.1149 40.5294C83.0185 39.7581 83.4813 38.6782 83.4813 37.3119C83.4813 35.9455 82.9965 34.7995 82.0268 33.9621C81.0571 33.1246 79.7789 32.7279 78.1921 32.7279H71.9994V41.6975H78.3685C79.9552 41.6975 81.2114 41.3228 82.137 40.5294H82.1149Z" fill="#312F8B"/>
<path d="M110.235 16.8164V20.651H102.588V45.5321H97.872V20.651H90.1807V16.8164H110.235Z" fill="#312F8B"/>
<path d="M128.307 45.5321L121.695 34.0502H118.103V45.5321H113.387V16.8164H123.304C125.508 16.8164 127.381 17.2131 128.902 17.9844C130.422 18.7558 131.568 19.7916 132.34 21.0918C133.089 22.3921 133.485 23.8245 133.485 25.4333C133.485 27.3066 132.935 29.0035 131.855 30.5462C130.775 32.0888 129.1 33.1246 126.83 33.6756L133.948 45.5762H128.329L128.307 45.5321ZM118.103 30.2817H123.304C125.067 30.2817 126.389 29.8409 127.293 28.9594C128.196 28.0779 128.637 26.8878 128.637 25.4113C128.637 23.9347 128.196 22.7667 127.315 21.9293C126.433 21.0918 125.089 20.6731 123.304 20.6731H118.103V30.3037V30.2817Z" fill="#312F8B"/>
<path d="M141.948 44.4513C140.207 43.4816 138.841 42.0932 137.849 40.3081C136.857 38.523 136.351 36.4735 136.351 34.1374C136.351 31.8014 136.857 29.7739 137.871 27.9888C138.885 26.2037 140.273 24.8153 142.036 23.8456C143.799 22.876 145.761 22.3911 147.943 22.3911C150.124 22.3911 152.086 22.876 153.849 23.8456C155.612 24.8153 157 26.1817 158.014 27.9888C159.028 29.7739 159.535 31.8234 159.535 34.1374C159.535 36.4514 159.006 38.501 157.97 40.2861C156.912 42.0712 155.502 43.4596 153.695 44.4292C151.887 45.3989 149.904 45.9058 147.722 45.9058C145.54 45.9058 143.623 45.421 141.904 44.4292L141.948 44.4513ZM151.182 40.9693C152.24 40.3963 153.1 39.5147 153.761 38.3688C154.422 37.2007 154.752 35.8123 154.752 34.1595C154.752 32.5066 154.444 31.1182 153.805 29.9722C153.166 28.8262 152.328 27.9668 151.292 27.3938C150.235 26.8208 149.111 26.5343 147.899 26.5343C146.686 26.5343 145.563 26.8208 144.527 27.3938C143.491 27.9668 142.676 28.8262 142.058 29.9722C141.441 31.1182 141.155 32.5066 141.155 34.1595C141.155 36.6057 141.772 38.501 143.028 39.8453C144.284 41.1896 145.871 41.8508 147.766 41.8508C148.978 41.8508 150.124 41.5643 151.182 40.9913V40.9693Z" fill="#312F8B"/>
<path d="M166.698 44.4513C164.957 43.4816 163.59 42.0932 162.599 40.3081C161.607 38.523 161.1 36.4735 161.1 34.1374C161.1 31.8014 161.607 29.7739 162.621 27.9888C163.634 26.2037 165.023 24.8153 166.786 23.8456C168.549 22.876 170.51 22.3911 172.692 22.3911C174.874 22.3911 176.835 22.876 178.598 23.8456C180.361 24.8153 181.75 26.1817 182.764 27.9888C183.777 29.7739 184.284 31.8234 184.284 34.1374C184.284 36.4514 183.755 38.501 182.72 40.2861C181.662 42.0712 180.251 43.4596 178.444 44.4292C176.637 45.3989 174.654 45.9058 172.472 45.9058C170.29 45.9058 168.373 45.421 166.654 44.4292L166.698 44.4513ZM175.932 40.9693C176.99 40.3963 177.849 39.5147 178.51 38.3688C179.171 37.2007 179.502 35.8123 179.502 34.1595C179.502 32.5066 179.193 31.1182 178.554 29.9722C177.915 28.8262 177.078 27.9668 176.042 27.3938C174.984 26.8208 173.86 26.5343 172.648 26.5343C171.436 26.5343 170.312 26.8208 169.276 27.3938C168.24 27.9668 167.425 28.8262 166.808 29.9722C166.191 31.1182 165.904 32.5066 165.904 34.1595C165.904 36.6057 166.521 38.501 167.778 39.8453C169.034 41.1896 170.621 41.8508 172.516 41.8508C173.728 41.8508 174.874 41.5643 175.932 40.9913V40.9693Z" fill="#312F8B"/>
<path d="M219.787 23.5169C221.198 24.2662 222.322 25.3681 223.137 26.8227C223.953 28.2772 224.349 30.0402 224.349 32.1118V45.5551H219.677V32.817C219.677 30.7675 219.17 29.2248 218.157 28.1229C217.143 27.043 215.754 26.4921 213.991 26.4921C212.228 26.4921 210.818 27.043 209.804 28.1229C208.768 29.2028 208.262 30.7675 208.262 32.817V45.5551H203.589V32.817C203.589 30.7675 203.083 29.2248 202.069 28.1229C201.055 27.043 199.667 26.4921 197.904 26.4921C196.141 26.4921 194.752 27.043 193.716 28.1229C192.681 29.2028 192.174 30.7675 192.174 32.817V45.5551H187.458V22.7897H192.174V25.3902C192.945 24.4646 193.915 23.7153 195.105 23.2084C196.295 22.6795 197.551 22.415 198.917 22.415C200.724 22.415 202.355 22.8117 203.788 23.5831C205.22 24.3544 206.322 25.4783 207.094 26.9329C207.777 25.5445 208.857 24.4646 210.311 23.6492C211.766 22.8338 213.33 22.4371 215.027 22.4371C216.812 22.4371 218.421 22.8117 219.854 23.561L219.787 23.5169Z" fill="#312F8B"/>
<path d="M249.451 35.902H232.04C232.173 37.7091 232.856 39.1857 234.068 40.2876C235.28 41.3895 236.757 41.9405 238.52 41.9405C241.054 41.9405 242.839 40.8826 243.897 38.767H248.988C248.305 40.8606 247.048 42.5796 245.241 43.9019C243.434 45.2462 241.186 45.9073 238.52 45.9073C236.338 45.9073 234.398 45.4225 232.68 44.4308C230.961 43.4611 229.616 42.0727 228.625 40.2876C227.655 38.5025 227.148 36.453 227.148 34.1169C227.148 31.7809 227.633 29.7093 228.58 27.9463C229.528 26.1832 230.872 24.7948 232.591 23.8251C234.31 22.8554 236.294 22.3706 238.52 22.3706C240.745 22.3706 242.575 22.8334 244.272 23.781C245.946 24.7287 247.269 26.0289 248.194 27.7259C249.12 29.4228 249.605 31.3622 249.605 33.566C249.605 34.4255 249.539 35.1968 249.429 35.88L249.451 35.902ZM244.69 32.0894C244.668 30.3484 244.051 28.96 242.839 27.9242C241.627 26.8884 240.128 26.3595 238.343 26.3595C236.713 26.3595 235.324 26.8664 234.178 27.9022C233.01 28.938 232.327 30.3264 232.107 32.0894H244.712H244.69Z" fill="#312F8B"/>
<path d="M260.095 23.3608C261.241 22.7217 262.607 22.3911 264.172 22.3911V27.2615H262.982C261.131 27.2615 259.742 27.7243 258.795 28.672C257.847 29.6196 257.362 31.2284 257.362 33.5424V45.5312H252.646V22.7658H257.362V26.0715C258.045 24.9035 258.971 24.0219 260.117 23.3608H260.095Z" fill="#312F8B"/>
<path d="M3.48203 51.1957C4.29744 51.1957 4.93654 50.5345 4.93654 49.7412V18.425C4.93654 18.0503 5.13489 17.7198 5.42138 17.5214L25.3439 5.11395C25.6965 4.89357 26.1593 4.89357 26.5119 5.11395L44.6493 17.6096C45.0459 17.8961 45.2884 18.3368 45.2884 18.8217V49.5649C45.2884 50.3803 44.6272 51.0635 43.7898 51.0635H29.0022C28.297 51.0635 27.746 50.4905 27.746 49.8073V41.9176C27.746 41.6752 27.5477 41.4769 27.3053 41.4769H23.2282C22.9858 41.4769 22.7874 41.6752 22.7874 41.9176V50.6447C22.7874 53.5978 25.1896 56 28.1427 56H43.7677C47.3159 56 50.2029 53.113 50.2029 49.5649V18.6013C50.2029 16.6399 49.2332 14.7887 47.6024 13.6868L29.3107 1.05893C27.3273 -0.307432 24.7709 -0.351508 22.7434 0.926703L2.82088 13.3121C1.05783 14.414 0 16.3314 0 18.4029V49.7191C0 50.5345 0.661144 51.1736 1.45452 51.1736H3.45999L3.48203 51.1957Z" fill="#6151FF"/>
<path d="M25.2557 29.3559V26.0723C21.8398 26.0723 19.063 28.8491 19.063 32.265H22.3467C22.3467 30.6562 23.6469 29.3559 25.2557 29.3559Z" fill="#8787FF"/>
<path d="M25.2563 45.3104C18.1159 45.3104 12.2979 39.4923 12.2979 32.352C12.2979 25.2116 18.1159 19.3936 25.2563 19.3936C32.3966 19.3936 38.2147 25.2116 38.2147 32.352C38.2147 39.4923 32.3966 45.3104 25.2563 45.3104ZM25.2563 24.3301C20.8266 24.3301 17.2344 27.9223 17.2344 32.352C17.2344 36.7816 20.8266 40.3739 25.2563 40.3739C29.6859 40.3739 33.2782 36.7816 33.2782 32.352C33.2782 27.9223 29.6859 24.3301 25.2563 24.3301Z" fill="#6151FF"/>
</svg>
