<svg width="22" height="22" viewBox="0 0 22 22" fill="none" xmlns="http://www.w3.org/2000/svg">
<g clip-path="url(#clip0_119_1197)">
<path d="M1.72334 0.0687504C0.962789 0.270702 0.318257 0.902344 0.0862261 1.67578C0.000288581 1.95078 0.000288579 2.07969 0.00888233 8.76562L0.021773 15.5762L0.116304 15.834C0.335445 16.4098 0.765132 16.8824 1.31084 17.1445C1.4999 17.2348 1.75771 17.3293 1.88232 17.3551C2.03271 17.3852 3.07255 17.4023 4.96318 17.4023H7.8206L8.80458 19.3703C9.67685 21.1148 9.81435 21.3598 10.0163 21.566C10.33 21.884 10.5921 22 11.0003 22C11.4085 22 11.6706 21.884 11.9843 21.566C12.1862 21.3598 12.3237 21.1148 13.196 19.3703L14.18 17.4023H17.0503C20.23 17.4023 20.2171 17.4023 20.7499 17.123C21.2526 16.8566 21.678 16.3711 21.8843 15.834L21.9788 15.5762L21.9917 8.80859C22.0003 4.05195 21.9874 1.97227 21.953 1.81328C21.8327 1.22461 21.3214 0.558594 20.7714 0.270702C20.2214 -0.0214844 20.9347 0 10.9788 0.00429726C3.24013 0.00429726 1.92099 0.0128899 1.72334 0.0687504ZM11.7007 2.91758C12.2593 3.13672 12.7104 3.61367 12.8995 4.18945C12.9983 4.48594 12.9983 4.52461 12.9983 6.29492C12.9983 8.01367 12.994 8.1125 12.9081 8.36172C12.7964 8.68828 12.5515 9.06211 12.3151 9.26406C12.2206 9.35 11.9929 9.4918 11.8167 9.57773C11.503 9.72812 11.4815 9.73242 11.0003 9.73242C10.519 9.73242 10.4976 9.72812 10.1839 9.57773C9.63388 9.31133 9.30732 8.94609 9.10537 8.37461C9.00654 8.1082 9.00224 8.03945 8.98935 6.47539C8.97216 4.6793 8.99794 4.39141 9.1999 3.95742C9.44052 3.4332 9.83154 3.08516 10.3901 2.8918C10.764 2.75859 11.3183 2.77148 11.7007 2.91758ZM11.7909 11.4641C12.4741 11.782 12.8737 12.3191 12.9811 13.041C13.1616 14.2914 11.9628 15.4688 10.7167 15.2625C9.23427 15.0176 8.5124 13.3117 9.38896 12.1172C9.79716 11.5586 10.3515 11.2965 11.0647 11.3137C11.4472 11.3223 11.5288 11.3395 11.7909 11.4641Z" fill="#717D96"/>
<path d="M10.7452 4.29365C10.6093 4.36396 10.4666 4.57076 10.4224 4.76515C10.3782 4.97195 10.3782 7.80096 10.4224 8.00775C10.4666 8.18974 10.5991 8.3924 10.7316 8.47512C10.8539 8.5537 11.1461 8.5537 11.2685 8.47512C11.401 8.3924 11.5335 8.18974 11.5777 8.00775C11.6218 7.80096 11.6218 4.97195 11.5777 4.76515C11.5301 4.56662 11.3908 4.36396 11.2481 4.29365C11.1088 4.22333 10.8777 4.22333 10.7452 4.29365Z" fill="#717D96"/>
<path d="M10.706 12.7648C10.5622 12.8504 10.4595 12.9908 10.4149 13.1518C10.3191 13.5148 10.6204 13.8983 11.0005 13.8983C11.2779 13.8983 11.5416 13.6757 11.5998 13.3949C11.6443 13.1689 11.4902 12.8641 11.2711 12.7511C11.1341 12.6792 10.8362 12.686 10.706 12.7648Z" fill="#717D96"/>
</g>
<defs>
<clipPath id="clip0_119_1197">
<rect width="22" height="22" fill="white"/>
</clipPath>
</defs>
</svg>
