<svg width="22" height="22" viewBox="0 0 22 22" fill="none" xmlns="http://www.w3.org/2000/svg">
<path fill-rule="evenodd" clip-rule="evenodd" d="M9.9055 3.70752e-08C8.32306 0.000171375 6.76369 0.379404 5.35792 1.10595C3.95216 1.8325 2.7409 2.88522 1.82555 4.17599C0.910203 5.46676 0.317399 6.95801 0.0967652 8.52491C-0.123869 10.0918 0.0340871 11.6888 0.55741 13.1821C1.08073 14.6754 1.95419 16.0217 3.10467 17.1081C4.25515 18.1946 5.64917 18.9896 7.17004 19.4267C8.6909 19.8638 10.2944 19.9303 11.8462 19.6205C13.398 19.3106 14.853 18.6336 16.0894 17.646L20.1346 21.691C20.3422 21.8915 20.6202 22.0025 20.9088 22C21.1974 21.9975 21.4735 21.8817 21.6776 21.6776C21.8817 21.4735 21.9974 21.1975 22 20.9089C22.0025 20.6203 21.8915 20.3423 21.691 20.1347L17.6458 16.0897C18.8104 14.6322 19.5397 12.8756 19.7499 11.0219C19.96 9.16826 19.6424 7.29293 18.8337 5.61179C18.0249 3.93066 16.7579 2.51205 15.1784 1.51926C13.5989 0.526463 11.7711 -0.000161334 9.9055 3.70752e-08ZM3.30112 9.90609C3.30112 9.03883 3.47195 8.18006 3.80385 7.37882C4.13575 6.57758 4.62222 5.84956 5.2355 5.23631C5.84877 4.62307 6.57683 4.13662 7.37811 3.80473C8.17939 3.47285 9.0382 3.30203 9.9055 3.30203C10.7728 3.30203 11.6316 3.47285 12.4329 3.80473C13.2342 4.13662 13.9622 4.62307 14.5755 5.23631C15.1888 5.84956 15.6752 6.57758 16.0071 7.37882C16.3391 8.18006 16.5099 9.03883 16.5099 9.90609C16.5099 11.6576 15.8141 13.3374 14.5755 14.5759C13.3369 15.8144 11.6571 16.5101 9.9055 16.5101C8.15391 16.5101 6.47406 15.8144 5.2355 14.5759C3.99693 13.3374 3.30112 11.6576 3.30112 9.90609Z" fill="#001944"/>
</svg>
