<svg width="23" height="22" viewBox="0 0 23 22" fill="none" xmlns="http://www.w3.org/2000/svg">
<path fill-rule="evenodd" clip-rule="evenodd" d="M19.7143 22H4.18182C3.07273 22 2.00907 21.5569 1.22483 20.7682C0.440583 19.9795 0 18.9098 0 17.7944V2.10533C0 0.823234 1.26171 0.00976016 2.37169 0.396671C2.5306 0.451944 2.68592 0.532451 2.83408 0.639392L3.04317 0.78959C3.55175 1.1525 4.16016 1.34695 4.78376 1.34587C5.40736 1.3448 6.01511 1.14825 6.52244 0.783582C7.23459 0.273886 8.08696 0 8.96104 0C9.83512 0 10.6875 0.273886 11.3996 0.783582C11.907 1.14825 12.5147 1.3448 13.1383 1.34587C13.7619 1.34695 14.3703 1.1525 14.8789 0.78959L15.088 0.639392C16.2744 -0.213735 17.9221 0.639391 17.9221 2.10533V11.1857H22.1039C22.3416 11.1857 22.5695 11.2807 22.7375 11.4497C22.9056 11.6187 23 11.8479 23 12.0869V18.6956C23 19.572 22.6538 20.4125 22.0376 21.0322C21.4214 21.6519 20.5857 22 19.7143 22ZM18.2208 12.9881V18.6956C18.2208 19.094 18.3781 19.476 18.6582 19.7577C18.9383 20.0394 19.3182 20.1976 19.7143 20.1976C20.1104 20.1976 20.4903 20.0394 20.7704 19.7577C21.0504 19.476 21.2078 19.094 21.2078 18.6956V12.9881H18.2208ZM13.1429 7.88136C13.1429 7.64234 13.0484 7.41312 12.8804 7.24412C12.7123 7.07511 12.4844 6.98017 12.2468 6.98017H5.07792C4.84026 6.98017 4.61233 7.07511 4.44428 7.24412C4.27623 7.41312 4.18182 7.64234 4.18182 7.88136C4.18182 8.12037 4.27623 8.34959 4.44428 8.51859C4.61233 8.6876 4.84026 8.78255 5.07792 8.78255H12.2468C12.4844 8.78255 12.7123 8.6876 12.8804 8.51859C13.0484 8.34959 13.1429 8.12037 13.1429 7.88136ZM11.9481 11.4861C11.9481 11.2471 11.8536 11.0179 11.6856 10.8489C11.5175 10.6799 11.2896 10.5849 11.0519 10.5849H5.07792C4.84026 10.5849 4.61233 10.6799 4.44428 10.8489C4.27623 11.0179 4.18182 11.2471 4.18182 11.4861C4.18182 11.7251 4.27623 11.9543 4.44428 12.1234C4.61233 12.2924 4.84026 12.3873 5.07792 12.3873H11.0519C11.2896 12.3873 11.5175 12.2924 11.6856 12.1234C11.8536 11.9543 11.9481 11.7251 11.9481 11.4861ZM12.2468 14.1897C12.4844 14.1897 12.7123 14.2846 12.8804 14.4536C13.0484 14.6226 13.1429 14.8519 13.1429 15.0909C13.1429 15.3299 13.0484 15.5591 12.8804 15.7281C12.7123 15.8971 12.4844 15.9921 12.2468 15.9921H5.07792C4.84026 15.9921 4.61233 15.8971 4.44428 15.7281C4.27623 15.5591 4.18182 15.3299 4.18182 15.0909C4.18182 14.8519 4.27623 14.6226 4.44428 14.4536C4.61233 14.2846 4.84026 14.1897 5.07792 14.1897H12.2468Z" fill="#717D96"/>
</svg>
