<svg width="10" height="10" viewBox="0 0 10 10" fill="none" xmlns="http://www.w3.org/2000/svg">
<path fill-rule="evenodd" clip-rule="evenodd" d="M1.126 6H1C0.734784 6 0.48043 5.89464 0.292893 5.70711C0.105357 5.51957 0 5.26522 0 5C0 4.73478 0.105357 4.48043 0.292893 4.29289C0.48043 4.10536 0.734784 4 1 4H1.126C1.2205 3.633 1.366 3.2865 1.554 2.968L1.464 2.8785C1.27649 2.69086 1.1712 2.43642 1.1713 2.17115C1.17139 1.90588 1.27686 1.65151 1.4645 1.464C1.65214 1.27649 1.90658 1.1712 2.17185 1.1713C2.43712 1.17139 2.69149 1.27686 2.879 1.4645L2.968 1.554C3.29014 1.36347 3.63757 1.21938 4 1.126V1C4 0.734784 4.10536 0.48043 4.29289 0.292893C4.48043 0.105357 4.73478 0 5 0C5.26522 0 5.51957 0.105357 5.70711 0.292893C5.89464 0.48043 6 0.734784 6 1V1.126C6.367 1.2205 6.7135 1.366 7.032 1.554L7.1215 1.464C7.30914 1.27649 7.56358 1.1712 7.82885 1.1713C7.9602 1.17134 8.09026 1.19726 8.21159 1.24757C8.33292 1.29788 8.44316 1.37159 8.536 1.4645C8.62885 1.55741 8.70248 1.6677 8.7527 1.78907C8.80292 1.91043 8.82875 2.04051 8.8287 2.17185C8.82866 2.3032 8.80274 2.43326 8.75243 2.55459C8.70212 2.67592 8.62841 2.78616 8.5355 2.879L8.446 2.968C8.6345 3.2865 8.7795 3.633 8.874 4H9C9.26522 4 9.51957 4.10536 9.70711 4.29289C9.89464 4.48043 10 4.73478 10 5C10 5.26522 9.89464 5.51957 9.70711 5.70711C9.51957 5.89464 9.26522 6 9 6H8.874C8.78062 6.36243 8.63653 6.70986 8.446 7.032L8.536 7.1215C8.62885 7.21441 8.70248 7.3247 8.7527 7.44607C8.80292 7.56743 8.82875 7.6975 8.8287 7.82885C8.82866 7.9602 8.80274 8.09026 8.75243 8.21159C8.70212 8.33292 8.62841 8.44316 8.5355 8.536C8.44259 8.62885 8.3323 8.70248 8.21093 8.7527C8.08957 8.80292 7.95949 8.82875 7.82815 8.8287C7.6968 8.82866 7.56674 8.80274 7.44541 8.75243C7.32408 8.70212 7.21384 8.62841 7.121 8.5355L7.032 8.446C6.70986 8.63653 6.36243 8.78062 6 8.874V9C6 9.26522 5.89464 9.51957 5.70711 9.70711C5.51957 9.89464 5.26522 10 5 10C4.73478 10 4.48043 9.89464 4.29289 9.70711C4.10536 9.51957 4 9.26522 4 9V8.874C3.63757 8.78062 3.29014 8.63653 2.968 8.446L2.8785 8.536C2.78559 8.62885 2.6753 8.70248 2.55393 8.7527C2.43257 8.80292 2.30249 8.82875 2.17115 8.8287C2.0398 8.82866 1.90974 8.80274 1.78841 8.75243C1.66708 8.70212 1.55684 8.62841 1.464 8.5355C1.37116 8.44259 1.29752 8.3323 1.2473 8.21093C1.19708 8.08957 1.17125 7.95949 1.1713 7.82815C1.17134 7.6968 1.19726 7.56674 1.24757 7.44541C1.29788 7.32408 1.37159 7.21384 1.4645 7.121L1.554 7.032C1.36347 6.70986 1.21938 6.36243 1.126 6ZM3.5 4L2.5 5L4.5 7L7.5 4L6.5 3L4.5 5L3.5 4Z" fill="#54DB79"/>
</svg>
