<svg width="24" height="24" viewBox="0 0 24 24" fill="none" xmlns="http://www.w3.org/2000/svg">
<mask id="mask0_205_4234" style="mask-type:alpha" maskUnits="userSpaceOnUse" x="0" y="0" width="24" height="24">
<rect width="24" height="24" fill="#D9D9D9"/>
</mask>
<g mask="url(#mask0_205_4234)">
<path d="M2.24967 18.5C2.03709 18.5 1.85901 18.4281 1.71542 18.2843C1.57181 18.1406 1.5 17.9625 1.5 17.75V5.25C1.5 5.0375 1.57192 4.85938 1.71575 4.71563C1.85955 4.57188 2.03774 4.5 2.25033 4.5C2.46293 4.5 2.64102 4.57188 2.7846 4.71563C2.9282 4.85938 3 5.0375 3 5.25V14H11.25V7.99998C11.25 7.59101 11.3978 7.23878 11.6933 6.94328C11.9888 6.64776 12.341 6.5 12.75 6.5H19C19.9625 6.5 20.7864 6.84271 21.4719 7.52813C22.1573 8.21354 22.5 9.03749 22.5 9.99998V17.75C22.5 17.9625 22.4281 18.1406 22.2843 18.2843C22.1404 18.4281 21.9622 18.5 21.7497 18.5C21.5371 18.5 21.359 18.4281 21.2154 18.2843C21.0718 18.1406 21 17.9625 21 17.75V15.5H3V17.75C3 17.9625 2.92809 18.1406 2.78428 18.2843C2.64048 18.4281 2.46227 18.5 2.24967 18.5ZM6.99887 12.5576C6.28809 12.5576 5.68431 12.3089 5.18753 11.8113C4.69074 11.3138 4.44235 10.7096 4.44235 9.99885C4.44235 9.28807 4.69112 8.68428 5.18865 8.1875C5.6862 7.69072 6.29036 7.44232 7.00113 7.44232C7.71191 7.44232 8.31569 7.69109 8.81247 8.18863C9.30926 8.68618 9.55765 9.29033 9.55765 10.0011C9.55765 10.7119 9.30888 11.3157 8.81135 11.8125C8.3138 12.3092 7.70964 12.5576 6.99887 12.5576ZM12.75 14H21V9.99998C21 9.44998 20.8042 8.97914 20.4125 8.58748C20.0208 8.19581 19.55 7.99998 19 7.99998H12.75V14ZM7 11.0577C7.29615 11.0577 7.54647 10.9554 7.75098 10.751C7.95546 10.5465 8.0577 10.2961 8.0577 9.99998C8.0577 9.70383 7.95546 9.4535 7.75098 9.249C7.54647 9.04452 7.29615 8.94228 7 8.94228C6.70385 8.94228 6.45353 9.04452 6.24902 9.249C6.04454 9.4535 5.9423 9.70383 5.9423 9.99998C5.9423 10.2961 6.04454 10.5465 6.24902 10.751C6.45353 10.9554 6.70385 11.0577 7 11.0577Z" fill="#1C1B1F"/>
</g>
</svg>
