<svg width="14" height="15" viewBox="0 0 14 15" fill="none" xmlns="http://www.w3.org/2000/svg">
<g clip-path="url(#clip0_119_1124)">
<path d="M7.00054 2.1792C4.82655 2.1792 3.06274 3.85796 3.06274 5.92558C3.06274 8.30466 5.68794 12.0748 6.65188 13.377C6.6919 13.432 6.74434 13.4767 6.80493 13.5076C6.86553 13.5384 6.93255 13.5545 7.00054 13.5545C7.06853 13.5545 7.13556 13.5384 7.19615 13.5076C7.25675 13.4767 7.30919 13.432 7.3492 13.377C8.31314 12.0754 10.9383 8.30658 10.9383 5.92558C10.9383 3.85796 9.17454 2.1792 7.00054 2.1792Z" stroke="#001944" stroke-width="0.933404" stroke-linecap="round" stroke-linejoin="round"/>
<path d="M7.00083 7.42983C7.72576 7.42983 8.31343 6.84215 8.31343 6.11723C8.31343 5.3923 7.72576 4.80463 7.00083 4.80463C6.2759 4.80463 5.68823 5.3923 5.68823 6.11723C5.68823 6.84215 6.2759 7.42983 7.00083 7.42983Z" stroke="#001944" stroke-width="0.933404" stroke-linecap="round" stroke-linejoin="round"/>
</g>
<defs>
<clipPath id="clip0_119_1124">
<rect width="14.0011" height="14.0011" fill="white" transform="translate(0 0.866699)"/>
</clipPath>
</defs>
</svg>
