<svg width="40" height="40" viewBox="0 0 40 40" fill="none" xmlns="http://www.w3.org/2000/svg">
<rect width="40" height="40" rx="20" fill="white" fill-opacity="0.2"/>
<mask id="mask0_3420_3679" style="mask-type:alpha" maskUnits="userSpaceOnUse" x="8" y="8" width="24" height="24">
<rect x="8" y="8" width="24" height="24" fill="white"/>
</mask>
<g mask="url(#mask0_3420_3679)">
<path d="M16.25 22.75H17.75V19.75H21.75V21.8942L24.6443 19L21.75 16.0962V18.25H17.1538C16.8978 18.25 16.6831 18.3362 16.5098 18.5087C16.3366 18.6812 16.25 18.895 16.25 19.15V22.75ZM20.002 29.3652C19.7763 29.3652 19.554 29.3201 19.335 29.2297C19.116 29.1394 18.9159 29.0038 18.7348 28.823L11.177 21.2652C10.9962 21.0849 10.8606 20.8857 10.7702 20.6675C10.6799 20.4493 10.6347 20.2275 10.6347 20.002C10.6347 19.7763 10.6799 19.554 10.7702 19.335C10.8606 19.116 10.9962 18.9159 11.177 18.7347L18.7348 11.177C18.9151 10.9962 19.1143 10.8606 19.3325 10.7702C19.5507 10.6799 19.7725 10.6347 19.998 10.6347C20.2237 10.6347 20.446 10.6799 20.665 10.7702C20.884 10.8606 21.0841 10.9962 21.2652 11.177L28.823 18.7347C29.0038 18.9151 29.1394 19.1143 29.2297 19.3325C29.3201 19.5507 29.3652 19.7725 29.3652 19.998C29.3652 20.2237 29.3201 20.446 29.2297 20.665C29.1394 20.884 29.0038 21.0841 28.823 21.2652L21.2652 28.823C21.0849 29.0038 20.8857 29.1394 20.6675 29.2297C20.4493 29.3201 20.2275 29.3652 20.002 29.3652ZM19.7885 27.7885C19.8462 27.8462 19.9167 27.875 20 27.875C20.0833 27.875 20.1538 27.8462 20.2115 27.7885L27.7885 20.2115C27.8462 20.1538 27.875 20.0833 27.875 20C27.875 19.9167 27.8462 19.8462 27.7885 19.7885L20.2115 12.2115C20.1538 12.1538 20.0833 12.125 20 12.125C19.9167 12.125 19.8462 12.1538 19.7885 12.2115L12.2115 19.7885C12.1538 19.8462 12.125 19.9167 12.125 20C12.125 20.0833 12.1538 20.1538 12.2115 20.2115L19.7885 27.7885Z" fill="white"/>
</g>
</svg>
