<svg width="25" height="24" viewBox="0 0 25 24" fill="none" xmlns="http://www.w3.org/2000/svg">
<mask id="mask0_205_4069" style="mask-type:alpha" maskUnits="userSpaceOnUse" x="0" y="0" width="25" height="24">
<rect x="0.5" width="24" height="24" fill="#D9D9D9"/>
</mask>
<g mask="url(#mask0_205_4069)">
<path d="M18.1538 19.6538C17.2169 19.6538 16.425 19.3303 15.7781 18.6834C15.1312 18.0365 14.8077 17.2446 14.8077 16.3077C14.8077 15.3707 15.1312 14.5788 15.7781 13.9319C16.425 13.285 17.2169 12.9615 18.1538 12.9615C19.0907 12.9615 19.8826 13.285 20.5296 13.9319C21.1765 14.5788 21.5 15.3707 21.5 16.3077C21.5 17.2446 21.1765 18.0365 20.5296 18.6834C19.8826 19.3303 19.0907 19.6538 18.1538 19.6538ZM18.1529 18.1538C18.6625 18.1538 19.0977 17.9737 19.4586 17.6134C19.8195 17.2532 20 16.8183 20 16.3086C20 15.799 19.8199 15.3638 19.4596 15.0029C19.0994 14.642 18.6644 14.4615 18.1548 14.4615C17.6452 14.4615 17.2099 14.6416 16.849 15.0019C16.4881 15.3621 16.3077 15.7971 16.3077 16.3067C16.3077 16.8163 16.4878 17.2516 16.848 17.6125C17.2083 17.9734 17.6432 18.1538 18.1529 18.1538ZM11.8654 17.0576H5.75C5.5375 17.0576 5.35938 16.9857 5.21563 16.8419C5.07188 16.6981 5 16.5199 5 16.3073C5 16.0947 5.07188 15.9166 5.21563 15.7731C5.35938 15.6295 5.5375 15.5577 5.75 15.5577H11.8654C12.0779 15.5577 12.256 15.6296 12.3998 15.7734C12.5435 15.9172 12.6154 16.0954 12.6154 16.308C12.6154 16.5206 12.5435 16.6987 12.3998 16.8423C12.256 16.9858 12.0779 17.0576 11.8654 17.0576ZM6.84613 11.0384C5.90923 11.0384 5.11731 10.715 4.47037 10.0681C3.82346 9.42115 3.5 8.62923 3.5 7.69232C3.5 6.7554 3.82346 5.96348 4.47037 5.31657C5.11731 4.66965 5.90923 4.34619 6.84613 4.34619C7.78304 4.34619 8.57496 4.66965 9.22188 5.31657C9.86879 5.96348 10.1923 6.7554 10.1923 7.69232C10.1923 8.62923 9.86879 9.42115 9.22188 10.0681C8.57496 10.715 7.78304 11.0384 6.84613 11.0384ZM6.84518 9.53847C7.35479 9.53847 7.79005 9.35834 8.15095 8.99809C8.51185 8.63784 8.6923 8.20291 8.6923 7.69329C8.6923 7.18366 8.51218 6.74839 8.15193 6.38749C7.79168 6.02659 7.35673 5.84614 6.8471 5.84614C6.33748 5.84614 5.90223 6.02627 5.54133 6.38654C5.18043 6.74679 4.99998 7.18172 4.99998 7.69134C4.99998 8.20096 5.1801 8.63622 5.54035 8.99712C5.9006 9.35802 6.33554 9.53847 6.84518 9.53847ZM19.25 8.44229H13.1346C12.9221 8.44229 12.744 8.37038 12.6002 8.22657C12.4565 8.08277 12.3846 7.90457 12.3846 7.69197C12.3846 7.47938 12.4565 7.3013 12.6002 7.15772C12.744 7.01413 12.9221 6.94234 13.1346 6.94234H19.25C19.4625 6.94234 19.6406 7.01424 19.7843 7.15804C19.9281 7.30186 20 7.48006 20 7.69264C20 7.90524 19.9281 8.08333 19.7843 8.22692C19.6406 8.3705 19.4625 8.44229 19.25 8.44229Z" fill="#1C1B1F"/>
</g>
</svg>
