<svg width="62" height="20" viewBox="0 0 62 20" fill="none" xmlns="http://www.w3.org/2000/svg">
<rect width="62" height="20" rx="10" fill="#6151FF"/>
<mask id="mask0_3449_788" style="mask-type:alpha" maskUnits="userSpaceOnUse" x="4" y="2" width="16" height="16">
<rect x="4" y="2" width="16" height="16" fill="#D9D9D9"/>
</mask>
<g mask="url(#mask0_3449_788)">
<path d="M11.3 10.4666L10.3333 9.51662C10.2111 9.3944 10.0583 9.33329 9.875 9.33329C9.69166 9.33329 9.53333 9.39996 9.4 9.53329C9.27778 9.65551 9.21666 9.81107 9.21666 9.99996C9.21666 10.1888 9.27778 10.3444 9.4 10.4666L10.8333 11.9C10.9667 12.0333 11.1222 12.1 11.3 12.1C11.4778 12.1 11.6333 12.0333 11.7667 11.9L14.6 9.06662C14.7333 8.93329 14.7972 8.77774 14.7917 8.59996C14.7861 8.42218 14.7222 8.26662 14.6 8.13329C14.4667 7.99996 14.3083 7.93051 14.125 7.92496C13.9417 7.9194 13.7833 7.98329 13.65 8.11662L11.3 10.4666ZM9.43333 16.5L8.46666 14.8666L6.63333 14.4666C6.46666 14.4333 6.33333 14.3472 6.23333 14.2083C6.13333 14.0694 6.09444 13.9166 6.11666 13.75L6.3 11.8666L5.05 10.4333C4.93889 10.3111 4.88333 10.1666 4.88333 9.99996C4.88333 9.83329 4.93889 9.68885 5.05 9.56662L6.3 8.13329L6.11666 6.24996C6.09444 6.08329 6.13333 5.93051 6.23333 5.79162C6.33333 5.65273 6.46666 5.56662 6.63333 5.53329L8.46666 5.13329L9.43333 3.49996C9.52222 3.35551 9.64444 3.25829 9.8 3.20829C9.95555 3.15829 10.1111 3.16662 10.2667 3.23329L12 3.96662L13.7333 3.23329C13.8889 3.16662 14.0444 3.15829 14.2 3.20829C14.3556 3.25829 14.4778 3.35551 14.5667 3.49996L15.5333 5.13329L17.3667 5.53329C17.5333 5.56662 17.6667 5.65273 17.7667 5.79162C17.8667 5.93051 17.9056 6.08329 17.8833 6.24996L17.7 8.13329L18.95 9.56662C19.0611 9.68885 19.1167 9.83329 19.1167 9.99996C19.1167 10.1666 19.0611 10.3111 18.95 10.4333L17.7 11.8666L17.8833 13.75C17.9056 13.9166 17.8667 14.0694 17.7667 14.2083C17.6667 14.3472 17.5333 14.4333 17.3667 14.4666L15.5333 14.8666L14.5667 16.5C14.4778 16.6444 14.3556 16.7416 14.2 16.7916C14.0444 16.8416 13.8889 16.8333 13.7333 16.7666L12 16.0333L10.2667 16.7666C10.1111 16.8333 9.95555 16.8416 9.8 16.7916C9.64444 16.7416 9.52222 16.6444 9.43333 16.5Z" fill="white"/>
</g>
<path d="M27.6 14H26.64L24.12 6.84H25.14L27.1 12.65H27.14L29.18 6.84H30.2L27.6 14ZM32.5803 14.16C31.8603 14.16 31.267 13.9133 30.8003 13.42C30.3336 12.9267 30.1003 12.3033 30.1003 11.55C30.1003 10.8033 30.327 10.1833 30.7803 9.69C31.2336 9.19 31.8136 8.94 32.5203 8.94C33.247 8.94 33.8236 9.17667 34.2503 9.65C34.6836 10.1167 34.9003 10.7733 34.9003 11.62L34.8903 11.72H31.0403C31.0536 12.2 31.2136 12.5867 31.5203 12.88C31.827 13.1733 32.1936 13.32 32.6203 13.32C33.207 13.32 33.667 13.0267 34.0003 12.44L34.8203 12.84C34.6003 13.2533 34.2936 13.5767 33.9003 13.81C33.5136 14.0433 33.0736 14.16 32.5803 14.16ZM31.1103 10.96H33.9203C33.8936 10.62 33.7536 10.34 33.5003 10.12C33.2536 9.89333 32.9203 9.78 32.5003 9.78C32.1536 9.78 31.8536 9.88667 31.6003 10.1C31.3536 10.3133 31.1903 10.6 31.1103 10.96ZM36.6616 14H35.7416V9.1H36.6216V9.9H36.6616C36.755 9.64 36.945 9.42 37.2316 9.24C37.525 9.05333 37.8116 8.96 38.0916 8.96C38.3583 8.96 38.585 9 38.7716 9.08L38.4916 9.97C38.3783 9.92333 38.1983 9.9 37.9516 9.9C37.605 9.9 37.3016 10.04 37.0416 10.32C36.7883 10.6 36.6616 10.9267 36.6616 11.3V14ZM40.5645 7.41C40.5645 7.59 40.5011 7.74333 40.3745 7.87C40.2478 7.99667 40.0945 8.06 39.9145 8.06C39.7345 8.06 39.5811 7.99667 39.4545 7.87C39.3278 7.74333 39.2645 7.59 39.2645 7.41C39.2645 7.23 39.3278 7.07667 39.4545 6.95C39.5811 6.82333 39.7345 6.76 39.9145 6.76C40.0945 6.76 40.2478 6.82333 40.3745 6.95C40.5011 7.07667 40.5645 7.23 40.5645 7.41ZM40.3745 9.1V14H39.4545V9.1H40.3745ZM46.4017 7.41C46.4017 7.59 46.3384 7.74333 46.2117 7.87C46.0851 7.99667 45.9317 8.06 45.7517 8.06C45.5717 8.06 45.4184 7.99667 45.2917 7.87C45.1651 7.74333 45.1017 7.59 45.1017 7.41C45.1017 7.23 45.1651 7.07667 45.2917 6.95C45.4184 6.82333 45.5717 6.76 45.7517 6.76C45.9317 6.76 46.0851 6.82333 46.2117 6.95C46.3384 7.07667 46.4017 7.23 46.4017 7.41ZM43.0917 9.94V14H42.1717V9.94H41.2517V9.1H42.1717V8.39C42.1717 8.15 42.2117 7.93 42.2917 7.73C42.3784 7.53 42.4951 7.36 42.6417 7.22C42.7884 7.07333 42.9617 6.96 43.1617 6.88C43.3684 6.8 43.5917 6.76 43.8317 6.76C44.1651 6.76 44.4384 6.81667 44.6517 6.93L44.4017 7.74C44.2417 7.66 44.0617 7.62 43.8617 7.62C43.6351 7.62 43.4484 7.7 43.3017 7.86C43.1617 8.01333 43.0917 8.22 43.0917 8.48V9.1H46.2117V14H45.2917V9.94H43.0917ZM49.5627 14.16C48.8427 14.16 48.2494 13.9133 47.7827 13.42C47.3161 12.9267 47.0827 12.3033 47.0827 11.55C47.0827 10.8033 47.3094 10.1833 47.7627 9.69C48.2161 9.19 48.7961 8.94 49.5027 8.94C50.2294 8.94 50.8061 9.17667 51.2327 9.65C51.6661 10.1167 51.8827 10.7733 51.8827 11.62L51.8727 11.72H48.0227C48.0361 12.2 48.1961 12.5867 48.5027 12.88C48.8094 13.1733 49.1761 13.32 49.6027 13.32C50.1894 13.32 50.6494 13.0267 50.9827 12.44L51.8027 12.84C51.5827 13.2533 51.2761 13.5767 50.8827 13.81C50.4961 14.0433 50.0561 14.16 49.5627 14.16ZM48.0927 10.96H50.9027C50.8761 10.62 50.7361 10.34 50.4827 10.12C50.2361 9.89333 49.9027 9.78 49.4827 9.78C49.1361 9.78 48.8361 9.88667 48.5827 10.1C48.3361 10.3133 48.1727 10.6 48.0927 10.96ZM54.9729 13.32C55.4262 13.32 55.7962 13.1567 56.0829 12.83C56.3829 12.5033 56.5329 12.0767 56.5329 11.55C56.5329 11.0367 56.3829 10.6133 56.0829 10.28C55.7896 9.94667 55.4196 9.78 54.9729 9.78C54.5329 9.78 54.1629 9.94667 53.8629 10.28C53.5629 10.6133 53.4129 11.0367 53.4129 11.55C53.4129 12.07 53.5629 12.4933 53.8629 12.82C54.1629 13.1533 54.5329 13.32 54.9729 13.32ZM54.8229 14.16C54.1829 14.16 53.6329 13.9067 53.1729 13.4C52.7196 12.8867 52.4929 12.27 52.4929 11.55C52.4929 10.83 52.7196 10.2133 53.1729 9.7C53.6329 9.19333 54.1829 8.94 54.8229 8.94C55.1829 8.94 55.5096 9.01667 55.8029 9.17C56.1029 9.32333 56.3329 9.52667 56.4929 9.78H56.5329L56.4929 9.1V6.84H57.4129V14H56.5329V13.32H56.4929C56.3329 13.5733 56.1029 13.7767 55.8029 13.93C55.5096 14.0833 55.1829 14.16 54.8229 14.16Z" fill="white"/>
</svg>
