<svg width="15" height="15" viewBox="0 0 15 15" fill="none" xmlns="http://www.w3.org/2000/svg">
<path d="M1.96295 4.35645C2.28521 4.52637 6.76177 6.9668 6.92877 7.05469C7.09576 7.14258 7.26568 7.18359 7.52935 7.18359C7.79302 7.18359 7.96295 7.14258 8.12994 7.05469C8.29693 6.9668 12.7735 4.52637 13.0958 4.35645C13.2159 4.29492 13.418 4.18359 13.462 4.05762C13.5381 3.83496 13.4561 3.75 13.1309 3.75H1.92779C1.6026 3.75 1.52056 3.83789 1.59674 4.05762C1.64068 4.18652 1.84283 4.29492 1.96295 4.35645Z" fill="#595959"/>
<path d="M13.3506 4.48828C13.1104 4.61133 10.9541 6.14648 9.52734 7.06934L11.9355 9.7793C11.9941 9.83789 12.0205 9.9082 11.9883 9.94336C11.9531 9.97559 11.877 9.95801 11.8154 9.90234L8.92676 7.46484C8.49023 7.74609 8.18262 7.93945 8.12988 7.96875C7.9043 8.08301 7.74609 8.09766 7.5293 8.09766C7.3125 8.09766 7.1543 8.08301 6.92871 7.96875C6.87305 7.93945 6.56836 7.74609 6.13184 7.46484L3.24316 9.90234C3.18457 9.96094 3.10547 9.97852 3.07031 9.94336C3.03516 9.91113 3.06152 9.83789 3.12012 9.7793L5.52539 7.06934C4.09863 6.14648 1.91895 4.61133 1.67871 4.48828C1.4209 4.35645 1.40625 4.51172 1.40625 4.63184V10.6377C1.40625 10.9102 1.80762 11.25 2.09473 11.25H12.9639C13.251 11.25 13.5937 10.9072 13.5937 10.6377V4.63184C13.5937 4.50879 13.6113 4.35645 13.3506 4.48828Z" fill="#595959"/>
</svg>
