<svg width="131" height="149" viewBox="0 0 131 149" fill="none" xmlns="http://www.w3.org/2000/svg">
<path d="M107.796 80.3398H22.205V133.002H107.796V80.3398Z" fill="#8787FF"/>
<path d="M109.204 126.51H20.8293V133.001H109.204V126.51Z" fill="#312F8B"/>
<g style="mix-blend-mode:multiply" opacity="0.3">
<path d="M109.204 131.963H20.8293V133.001H109.204V131.963Z" fill="#FAC896"/>
</g>
<g style="mix-blend-mode:multiply" opacity="0.4">
<path d="M107.796 80.3398V88.47L22.205 94.4588V80.3398H107.796Z" fill="#594A4A"/>
</g>
<path d="M114 86.3925H16L20.9637 66.2512H109.036L113.161 83.0468L113.195 83.214L113.262 83.281L114 86.3925Z" fill="#514A59"/>
<g style="mix-blend-mode:multiply" opacity="0.2">
<path d="M114 86.3925H16L20.9637 66.2512H21.7686L29.1471 76.3553L113.161 83.0468L113.195 83.214L113.262 83.281L114 86.3925Z" fill="#514A59"/>
</g>
<path d="M102.496 32.7286H27.5371V66.2528H102.496V32.7286Z" fill="#8787FF"/>
<g style="mix-blend-mode:multiply" opacity="0.3">
<path d="M102.496 32.7286V41.7621L27.5371 47.0818V32.7286H102.496Z" fill="#594A4A"/>
</g>
<path d="M107.661 39.0186H22.3384L36.0557 16H93.977L104.844 34.2677L105.749 35.8067L105.85 35.9071L107.661 39.0186Z" fill="#514A59"/>
<g style="mix-blend-mode:multiply" opacity="0.2">
<path d="M107.661 39.0186H22.3384L36.0557 16H36.5253L33.272 27.5093L104.844 34.2677L105.749 35.8067L105.85 35.9071L107.661 39.0186Z" fill="#514A59"/>
</g>
<path d="M108.365 35.9077H21.6678V39.0192H108.365V35.9077Z" fill="#36313B"/>
<path d="M114 83.6855H16V86.3956H114V83.6855Z" fill="#36313B"/>
<path d="M76.906 93.8208H54.3344V133.033H76.906V93.8208Z" fill="#BA8F64"/>
<path d="M75.095 96.6306H56.1457V132.999H75.095V96.6306Z" fill="#36313B"/>
<path d="M73.955 97.6697H57.2863V131.963H73.955V97.6697Z" fill="#8F3356"/>
<path d="M45.6481 43.2689H36.056V60.3321H45.6481V43.2689Z" fill="#F0E0D8"/>
<path d="M45.0442 44.2394H36.6931V59.3286H45.0442V44.2394Z" fill="#36313B"/>
<path d="M44.0717 45.3405H37.6658V58.255H44.0717V45.3405Z" fill="#D99D4E"/>
<path d="M41.2548 45.3405H40.5169V58.255H41.2548V45.3405Z" fill="#36313B"/>
<g style="mix-blend-mode:multiply" opacity="0.3">
<path d="M47.0905 60.2296H34.6477V62.3709H47.0905V60.2296Z" fill="#594A4A"/>
</g>
<path d="M47.0905 59.1611H34.6477V61.3024H47.0905V59.1611Z" fill="#F0E0D8"/>
<g style="mix-blend-mode:multiply" opacity="0.5">
<path d="M45.0442 44.2394V59.3286H44.5747L42.3276 46.481L36.6931 45.3769V44.2394H45.0442Z" fill="#D99D4E"/>
</g>
<path d="M44.7426 94.4579H33.6078V114.231H44.7426V94.4579Z" fill="#F0E0D8"/>
<path d="M44.0047 95.595H34.3455V113.093H44.0047V95.595Z" fill="#36313B"/>
<path d="M42.8982 96.866H35.4861V111.821H42.8982V96.866Z" fill="#D99D4E"/>
<path d="M39.6113 96.866H38.7393V111.821H39.6113V96.866Z" fill="#36313B"/>
<g style="mix-blend-mode:multiply" opacity="0.3">
<path d="M46.386 114.13H31.9644V116.606H46.386V114.13Z" fill="#594A4A"/>
</g>
<path d="M46.386 112.892H31.9644V115.368H46.386V112.892Z" fill="#F0E0D8"/>
<g style="mix-blend-mode:multiply" opacity="0.5">
<path d="M44.0047 95.595V113.093H43.468L40.852 98.2046L34.3455 96.8998V95.595H44.0047Z" fill="#D99D4E"/>
</g>
<path d="M99.7457 94.4579H88.6109V114.231H99.7457V94.4579Z" fill="#F0E0D8"/>
<path d="M99.0086 95.595H89.3495V113.093H99.0086V95.595Z" fill="#36313B"/>
<path d="M97.8677 96.866H90.4557V111.821H97.8677V96.866Z" fill="#D99D4E"/>
<path d="M94.6144 96.866H93.7424V111.821H94.6144V96.866Z" fill="#36313B"/>
<g style="mix-blend-mode:multiply" opacity="0.3">
<path d="M101.356 114.13H86.9339V116.606H101.356V114.13Z" fill="#594A4A"/>
</g>
<path d="M101.356 112.892H86.9339V115.368H101.356V112.892Z" fill="#F0E0D8"/>
<g style="mix-blend-mode:multiply" opacity="0.5">
<path d="M99.0086 95.595V113.093H98.472L95.856 98.2046L89.3495 96.8998V95.595H99.0086Z" fill="#D99D4E"/>
</g>
<path d="M70.0979 43.2689H60.5059V60.3321H70.0979V43.2689Z" fill="#F0E0D8"/>
<path d="M69.494 44.2394H61.1429V59.3286H69.494V44.2394Z" fill="#36313B"/>
<path d="M68.5215 45.3405H62.1157V58.255H68.5215V45.3405Z" fill="#D99D4E"/>
<path d="M65.671 45.3405H64.9332V58.255H65.671V45.3405Z" fill="#36313B"/>
<g style="mix-blend-mode:multiply" opacity="0.3">
<path d="M71.5403 60.2296H59.0975V62.3709H71.5403V60.2296Z" fill="#594A4A"/>
</g>
<path d="M71.5403 59.1611H59.0975V61.3024H71.5403V59.1611Z" fill="#F0E0D8"/>
<g style="mix-blend-mode:multiply" opacity="0.5">
<path d="M69.494 44.2394V59.3286H69.0245L66.7774 46.481L61.1429 45.3769V44.2394H69.494Z" fill="#D99D4E"/>
</g>
<path d="M94.5478 43.2689H84.9557V60.3321H94.5478V43.2689Z" fill="#F0E0D8"/>
<path d="M93.9438 44.2394H85.5927V59.3286H93.9438V44.2394Z" fill="#36313B"/>
<path d="M92.9714 45.3405H86.5655V58.255H92.9714V45.3405Z" fill="#D99D4E"/>
<path d="M90.1201 45.3405H89.3822V58.255H90.1201V45.3405Z" fill="#36313B"/>
<g style="mix-blend-mode:multiply" opacity="0.3">
<path d="M95.9894 60.2296H83.5465V62.3709H95.9894V60.2296Z" fill="#594A4A"/>
</g>
<path d="M95.9894 59.1611H83.5465V61.3024H95.9894V59.1611Z" fill="#F0E0D8"/>
<g style="mix-blend-mode:multiply" opacity="0.5">
<path d="M93.9438 44.2394V59.3286H93.4743L91.2272 46.481L85.5927 45.3769V44.2394H93.9438Z" fill="#D99D4E"/>
</g>
<path d="M72.8481 99.0746H58.7953V109.045H72.8481V99.0746Z" fill="#36313B"/>
<path d="M71.9426 100.045H59.7345V108.041H71.9426V100.045Z" fill="#D99D4E"/>
<path d="M66.3414 100.045H65.3017V108.041H66.3414V100.045Z" fill="#36313B"/>
<g style="mix-blend-mode:multiply" opacity="0.5">
<path d="M72.8481 99.0746V109.045H71.473L70.0643 101.417L58.7953 100.246V99.0746H72.8481Z" fill="#D99D4E"/>
</g>
<path opacity="0.3" d="M61.5789 110.984H59.4995V129.486H61.5789V110.984Z" fill="#E35188"/>
<path d="M61.5789 110.582H59.4995V129.084H61.5789V110.582Z" fill="#8F3356"/>
<g style="mix-blend-mode:multiply" opacity="0.4">
<path d="M61.5789 110.582V129.117H61.1765L60.7069 111.184L59.4995 110.883V110.582H61.5789Z" fill="#8F3356"/>
</g>
<path opacity="0.3" d="M65.1007 110.984H63.0213V129.486H65.1007V110.984Z" fill="#E35188"/>
<path d="M65.1007 110.582H63.0213V129.084H65.1007V110.582Z" fill="#8F3356"/>
<g style="mix-blend-mode:multiply" opacity="0.4">
<path d="M65.1007 110.582V129.117H64.6982L64.2287 111.184L63.0213 110.883V110.582H65.1007Z" fill="#8F3356"/>
</g>
<path opacity="0.3" d="M68.6224 110.984H66.543V129.486H68.6224V110.984Z" fill="#E35188"/>
<path d="M68.6224 110.582H66.543V129.084H68.6224V110.582Z" fill="#8F3356"/>
<g style="mix-blend-mode:multiply" opacity="0.4">
<path d="M68.6224 110.582V129.117H68.2199L67.7504 111.184L66.543 110.883V110.582H68.6224Z" fill="#8F3356"/>
</g>
<path opacity="0.3" d="M72.1441 110.984H70.0647V129.486H72.1441V110.984Z" fill="#E35188"/>
<path d="M72.1441 110.582H70.0647V129.084H72.1441V110.582Z" fill="#8F3356"/>
<g style="mix-blend-mode:multiply" opacity="0.4">
<path d="M72.1441 110.582V129.117H71.7416L71.2721 111.184L70.0647 110.883V110.582H72.1441Z" fill="#8F3356"/>
</g>
<g style="mix-blend-mode:multiply" opacity="0.3">
<path d="M58.4261 111.154H57.9901C57.8049 111.154 57.6548 111.304 57.6548 111.488V115.637C57.6548 115.822 57.8049 115.972 57.9901 115.972H58.4261C58.6114 115.972 58.7615 115.822 58.7615 115.637V111.488C58.7615 111.304 58.6114 111.154 58.4261 111.154Z" fill="#36313B"/>
</g>
<path d="M58.4597 110.984H58.0237C57.8385 110.984 57.6883 111.134 57.6883 111.318V115.467C57.6883 115.652 57.8385 115.802 58.0237 115.802H58.4597C58.6449 115.802 58.7951 115.652 58.7951 115.467V111.318C58.7951 111.134 58.6449 110.984 58.4597 110.984Z" fill="#36313B"/>
<g style="mix-blend-mode:multiply" opacity="0.3">
<path d="M61.1096 113.26L58.3594 112.993C58.1917 112.993 58.024 112.825 58.024 112.625C58.024 112.457 58.1582 112.323 58.3594 112.323L61.1096 112.591C61.2773 112.591 61.445 112.758 61.445 112.959C61.445 113.126 61.3108 113.26 61.1096 113.26Z" fill="#36313B"/>
</g>
<path d="M61.1096 112.124H58.3594C58.1742 112.124 58.024 112.274 58.024 112.459C58.024 112.644 58.1742 112.793 58.3594 112.793H61.1096C61.2948 112.793 61.445 112.644 61.445 112.459C61.445 112.274 61.2948 112.124 61.1096 112.124Z" fill="#36313B"/>
<g style="mix-blend-mode:multiply" opacity="0.3">
<path d="M58.2589 114.968C58.2589 114.968 58.0912 114.901 58.0912 114.8V114.265C58.0912 114.265 58.1583 114.098 58.2589 114.098C58.2589 114.098 58.4266 114.165 58.4266 114.265V114.8C58.4266 114.8 58.3595 114.968 58.2589 114.968Z" fill="#36313B"/>
</g>
<g style="mix-blend-mode:multiply" opacity="0.6">
<path d="M54.3344 93.8208L56.1455 96.6312H75.0949L76.906 93.8208H54.3344Z" fill="#031729"/>
</g>
<g style="mix-blend-mode:multiply" opacity="0.4">
<path d="M75.0955 96.6312V132.999H76.9066V93.8208L75.0955 96.6312Z" fill="#031729"/>
</g>
<path opacity="0.2" d="M113.229 83.2165L105.582 68.3615L31.2602 66.2871H109.036L113.229 83.2165Z" fill="#FFD4D4"/>
<path opacity="0.3" d="M105.749 35.8067L91.2607 18.4758L36.056 16H93.9773L105.749 35.8067Z" fill="#FFD4D4"/>
<path d="M102.496 64.4803H27.5371V66.287H102.496V64.4803Z" fill="#312F8B"/>
<path d="M1 133H130" stroke="#312F8B" stroke-linecap="round"/>
</svg>
