<svg width="12" height="10" viewBox="0 0 12 10" fill="none" xmlns="http://www.w3.org/2000/svg">
<g clip-path="url(#clip0_573_112)">
<path d="M5.94643 7.5L6.72321 6.67614L5.70536 5.59659L4.92857 6.42045V6.81818H5.57143V7.5H5.94643ZM8.89286 2.38636C8.82143 2.31061 8.74777 2.31297 8.67188 2.39347L6.32812 4.87926C6.25223 4.95975 6.25 5.03788 6.32143 5.11364C6.39286 5.18939 6.46652 5.18703 6.54241 5.10653L8.88616 2.62074C8.96205 2.54025 8.96429 2.46212 8.89286 2.38636ZM9.42857 6.60511V7.95455C9.42857 8.51799 9.23996 8.99976 8.86272 9.39986C8.48549 9.79995 8.03125 10 7.5 10H1.92857C1.39732 10 0.94308 9.79995 0.565848 9.39986C0.188616 8.99976 0 8.51799 0 7.95455V2.04545C0 1.48201 0.188616 1.00024 0.565848 0.600142C0.94308 0.200047 1.39732 0 1.92857 0H7.5C7.78125 0 8.04241 0.0591856 8.28348 0.177557C8.35045 0.210701 8.39062 0.265152 8.40402 0.340909C8.41741 0.421402 8.39732 0.490057 8.34375 0.546875L8.01562 0.894886C7.95312 0.961174 7.8817 0.980114 7.80134 0.951705C7.69866 0.923295 7.59821 0.909091 7.5 0.909091H1.92857C1.63393 0.909091 1.3817 1.02036 1.17188 1.2429C0.962054 1.46544 0.857143 1.73295 0.857143 2.04545V7.95455C0.857143 8.26705 0.962054 8.53456 1.17188 8.7571C1.3817 8.97964 1.63393 9.09091 1.92857 9.09091H7.5C7.79464 9.09091 8.04688 8.97964 8.2567 8.7571C8.46652 8.53456 8.57143 8.26705 8.57143 7.95455V7.05966C8.57143 6.99811 8.59152 6.94602 8.6317 6.90341L9.06027 6.44886C9.12723 6.37784 9.20536 6.36127 9.29464 6.39915C9.38393 6.43703 9.42857 6.50568 9.42857 6.60511ZM8.78571 1.36364L10.7143 3.40909L6.21429 8.18182H4.28571V6.13636L8.78571 1.36364ZM11.7589 2.30114L11.1429 2.95455L9.21429 0.909091L9.83036 0.255682C9.95536 0.123106 10.1071 0.0568182 10.2857 0.0568182C10.4643 0.0568182 10.6161 0.123106 10.7411 0.255682L11.7589 1.33523C11.8839 1.4678 11.9464 1.62879 11.9464 1.81818C11.9464 2.00758 11.8839 2.16856 11.7589 2.30114Z" fill="#595959"/>
</g>
<defs>
<clipPath id="clip0_573_112">
<rect width="12" height="10" fill="white"/>
</clipPath>
</defs>
</svg>
