<svg width="15" height="15" viewBox="0 0 15 15" fill="none" xmlns="http://www.w3.org/2000/svg">
<path d="M13.125 1.25H3.75C3.41848 1.25 3.10054 1.3817 2.86612 1.61612C2.6317 1.85054 2.5 2.16848 2.5 2.5V4.375H1.25V5.625H2.5V6.875H1.25V8.125H2.5V9.375H1.25V10.625H2.5V12.5C2.5 12.8315 2.6317 13.1495 2.86612 13.3839C3.10054 13.6183 3.41848 13.75 3.75 13.75H13.125C13.2908 13.75 13.4497 13.6842 13.5669 13.5669C13.6842 13.4497 13.75 13.2908 13.75 13.125V1.875C13.75 1.70924 13.6842 1.55027 13.5669 1.43306C13.4497 1.31585 13.2908 1.25 13.125 1.25ZM8.125 3.12438C9.155 3.12438 10 3.96875 10 4.99938C9.99819 5.49616 9.80008 5.97208 9.44886 6.32342C9.09764 6.67476 8.62178 6.87302 8.125 6.875C7.09562 6.875 6.25 6.02938 6.25 4.99938C6.25 3.96875 7.09562 3.12438 8.125 3.12438ZM11.875 11.25H4.375V10.7812C4.375 9.39437 6.06563 7.96875 8.125 7.96875C10.1844 7.96875 11.875 9.39437 11.875 10.7812V11.25Z" fill="#595959"/>
</svg>
