<svg width="15" height="15" viewBox="0 0 15 15" fill="none" xmlns="http://www.w3.org/2000/svg">
<g clip-path="url(#clip0_573_106)">
<path d="M2.8125 1.875C2.8125 1.37772 3.01004 0.900806 3.36167 0.549175C3.71331 0.197544 4.19022 0 4.6875 0L10.3125 0C10.8098 0 11.2867 0.197544 11.6383 0.549175C11.99 0.900806 12.1875 1.37772 12.1875 1.875V13.125C12.1875 13.6223 11.99 14.0992 11.6383 14.4508C11.2867 14.8025 10.8098 15 10.3125 15H4.6875C4.19022 15 3.71331 14.8025 3.36167 14.4508C3.01004 14.0992 2.8125 13.6223 2.8125 13.125V1.875ZM8.4375 12.1875C8.4375 11.9389 8.33873 11.7004 8.16291 11.5246C7.9871 11.3488 7.74864 11.25 7.5 11.25C7.25136 11.25 7.0129 11.3488 6.83709 11.5246C6.66127 11.7004 6.5625 11.9389 6.5625 12.1875C6.5625 12.4361 6.66127 12.6746 6.83709 12.8504C7.0129 13.0262 7.25136 13.125 7.5 13.125C7.74864 13.125 7.9871 13.0262 8.16291 12.8504C8.33873 12.6746 8.4375 12.4361 8.4375 12.1875Z" fill="#595959"/>
</g>
<defs>
<clipPath id="clip0_573_106">
<rect width="15" height="15" fill="white"/>
</clipPath>
</defs>
</svg>
